/* XPM */
static char * premio4_xpm[] = {
"64 64 61 1",
" 	c None",
".	c #0E071B",
"+	c #22081C",
"@	c #19081B",
"#	c #C0232F",
"$	c #C22430",
"%	c #C12430",
"&	c #891E2B",
"*	c #861D2A",
"=	c #C42430",
"-	c #C32430",
";	c #8C1E2B",
">	c #20081C",
",	c #2C2A32",
"'	c #362A32",
")	c #C4373F",
"!	c #C5373F",
"~	c #8E333C",
"{	c #8C333B",
"]	c #19091C",
"^	c #FAFAFA",
"/	c #FDFDFD",
"(	c #FEFDFD",
"_	c #FBFAFA",
":	c #2C2931",
"<	c #2C191B",
"[	c #3C3132",
"}	c #FFFFFF",
"|	c #2B252B",
"1	c #FA9F14",
"2	c #FDA32E",
"3	c #FFFDFD",
"4	c #3C3B40",
"5	c #F4E2CB",
"6	c #FDA014",
"7	c #FFA52E",
"8	c #FFFCFA",
"9	c #FFFEFD",
"0	c #3B383B",
"a	c #3B3436",
"b	c #F7E4CE",
"c	c #FDFCFC",
"d	c #FFA215",
"e	c #FFA73E",
"f	c #FFFEFE",
"g	c #F9E7D1",
"h	c #FFFFFE",
"i	c #0F081C",
"j	c #F9E7D0",
"k	c #F7E4CD",
"l	c #3B3435",
"m	c #F9E6CF",
"n	c #3C3A40",
"o	c #0F081B",
"p	c #2C1F1B",
"q	c #2C201B",
"r	c #FAC425",
"s	c #FDC625",
"t	c #FFC825",
"u	c #3C2D1B",
"v	c #FCC525",
"                                                                ",
"                                                                ",
"                                                                ",
"                                                                ",
"                                                                ",
"                                                                ",
"                                                                ",
"                                                                ",
"                                                                ",
"                                                                ",
"                                                                ",
"                                                                ",
"                                                                ",
"                                                                ",
"                                                                ",
"                                                                ",
"                                                                ",
"                                                                ",
"                            ......                              ",
"                            ++++@@                              ",
"                          .+#$$%&*@.                            ",
"                          .+$=-$&*@.                            ",
"                        ...+$-;&>@                              ",
"                        ,,,')!~{].                              ",
"                      .,^///((/_:.    ..  ..                    ",
"                      <[/}}}//}/,.    ||  ,,                    ",
"                    .<123}}/44//,.  .|55|,^^,.                  ",
"                    .<6789}/,,//0|  |abb04cc,.                  ",
"                    .<6d7e9/,,/fb5||5b9f/cgb|.                  ",
"                    .<16623/44/hgb00bgh}h9b5|.                  ",
"                      <<<[/}//}}hf//fh}hgba|                    ",
"                      .i:4ch}}}}}}//}}h9jkl|                    ",
"                      .:^cggh}}}}/44/hgjmmk5|.                  ",
"                      .,c9gg9f///^n4c9jmkkk5|.                  ",
"                      .|bg99gb0,,n^cgjmkl|||                    ",
"                      .|5b99gba|,4c9bkk5|...                    ",
"                        |abg99bbccgba|||                        ",
"                        .|5bccbbccb5|...                        ",
"                          ||,,||,,||                            ",
"                          ...opqqpo.                            ",
"                            .prssrp.                            ",
"                            .prstsq.                            ",
"                              pussq.                            ",
"                              .pvvp.                            ",
"                                                                ",
"                                                                ",
"                                                                ",
"                                                                ",
"                                                                ",
"                                                                ",
"                                                                ",
"                                                                ",
"                                                                ",
"                                                                ",
"                                                                ",
"                                                                ",
"                                                                ",
"                                                                ",
"                                                                ",
"                                                                ",
"                                                                ",
"                                                                ",
"                                                                ",
"                                                                "};
