/* XPM */
static char * prota_trasero3_xpm[] = {
"64 64 41 1",
" 	c None",
".	c #4F422F",
"+	c #554835",
"@	c #D8C3A1",
"#	c #554732",
"$	c #5A4C38",
"%	c #DAC5A4",
"&	c #CEAD7B",
"*	c #D0B07E",
"=	c #E6DCCC",
"-	c #D0AF7D",
";	c #D2B280",
">	c #E7DCCD",
",	c #D2B282",
"'	c #DAC4A2",
")	c #DCC6A4",
"!	c #E7DDCD",
"~	c #E7DDCE",
"{	c #E5DACB",
"]	c #564A39",
"^	c #DCC7A6",
"/	c #E5DBCC",
"(	c #5B4E3B",
"_	c #DCC6A3",
":	c #DAC4A3",
"<	c #DCC7A5",
"[	c #D1B17F",
"}	c #E7DCCC",
"|	c #DCC5A3",
"1	c #5A4B35",
"2	c #D1B07E",
"3	c #544732",
"4	c #CFAF7C",
"5	c #E5DBCB",
"6	c #5C4F3E",
"7	c #DCC6A5",
"8	c #E3D9CA",
"9	c #5C5141",
"0	c #5B4E3A",
"a	c #D1B07D",
"b	c #E6DBCB",
"                                                                ",
"                                                                ",
"                                                                ",
"                                                                ",
"                                                                ",
"                                                                ",
"                                                                ",
"                                                                ",
"                        ..              ..                      ",
"                        ++              ++                      ",
"                      .+@@+.          .+@@+.                    ",
"                      #$%%$#          #$%%$#                    ",
"                    .#&*==*&#.      .#&*==*&#.                  ",
"                    .#-;>>,*#.      .#*,>>;-#.                  ",
"                    .+')!~>{].      .]{>~!)'+.                  ",
"                    #$%^!~~/(#      #(/~~!^%$#                  ",
"                  .#&*=!~~~>*&#....#&*>~~~!=*&#.                ",
"                  .#-;>~~~~>;-$++++$-;>~~~~>;-#.                ",
"                  .+')!~~~~!)_::::::_)!~~~~!)'+.                ",
"                  #$:<!~~~~!^<<<<<<<<^!~~~~!<:$#                ",
"                .#&-_<!~~~~~!!!!!!!!!!~~~~~!<_-&#.              ",
"                .#-[)^!~~~~~~~~~~~~~~~~~~~~!^)[-#.              ",
"                .+')}!~~~~~~~~~~~~~~~~~~~~~~!})'+.              ",
"                .+:<!~~~~~~~~~~~~~~~~~~~~~~~~!<:+.              ",
"                .+:<!~~~~~~~~~~~~~~~~~~~~~~~~!<:+.              ",
"                .+:<!~~~~~~~~~~~~~~~~~~~~~~~~!<:+.              ",
"              ...+:<!~~~~~~~~~~~~~~~~~~~~~~~~!<:+...            ",
"              ...+:<}!~~~~~~~~~~~~~~~~~~~~~~!}<:+...            ",
"                .+:)<^!~~~~~~~~~~~~~~~~~~~~!^<):+.              ",
"                .+'_)<}!~~~~~~~~~~~~~~~~~~!}<)_'+.              ",
"              ...#-[_)<^!~~~~~~~~~~~~~~~~!^<)_[-#...            ",
"              ...#&-|_)<}!!!!!!!!!!!!!!!!}<)_|-&#...            ",
"                  #1-[_)<<<<<<<<<<<<<<<<<<)_[-1#                ",
"                  .#&-':____))))))))))____:'-&#.                ",
"                    ##+$-22[_))))))))_[22-$+##                  ",
"                    ...3&44-'::::::::'-44&3...                  ",
"                      ..3###++++++++++###3..                    ",
"                      ++]]++]]]]]]]]]]++]]++                    ",
"                    .+@%55%%5////////5%%55%@+.                  ",
"                    ]6%^>>^^!~~~~~~~~!^^==7:$#                  ",
"                  .]8/!>^^>!~~~~~~~~~~!=,;__-&#.                ",
"                  ]9/~!}%%!~~~~~~~~~~~~>*-||24#.                ",
"                .]8/~!^%06/~~~~~~~~~~~~/(1-2a4#.                ",
"                .]/~~!%@+]/~~~~~~~~~~~~/]3&44&#.                ",
"                .]/~~/6+.]/~~~~~~~~~~~~/].3###                  ",
"                .]8//8]..]5!~~~~~~~~~~!5].....                  ",
"                  ]]]]  .+%^!~~~~~~~~!^%+.                      ",
"                  ....  .+:75/~~!!//>=7:+.                      ",
"                        .+::69/!^%6(*;_:+.                      ",
"                        .+@@$(/!)'+#-[)%+.                      ",
"                          +$&*>>;-#+')}5].                      ",
"                          ](*,bb*&3+%^!/].                      ",
"              ...........]8/>b,*13.]5!~/].                      ",
"              ##++]]]]]]]95!/{*&#..]5!!5].                      ",
"            .#&-'%5//////5^%6]##  .+%<<%+.                      ",
"            .#&-'%5//////5%@+...  .+@::@+.                      ",
"              ##++]]]]]]]]++        ++++                        ",
"              ..............        ....                        ",
"                                                                ",
"                                                                ",
"                                                                ",
"                                                                ",
"                                                                ",
"                                                                "};
