/* XPM */
static char * prota_derecha2_xpm[] = {
"64 64 167 2",
"  	c None",
". 	c #4F422F",
"+ 	c #554732",
"@ 	c #554835",
"# 	c #CEAD7B",
"$ 	c #D0AF7D",
"% 	c #DAC4A2",
"& 	c #D8C3A1",
"* 	c #5A4B35",
"= 	c #D1B17F",
"- 	c #DCC6A4",
"; 	c #DAC5A4",
"> 	c #CFAF7C",
", 	c #DCC5A3",
"' 	c #E7DCCC",
") 	c #E5DBCB",
"! 	c #564A39",
"~ 	c #D1B07D",
"{ 	c #DCC7A6",
"] 	c #E7DBCE",
"^ 	c #E5DACD",
"/ 	c #544732",
"( 	c #D1AF7F",
"_ 	c #CFAE7E",
": 	c #EB98EA",
"< 	c #E995E8",
"[ 	c #56453C",
"} 	c #BB78B8",
"| 	c #B976B7",
"1 	c #534437",
"2 	c #E7DBCF",
"3 	c #EB96EA",
"4 	c #E993E9",
"5 	c #5C4B41",
"6 	c #5A4C38",
"7 	c #D0AE80",
"8 	c #BB77B9",
"9 	c #B974B8",
"0 	c #EB94EB",
"a 	c #EB95EA",
"b 	c #DBC3A5",
"c 	c #584839",
"d 	c #BA75BA",
"e 	c #5B4E3A",
"f 	c #E7DDCD",
"g 	c #E7DCCF",
"h 	c #EA97E9",
"i 	c #DDC6A7",
"j 	c #5C4F3E",
"k 	c #5A4B3F",
"l 	c #BA78B9",
"m 	c #BB78BA",
"n 	c #BB77BA",
"o 	c #B977B8",
"p 	c #58483A",
"q 	c #E7DDCE",
"r 	c #DDC4A8",
"s 	c #E7DCCD",
"t 	c #E5DBCC",
"u 	c #E6DBCE",
"v 	c #E6DBCD",
"w 	c #DCC5A5",
"x 	c #DBC4A4",
"y 	c #D0B07E",
"z 	c #D2B280",
"A 	c #EB97E9",
"B 	c #E6DCCC",
"C 	c #5C5141",
"D 	c #584D3E",
"E 	c #5E5446",
"F 	c #FBFBFA",
"G 	c #FCFCFC",
"H 	c #E7DECF",
"I 	c #DAC4A3",
"J 	c #DCC7A5",
"K 	c #E6DCCD",
"L 	c #5A4D38",
"M 	c #5C503E",
"N 	c #FCFBFA",
"O 	c #FEFDFC",
"P 	c #E8DECF",
"Q 	c #5A4E3D",
"R 	c #B9AE9E",
"S 	c #BBB0A0",
"T 	c #C69D1F",
"U 	c #C59C03",
"V 	c #C8A027",
"W 	c #C9A133",
"X 	c #C79F28",
"Y 	c #54462F",
"Z 	c #C9A01E",
"` 	c #C89E00",
" .	c #C79D02",
"..	c #54462E",
"+.	c #E8DDCC",
"@.	c #FED21E",
"#.	c #FED200",
"$.	c #FCD002",
"%.	c #58492E",
"&.	c #FED32C",
"*.	c #FFD31E",
"=.	c #E8DECD",
"-.	c #E7DDCF",
";.	c #E8DDCD",
">.	c #FED323",
",.	c #FCD10F",
"'.	c #58492F",
").	c #FEFEFD",
"!.	c #FFFEFE",
"~.	c #5D5244",
"{.	c #EBEBEF",
"].	c #ECECF0",
"^.	c #D3B280",
"/.	c #D0AF7B",
"(.	c #E8DFD0",
"_.	c #FFFFFF",
":.	c #FEFDFD",
"<.	c #FBFBFB",
"[.	c #5D5347",
"}.	c #5B5146",
"|.	c #EAE9EE",
"1.	c #EBEAEE",
"2.	c #D0B080",
"3.	c #AD9471",
"4.	c #AB926F",
"5.	c #D1CFDC",
"6.	c #A98F6A",
"7.	c #574934",
"8.	c #FEFEFE",
"9.	c #FDFDFD",
"0.	c #AB9270",
"a.	c #AA916E",
"b.	c #D0CFDC",
"c.	c #A88E69",
"d.	c #A58B63",
"e.	c #524531",
"f.	c #5B4E3B",
"g.	c #DDC7A7",
"h.	c #EDEDF1",
"i.	c #EDEDF2",
"j.	c #D3D2DF",
"k.	c #5A4F44",
"l.	c #55493B",
"m.	c #DBC5A5",
"n.	c #EBEAEF",
"o.	c #EBEBF0",
"p.	c #D2D1DE",
"q.	c #D0CEDC",
"r.	c #564B3D",
"s.	c #574B3D",
"t.	c #E5DBCD",
"u.	c #D1D0DE",
"v.	c #D5D4E1",
"w.	c #D4D3E1",
"x.	c #D3D2E0",
"y.	c #D2B282",
"z.	c #FDFDFE",
"A.	c #D2D1DF",
"B.	c #E7DED0",
"C.	c #D4D3E0",
"D.	c #DCC6A3",
"E.	c #D3D2DE",
"F.	c #D1D0DD",
"G.	c #D1B17E",
"H.	c #D1B180",
"I.	c #CFAF7F",
"J.	c #D1B07E",
"                                                                                                                                ",
"                                                                                                                                ",
"                                                                                                                                ",
"                                                                                                                                ",
"                                                                                                                                ",
"                                                                                                                                ",
"                                                            . . . .             . .                                             ",
"                                                            + + @ @             + +                                             ",
"                                                        . + # $ % & @ .     . + # # + .                                         ",
"                                                        + * $ = - ; @ .     + * > > + .                                         ",
"                                                    . + # $ , - ' ) ! . . + # > ~ > + .                                         ",
"                                                    + * $ = - { ] ^ ! . / * > ~ ( _ + .                                         ",
"                                                . + # $ , - ' ] : < [ / # > ~ ( } | 1 .                                         ",
"                                                . + $ = - { ] 2 3 4 5 6 # > ( 7 8 9 1 .                                         ",
"                                            . . . @ % - ' ] : 3 0 a b & 6 c | 8 d 9 1 .                                         ",
"                                            + + @ e ; { f g 3 0 a h i ; j k l m n o p +                                         ",
"                                        . + # $ % ; ' f q g 3 a r i s f t t u v w x $ # + .                                     ",
"                                        @ 6 y z - { f q q g : A i { f q q q q f { - z y 6 @                                     ",
"                                    . @ & ; B s f f q q q q g g f f q q q q q q f f s B ; & @ .                                 ",
"                                    + 6 ; { f q q q q q q q q q q q t t t t q q q q q f { ; @ .                                 ",
"                                . + # y B f q q q q q q q q q q q t C ! ! C t q q q q q f ) ! . . .                             ",
"                                . + $ z s q q q q q q q q q q q q t ! . D E t q q q q q q t E D . .                             ",
"                                . @ % - f q q q q q q q q q q q q t ! D F G H q q q q q q H G F D .                             ",
"                                . @ I J f q t t K K q q q q q q q t L M N O P q q q q q q P O N D .                             ",
"                                . @ I J f t C Q R S K q q q q q q B T U V W B q q q q q q B W X Y .                             ",
"                                . @ I J f t C Q R S K q q q q q q B Z ` ` Z B q q q q q q B Z  ....                             ",
"                                . @ I J f q t t K K q q q q q q q +.@.#.#.@.+.q q q q q q +.@.$.%..                             ",
"                                . @ % - f q t t K K q q q q q q q +.&.*.*.&.=.P P H t t -.;.>.,.'..                             ",
"                                . + $ z s t C Q R S K q q q q q q q +.+.+.=.).!.!.G E ~.{.].^./.+ .                             ",
"                                . + # y B ) C Q R S K q q q q q q q q q P (.!._.:.<.[.}.|.1.2.# + .                             ",
"                                    + 6 ; { ) t K K q q q q q q q q q P ).!._.:.3.4.5.5.4.6.7.+                                 ",
"                                    . @ & ; ) t s s f f f f f f f f f q 8._._.9.0.a.5.b.c.d.e..                                 ",
"                                        @ @ ! f.y z - J J J J J J J J g.h.i.i.i.j.5.k.l.e.e.                                    ",
"                                        . . . + # $ % I I I I I I I I m.n.o.o.n.p.q.l.. . .                                     ",
"                                                + + @ @ @ @ @ @ @ @ @ @ r.s.s.r.l.l.                                            ",
"                                                . . @ @ ! ! ! ! ! ! s.r.l.l.l.l.. .                                             ",
"                                                . @ & ; ) t t t t t.{.n.p.u.u.q.l..                                             ",
"                                                @ e ; { B s q q q -.i.i.v.w.x.u.l..                                             ",
"                                            . @ & ; ' B y.y.s q q P 8._.8.z.w.u.l..                                             ",
"                                            . @ ; { f s y y B f q P !._._.8.w.u.l..                                             ",
"                                . .         . ! ) f q t f.6 ; { f P !._._.8.w.u.l..                                             ",
"                                @ @         . ! t q q t ! @ I J f P !._._.8.w.u.l..                                             ",
"                            . @ & & @ .     . ! t q q t ! @ I J f P !._._.8.w.u.l..                                             ",
"                            . @ I I @ .     . ! ) f f ) ! @ I J ' q ).!.8.z.A.q.l..                                             ",
"                            . @ I I @ .     . @ ; J J ; @ @ I - J { q B.C.A.k.l.                                                ",
"                            . @ % % e @     . @ & I I & 6 6 I - D.- B K E.F.l..                                                 ",
"                            . + $ = % & @ . . . @ @ @ 6 # $ D.D.= G.= = H.I.+ .                                                 ",
"                            . + # $ , % e @ @ @ + / . + > J.D.D.= J.> > ~ > + .                                                 ",
"                                + * $ = % I I % $ # / + > J.D.- D.% 6 * > > + .                                                 ",
"                                . + # $ % I I % $ # / + > J.D.- - I @ + > > + .                                                 ",
"                                    + + @ @ @ @ + / . + > J.D.- - I @ + > > + .                                                 ",
"                                    . . . . . . . . . + > J., D.D.% @ / # # + .                                                 ",
"                                                    . + > ~ J.J.J.$ + . / +                                                     ",
"                                                    . + # > > > > # + . . .                                                     ",
"                                                        + + + + + +                                                             ",
"                                                        . . . . . .                                                             ",
"                                                                                                                                ",
"                                                                                                                                ",
"                                                                                                                                ",
"                                                                                                                                ",
"                                                                                                                                ",
"                                                                                                                                ",
"                                                                                                                                ",
"                                                                                                                                "};
