/* XPM */
static char * prota_izquierda3_xpm[] = {
"64 64 170 2",
"  	c None",
". 	c #4F422F",
"+ 	c #554732",
"@ 	c #554835",
"# 	c #CEAD7B",
"$ 	c #D8C3A1",
"% 	c #DAC4A2",
"& 	c #D0AF7D",
"* 	c #CFAF7C",
"= 	c #5A4B35",
"- 	c #DAC5A4",
"; 	c #DCC6A4",
"> 	c #D1B17F",
", 	c #D1B07D",
"' 	c #564A39",
") 	c #E5DBCB",
"! 	c #E7DCCC",
"~ 	c #DCC5A3",
"{ 	c #CFAE7E",
"] 	c #D1AF7F",
"^ 	c #544732",
"/ 	c #E5DACD",
"( 	c #E7DBCE",
"_ 	c #DCC7A6",
": 	c #534437",
"< 	c #B976B7",
"[ 	c #BB78B8",
"} 	c #56453C",
"| 	c #E995E8",
"1 	c #EB98EA",
"2 	c #B974B8",
"3 	c #BB77B9",
"4 	c #D0AE80",
"5 	c #5A4C38",
"6 	c #5C4B41",
"7 	c #E993E9",
"8 	c #EB96EA",
"9 	c #E7DBCF",
"0 	c #BA75BA",
"a 	c #584839",
"b 	c #DBC3A5",
"c 	c #EB95EA",
"d 	c #EB94EB",
"e 	c #58483A",
"f 	c #B977B8",
"g 	c #BB77BA",
"h 	c #BB78BA",
"i 	c #BA78B9",
"j 	c #5A4B3F",
"k 	c #5C4F3E",
"l 	c #DDC6A7",
"m 	c #EA97E9",
"n 	c #E7DCCF",
"o 	c #E7DDCD",
"p 	c #5B4E3A",
"q 	c #DBC4A4",
"r 	c #DCC5A5",
"s 	c #E6DBCD",
"t 	c #E6DBCE",
"u 	c #E5DBCC",
"v 	c #E7DCCD",
"w 	c #DDC4A8",
"x 	c #E7DDCE",
"y 	c #D0B07E",
"z 	c #D2B280",
"A 	c #EB97E9",
"B 	c #E6DCCC",
"C 	c #5C5141",
"D 	c #584D3E",
"E 	c #5E5446",
"F 	c #FBFBFA",
"G 	c #FCFCFC",
"H 	c #E7DECF",
"I 	c #FCFBFA",
"J 	c #FEFDFC",
"K 	c #E8DECF",
"L 	c #5C503E",
"M 	c #5A4D38",
"N 	c #E6DCCD",
"O 	c #DCC7A5",
"P 	c #DAC4A3",
"Q 	c #54462F",
"R 	c #C79F28",
"S 	c #C9A133",
"T 	c #C8A027",
"U 	c #C59C03",
"V 	c #C69D1F",
"W 	c #BBB0A0",
"X 	c #B9AE9E",
"Y 	c #5A4E3D",
"Z 	c #54462E",
"` 	c #C79D02",
" .	c #C9A01E",
"..	c #C89E00",
"+.	c #58492E",
"@.	c #FCD002",
"#.	c #FED21E",
"$.	c #E8DDCC",
"%.	c #FED200",
"&.	c #58492F",
"*.	c #FCD10F",
"=.	c #FED323",
"-.	c #E8DDCD",
";.	c #E7DDCF",
">.	c #E8DECD",
",.	c #FED32C",
"'.	c #FFD31E",
").	c #D0AF7B",
"!.	c #D3B280",
"~.	c #ECECF0",
"{.	c #EBEBEF",
"].	c #5D5244",
"^.	c #FFFEFE",
"/.	c #FEFEFD",
"(.	c #D0B080",
"_.	c #EBEAEE",
":.	c #EAE9EE",
"<.	c #5B5146",
"[.	c #5D5347",
"}.	c #FBFBFB",
"|.	c #FEFDFD",
"1.	c #FFFFFF",
"2.	c #E8DFD0",
"3.	c #574934",
"4.	c #A98F6A",
"5.	c #AB926F",
"6.	c #D1CFDC",
"7.	c #AD9471",
"8.	c #524531",
"9.	c #A58B63",
"0.	c #A88E69",
"a.	c #D0CFDC",
"b.	c #AA916E",
"c.	c #AB9270",
"d.	c #FDFDFD",
"e.	c #FEFEFE",
"f.	c #55493B",
"g.	c #5A4F44",
"h.	c #D3D2DF",
"i.	c #EDEDF2",
"j.	c #EDEDF1",
"k.	c #DDC7A7",
"l.	c #5B4E3B",
"m.	c #D0CEDC",
"n.	c #D2D1DE",
"o.	c #EBEAEF",
"p.	c #EBEBF0",
"q.	c #DBC5A5",
"r.	c #564B3D",
"s.	c #574B3D",
"t.	c #D1D0DE",
"u.	c #E5DBCD",
"v.	c #D3D2E0",
"w.	c #D4D3E1",
"x.	c #D5D4E1",
"y.	c #FDFDFE",
"z.	c #D2B282",
"A.	c #E5DACB",
"B.	c #D1B17E",
"C.	c #DCC6A3",
"D.	c #D2D1DF",
"E.	c #D4D3E0",
"F.	c #E7DED0",
"G.	c #D1D0DD",
"H.	c #D3D2DE",
"I.	c #DCC6A5",
"J.	c #D1B07E",
"K.	c #CFAF7F",
"L.	c #D1B180",
"M.	c #594B35",
"                                                                                                                                ",
"                                                                                                                                ",
"                                                                                                                                ",
"                                                                                                                                ",
"                                                                                                                                ",
"                                                                                                                                ",
"                                                                                                                                ",
"                                                                                                                                ",
"                                                . .             . . . .                                                         ",
"                                                + +             @ @ + +                                                         ",
"                                            . + # # + .     . @ $ % & # + .                                                     ",
"                                            . + * * = +     . @ - ; > & = +                                                     ",
"                                            . + * , * # + . . ' ) ! ; ~ & # + .                                                 ",
"                                            . + { ] , * = ^ . ' / ( _ ; > & = +                                                 ",
"                                            . : < [ ] , * # ^ } | 1 ( ! ; ~ & # + .                                             ",
"                                            . : 2 3 4 ] * # 5 6 7 8 9 ( _ ; > & + .                                             ",
"                                            . : 2 0 3 < a 5 $ b c d 8 1 ( ! ; % @ . . .                                         ",
"                                            + e f g h i j k - l m c d 8 n o _ - p @ + +                                         ",
"                                        . + # & q r s t u u o v l w c 8 n x o ! - % & # + .                                     ",
"                                        @ 5 y z ; _ o x x x x o _ l A 1 n x x o _ ; z y 5 @                                     ",
"                                    . @ $ - B v o o x x x x x x o o n n x x x x o o v B - $ @ .                                 ",
"                                    . @ - _ o x x x x x u u u u x x x x x x x x x x x o _ - 5 +                                 ",
"                                . . . ' ) o x x x x x u C ' ' C u x x x x x x x x x x x o B y # + .                             ",
"                                . . D E u x x x x x x u E D . ' u x x x x x x x x x x x x v z & + .                             ",
"                                . D F G H x x x x x x H G F D ' u x x x x x x x x x x x x o ; % @ .                             ",
"                                . D I J K x x x x x x K J I L M u x x x x x x x N N u u x o O P @ .                             ",
"                                . Q R S B x x x x x x B S T U V B x x x x x x N W X Y C u o O P @ .                             ",
"                                . Z `  .B x x x x x x B  ..... .B x x x x x x N W X Y C u o O P @ .                             ",
"                                . +.@.#.$.x x x x x x $.#.%.%.#.$.x x x x x x x N N u u x o O P @ .                             ",
"                                . &.*.=.-.;.u u H K K >.,.'.'.,.$.x x x x x x x N N u u x o ; % @ .                             ",
"                                . + ).!.~.{.].E G ^.^./.>.$.$.$.x x x x x x x N W X Y C u v z & + .                             ",
"                                . + # (._.:.<.[.}.|.1.^.2.K x x x x x x x x x N W X Y C ) B y # + .                             ",
"                                    + 3.4.5.6.6.5.7.|.1.^./.K x x x x x x x x x N N u ) _ - 5 +                                 ",
"                                    . 8.9.0.a.6.b.c.d.1.1.e.x o o o o o o o o o v v u ) - $ @ .                                 ",
"                                        8.8.f.g.6.h.i.i.i.j.k.O O O O O O O O ; z y l.' @ @                                     ",
"                                        . . . f.m.n.o.p.p.o.q.P P P P P P P P % & # + . . .                                     ",
"                                                f.f.r.s.s.r.@ @ @ @ @ @ @ @ @ @ + +                                             ",
"                                                . . f.f.f.f.r.s.' ' ' ' ' ' @ @ + +                                             ",
"                                                . f.m.t.t.n.o.{.u.u u u u ) - % & # + .                                         ",
"                                                . f.t.v.w.x.i.i.;.x x x v B _ ; z y 5 @                                         ",
"                                            . . . f.t.w.y.e.1.e.K x x v z.z.B o v B - $ @ .                                     ",
"                                            + ^ . f.t.w.e.1.1.^.K x o B > > A.u x o _ - p @                                     ",
"                                        . + # # ^ f.t.w.e.1.1.^.K o _ ; B.* l.C u x o ! - $ @ .                                 ",
"                                        . + * * + f.t.w.e.1.1.^.K o O C.> & + ' ) o x o O P @ .                                 ",
"                                        . + * * + f.t.w.e.1.1.^.K o O ; C.% @ @ - _ o o O P @ .                                 ",
"                                        . + # # ^ f.m.D.y.e.^./.x ! O ; ; P 5 5 $ - ! ! - $ @ .                                 ",
"                                            + ^ . . f.g.D.E.F.x _ O ; ; ; C.& # 5 p - - p @                                     ",
"                                            . . . . . f.G.H.N B I.; ; ; ; C.J.* + @ $ $ @ .                                     ",
"                                                    . + K.L.> z C.; ; ; ; C.J.* + . @ @             . . . .                     ",
"                                                    . + # * J.> C.; ; ; C.~ & # M.+ + +             @ @ + +                     ",
"                                                        + 5 % C.; ; ; C.> & = M.# * * # + . . . . @ $ % & # + .                 ",
"                                                        @ p P ; ; ; ; C.& # ^ ^ # * J.& 5 @ @ @ + 5 % ~ & # + .                 ",
"                                                    . @ $ P ; ; ; ; ; P 5 ^ . . ^ 5 % C.P P P % & * J.& = +                     ",
"                                                    . @ % C.C.C.C.C.P $ @ . . . . @ $ P P P P % & * * # + .                     ",
"                                                    . + & J.J.J.J.& 5 @             @ @ @ @ @ @ + + + +                         ",
"                                                    . + # * * * * # + .             . . . . . . . . . .                         ",
"                                                        + + + + + +                                                             ",
"                                                        . . . . . .                                                             ",
"                                                                                                                                ",
"                                                                                                                                ",
"                                                                                                                                ",
"                                                                                                                                ",
"                                                                                                                                ",
"                                                                                                                                "};
