/* XPM */
static char * villano_derecha2_xpm[] = {
"64 64 192 2",
"  	c None",
". 	c #323234",
"+ 	c #333335",
"@ 	c #343436",
"# 	c #535355",
"$ 	c #545456",
"% 	c #6C6C6D",
"& 	c #555557",
"* 	c #6D6D6E",
"= 	c #434343",
"- 	c #454545",
"; 	c #444444",
"> 	c #474747",
", 	c #484847",
"' 	c #9AA394",
") 	c #565758",
"! 	c #474847",
"~ 	c #4A4B4A",
"{ 	c #9BA595",
"] 	c #5B5C5E",
"^ 	c #59595C",
"/ 	c #373838",
"( 	c #99A394",
"_ 	c #9CA696",
": 	c #9DA798",
"< 	c #D0D0DD",
"[ 	c #D1D0DE",
"} 	c #383839",
"| 	c #D2D1DF",
"1 	c #D3D2E0",
"2 	c #58595A",
"3 	c #464646",
"4 	c #9AA494",
"5 	c #9CA697",
"6 	c #333234",
"7 	c #343334",
"8 	c #343335",
"9 	c #353435",
"0 	c #454544",
"a 	c #464544",
"b 	c #484745",
"c 	c #383736",
"d 	c #363536",
"e 	c #353536",
"f 	c #4F422F",
"g 	c #4F4230",
"h 	c #685D47",
"i 	c #695E48",
"j 	c #786A4F",
"k 	c #786A50",
"l 	c #7A6C51",
"m 	c #AB9872",
"n 	c #AA9771",
"o 	c #393737",
"p 	c #796B50",
"q 	c #867D6B",
"r 	c #847B6A",
"s 	c #504431",
"t 	c #504330",
"u 	c #6A5F49",
"v 	c #6B6049",
"w 	c #7C6D52",
"x 	c #AC9972",
"y 	c #AC9973",
"z 	c #514431",
"A 	c #514532",
"B 	c #958974",
"C 	c #978B75",
"D 	c #3E3B38",
"E 	c #AD9A73",
"F 	c #544734",
"G 	c #383737",
"H 	c #AE9C77",
"I 	c #AF9D78",
"J 	c #5B5040",
"K 	c #584D3E",
"L 	c #7A6C50",
"M 	c #534632",
"N 	c #6B5F49",
"O 	c #404042",
"P 	c #FBFBFB",
"Q 	c #FCFCFB",
"R 	c #FCFBFB",
"S 	c #FBFBFA",
"T 	c #3B3937",
"U 	c #414142",
"V 	c #4C4C4D",
"W 	c #FDFDFD",
"X 	c #FEFDFD",
"Y 	c #B1A07D",
"Z 	c #373636",
"` 	c #FAFAFA",
" .	c #FFFFFF",
"..	c #60564A",
"+.	c #968A75",
"@.	c #AA9871",
"#.	c #FFFEFF",
"$.	c #FCFCFC",
"%.	c #5D5347",
"&.	c #55493B",
"*.	c #4E4230",
"=.	c #474645",
"-.	c #494746",
";.	c #4A4846",
">.	c #4C4A47",
",.	c #AB9972",
"'.	c #5E5448",
").	c #E7E6ED",
"!.	c #E8E7EF",
"~.	c #D2D1DE",
"{.	c #D0CEDC",
"].	c #444443",
"^.	c #776A50",
"/.	c #776A4F",
"(.	c #4F4330",
"_.	c #685D48",
":.	c #484746",
"<.	c #4E4E4E",
"[.	c #525150",
"}.	c #AE9C78",
"|.	c #5B5145",
"1.	c #E5E4EB",
"2.	c #E6E5ED",
"3.	c #AA9872",
"4.	c #9D9280",
"5.	c #9C917E",
"6.	c #D0CFDD",
"7.	c #D0CFDC",
"8.	c #9B907D",
"9.	c #988D79",
"0.	c #574B3D",
"a.	c #504F4E",
"b.	c #AD9B77",
"c.	c #B19F7C",
"d.	c #9A8F7D",
"e.	c #978C78",
"f.	c #333334",
"g.	c #3E3E40",
"h.	c #E4E3EB",
"i.	c #E9E8EF",
"j.	c #5A4F44",
"k.	c #4E412F",
"l.	c #3F3E40",
"m.	c #564B3D",
"n.	c #564B3C",
"o.	c #454444",
"p.	c #545355",
"q.	c #545455",
"r.	c #555456",
"s.	c #575657",
"t.	c #575656",
"u.	c #6B604A",
"v.	c #6D614A",
"w.	c #5A5A5D",
"x.	c #5B5B5D",
"y.	c #504332",
"z.	c #524532",
"A.	c #AB9871",
"B.	c #504331",
"C.	c #534532",
"D.	c #7F725A",
"E.	c #7D7058",
"F.	c #626264",
"G.	c #5C5C5E",
"H.	c #4B4B4C",
"I.	c #FCFCFD",
"J.	c #CFCEDC",
"K.	c #54493B",
"L.	c #E8E8EF",
"M.	c #FEFEFE",
"N.	c #FDFDFE",
"O.	c #E9E8F0",
"P.	c #D5D4E1",
"Q.	c #574C3E",
"R.	c #D3D1DF",
"S.	c #998D7A",
"T.	c #9B907E",
"U.	c #D4D3E1",
"V.	c #706656",
"W.	c #6C624F",
"X.	c #514432",
"Y.	c #857C6B",
"Z.	c #867D6C",
"`.	c #988C79",
" +	c #6D6350",
".+	c #695E49",
"++	c #847B6B",
"@+	c #6C6C72",
"#+	c #6B6B71",
"$+	c #6D624F",
"%+	c #554A3B",
"&+	c #877F6F",
"                                                                                                                                ",
"                                                                                                                                ",
"                                                . . . . . . . . . . . . . . . . . .                                             ",
"                                                + + @ @ @ @ @ @ @ @ @ @ @ @ @ @ + +                                             ",
"                                            . + # $ % % % % % % % % % % % % % % $ # + .                                         ",
"                                            . + $ & * * * * * * * * * * * * * * & $ + .                                         ",
"                                        . . = - % * * * * * * * * * * * * * * * * % - = . .                                     ",
"                                        . . ; - % * * * * * * * * * * * * * * * * % - ; . .                                     ",
"                                        . . ; ; $ & * * * * * * * * * * * * * * & $ ; ; . .                                     ",
"                                        . + > , $ & % * * * * * * * * * * * * % & $ , > + .                                     ",
"                                        ; > ' ' ) $ & & & & & & & & & & & & & & $ ) ' ' > ;                                     ",
"                                        ! ~ { { ] ^ ^ ^ ^ ^ ^ ^ ^ ^ ^ ^ ^ ^ ^ ^ ^ ] { { ~ !                                     ",
"                                    . / ( { _ : < [ [ [ [ [ [ [ [ [ [ [ [ [ [ [ [ < : _ { ( / .                                 ",
"                                    + } ' { _ : | 1 1 1 1 1 1 1 1 1 1 1 1 1 1 1 1 | : _ { ' } +                                 ",
"                        . . . . ; ; # $ ) 2 { : | 1 1 1 1 1 1 1 1 1 1 1 1 1 1 1 1 | : { 2 ) $ # ; ; . . . .                     ",
"                        . . + + - 3 $ & $ ) 4 5 < [ [ [ [ [ [ [ [ [ [ [ [ [ [ [ [ < 5 4 ) $ & $ 3 - + + . .                     ",
"                    . . = ; # $ % % * % & $ ) ) ^ ^ ^ ^ ^ ^ ^ ^ ^ ^ ^ ^ ^ ^ ^ ^ ^ ^ ) ) $ & % * % % $ # ; = . .                 ",
"                    . . = ; # $ % % * % & & & & & & & & & & & & & & & & & & & & & & & & & & % * % % $ # ; = . .                 ",
"                        . . + + - 3 $ & % * * * * * * * * * * * * * * * * * * * * * * * * % & $ 3 - + + . .                     ",
"                        . . . . = ; # $ % % % % % % % % % % % % % % % % % % % % % % % % % % $ # ; = . . . .                     ",
"                                . . + + @ @ @ @ - - - - - - - - - - - - - - - - - - @ @ @ @ + + . .                             ",
"                                6 6 7 8 9 9 9 9 0 a a a a a b b ; ; ; ; ; ; ; ; b b 9 9 c c d e 6 6                             ",
"                                f g h i j k k k k k k k k l m n o + ; ; ; ; + o n m p p m m q r s f                             ",
"                                f t u v l l l l l l l l l w m n o + ; ; ; ; + o n m w w x y q r z f                             ",
"                                f A B C x x x x x x x x x m D o = ; # $ $ # ; = o D m x E x F z f f                             ",
"                                f A B C x x x x x x x x x m c . ; ; $ $ $ $ ; ; . G H I E x J K f f                             ",
"                                f t u v l L M M N v l l l p 9 . ; ; $ $ $ $ ; ; . O P Q I I R S K f                             ",
"                                f g u v l L M M N v l l l p T o = ; # $ $ # ; ; U V W X Y Y R S K f                             ",
"                                6 Z B C x x x x x x x x x x x n o + ; ; ; ; + U ` W  . .X R ..K f f                             ",
"                                6 Z B +.x x x x x x x x x x x @.D o b b b b U V W  .W W #.$.%.&.f f                             ",
"                                f *.=.-.l L M M N v l l ;.b b >.@.,.x x x H P W  .W ..'.).!.~.{.&.f                             ",
"                                f g ].a ^./.t (._.i k ^.;.:.<.[.}.I I I I Y X  .W P %.|.1.2.~.{.&.f                             ",
"                                    g g a a ; ; 0 0 a ;.3.H P W X X X X X X  .W 4.5.6.7.8.9.0.&.                                ",
"                                    f g ].; ; ; ; ; V a.b.c.W  . . . . . . . .W 5.d.7.7.e.B A f                                 ",
"                                        g *.f.. . g.h.2.).).!.i.i.i.i.i.i.i.i.!.| 7.j.&.A A                                     ",
"                                        f k.f.. . g.h.2.2.2.2.2.2.2.2.2.2.2.2.2.~.{.&.f f f                                     ",
"                                        6 f.= ; ; ; g.l.m.n.n.n.n.n.n.n.n.n.n.n.&.&.                                            ",
"                                        + + ; ; ; ; + 8 *.g g g g g g g g g g g g g                                             ",
"                                    . + # # $ $ $ $ # # o.o.p.q.q.q.q.p.o.; ; ; ; ].. .                                         ",
"                                    . + $ & $ $ $ r.s.t.- - $ $ & & & $ 3 - ; ; ; ; . .                                         ",
"                                . . = - % % 3 - _.u.m 3.t.$ $ & % * * * % % $ # ; ; . .                                         ",
"                                . . ; 3 % % - 0 u v.m m t.$ w.x.% * * * * % $ # ; ; . .                                         ",
"                                . + # $ * % y.z.A.m w L s m.h.h.x.& & & & $ - ; ; ; . .                                         ",
"                                . + # & * % B.C.H }.D.E.t n.2.2.F.G.G.G.G.G.H.H.; ].. .                                         ",
"                            . . = ; $ & * % B.K P X W P K n.2.!.I.W W W W $.| J.K.g                                             ",
"                            . . ; ; $ & * % B.K $. . .$.K n.2.L.M. . . .M.N.| {.&.f                                             ",
"                            . . ; ; $ & * % B.n.).i.i.).n.n.2.!.L.O. .M.P.| j.&.                                                ",
"                            . . ; ; $ & % % B.n.h.2.2.h.Q.Q.1.).!.!.M.N.R.7.&.f                                                 ",
"                            . . ; ; $ $ & r.g f n.n.n.Q.r q S.T.| 1 U.R.V.W.t f                                                 ",
"                            . . ; ; $ $ $ q.X.z y.y.f z Y.Z.+.`.6.[ [ 7. +.+t f                                                 ",
"                            . . ; ; $ $ $ & ++Y.@+#+y.t .+u u u $+W.%+n.Y.Y.z f                                                 ",
"                            . . = ; # $ $ & ++Y.@+#+y.t W.$+u u u u t z &+&+z f                                                 ",
"                                . + ; - $ q.X.z y.y.f &.7.6.`.+.+.B A &.7.7.&.f                                                 ",
"                                . . = ; # # g f f f f &.[ ~.d.S.S.e.A &.{.{.&.f                                                 ",
"                                    . . + +         f &.[ 1 ~.~.~.7.&.f &.&.                                                    ",
"                                    . . . .         f &.{.[ [ [ [ {.&.f f f                                                     ",
"                                                        &.&.&.&.&.&.                                                            ",
"                                                        f f f f f f                                                             ",
"                                                                                                                                ",
"                                                                                                                                ",
"                                                                                                                                ",
"                                                                                                                                ",
"                                                                                                                                ",
"                                                                                                                                "};
