/* XPM */
static char * villano_izquierda3_xpm[] = {
"64 64 220 2",
"  	c None",
". 	c #323234",
"+ 	c #333335",
"@ 	c #343436",
"# 	c #535355",
"$ 	c #545456",
"% 	c #6C6C6D",
"& 	c #555557",
"* 	c #6D6D6E",
"= 	c #434343",
"- 	c #454545",
"; 	c #444444",
"> 	c #464746",
", 	c #474847",
"' 	c #91A285",
") 	c #565757",
"! 	c #474846",
"~ 	c #494B48",
"{ 	c #92A486",
"] 	c #5B5C5D",
"^ 	c #59595C",
"/ 	c #363837",
"( 	c #93A587",
"_ 	c #95A68A",
": 	c #D0D0DD",
"< 	c #D1D0DE",
"[ 	c #373838",
"} 	c #D2D1DF",
"| 	c #D3D2E0",
"1 	c #545455",
"2 	c #585959",
"3 	c #464646",
"4 	c #91A385",
"5 	c #94A589",
"6 	c #353435",
"7 	c #484745",
"8 	c #464544",
"9 	c #454544",
"0 	c #343335",
"a 	c #343334",
"b 	c #333234",
"c 	c #756953",
"d 	c #776B54",
"e 	c #AB9872",
"f 	c #AC9972",
"g 	c #AA9871",
"h 	c #524532",
"i 	c #786C54",
"j 	c #766A54",
"k 	c #766A53",
"l 	c #685D48",
"m 	c #675C47",
"n 	c #4F4230",
"o 	c #4F422F",
"p 	c #353536",
"q 	c #786B54",
"r 	c #AD9A73",
"s 	c #7A6D56",
"t 	c #786C55",
"u 	c #6A5F49",
"v 	c #695E49",
"w 	c #504330",
"x 	c #3B3937",
"y 	c #564834",
"z 	c #9E8D6D",
"A 	c #9D8C6C",
"B 	c #524531",
"C 	c #383736",
"D 	c #AB9972",
"E 	c #5B5040",
"F 	c #584D3E",
"G 	c #4F432F",
"H 	c #524631",
"I 	c #AF9D78",
"J 	c #FCFBFB",
"K 	c #FBFBFA",
"L 	c #3B6528",
"M 	c #325F0D",
"N 	c #6A5E49",
"O 	c #534632",
"P 	c #534633",
"Q 	c #414142",
"R 	c #454444",
"S 	c #AE9C77",
"T 	c #FBFBFB",
"U 	c #FAFBFA",
"V 	c #3A6527",
"W 	c #31600C",
"X 	c #FAFAFA",
"Y 	c #FDFDFD",
"Z 	c #FEFDFD",
"` 	c #FCFCFB",
" .	c #3F672B",
"..	c #295E01",
"+.	c #4A4A4C",
"@.	c #4B4B4C",
"#.	c #3E3E40",
"$.	c #49494B",
"%.	c #FFFFFF",
"&.	c #B1A07D",
"*.	c #376215",
"=.	c #376114",
"-.	c #54493B",
";.	c #CFCEDC",
">.	c #D2D1DE",
",.	c #E6E5ED",
"'.	c #E4E3EB",
").	c #5E5448",
"!.	c #60564A",
"~.	c #55493B",
"{.	c #D0CEDC",
"].	c #E5E3EB",
"^.	c #5B5145",
"/.	c #5D5347",
"(.	c #AE9C78",
"_.	c #7D725D",
":.	c #7C715C",
"<.	c #796C55",
"[.	c #564B3D",
"}.	c #86827F",
"|.	c #898583",
"1.	c #D0CFDD",
"2.	c #8A8784",
"3.	c #8C8985",
"4.	c #9F8E6D",
"5.	c #514432",
"6.	c #827E7A",
"7.	c #85817E",
"8.	c #888582",
"9.	c #B19F7C",
"0.	c #AF9C77",
"a.	c #9E8D6C",
"b.	c #9C8C6B",
"c.	c #5A4F44",
"d.	c #E8E7EF",
"e.	c #E9E8EF",
"f.	c #E7E6ED",
"g.	c #E5E4EB",
"h.	c #434142",
"i.	c #373636",
"j.	c #3F3F42",
"k.	c #564B3C",
"l.	c #4D4C4D",
"m.	c #4D4D4E",
"n.	c #444443",
"o.	c #545355",
"p.	c #6E6E6D",
"q.	c #6E6E6E",
"r.	c #565557",
"s.	c #555556",
"t.	c #565657",
"u.	c #575657",
"v.	c #575656",
"w.	c #776B55",
"x.	c #524633",
"y.	c #504433",
"z.	c #5B5B5D",
"A.	c #5A5A5D",
"B.	c #585758",
"C.	c #AA9872",
"D.	c #796D56",
"E.	c #A19172",
"F.	c #594D3E",
"G.	c #574C3E",
"H.	c #6D6C6D",
"I.	c #86837F",
"J.	c #544734",
"K.	c #717173",
"L.	c #3C3C3E",
"M.	c #3C3C3F",
"N.	c #5C5C5E",
"O.	c #626264",
"P.	c #888480",
"Q.	c #847F7B",
"R.	c #AD9B76",
"S.	c #717172",
"T.	c #FCFCFC",
"U.	c #FCFCFD",
"V.	c #A09072",
"W.	c #9D8D6C",
"X.	c #E8E6EE",
"Y.	c #FDFDFE",
"Z.	c #FEFEFE",
"`.	c #E7E6EE",
" +	c #E6E4EB",
".+	c #A09071",
"++	c #574B3D",
"@+	c #564A3C",
"#+	c #4F4331",
"$+	c #D5D4E1",
"%+	c #E9E8F0",
"&+	c #A39376",
"*+	c #6B604A",
"=+	c #5D5247",
"-+	c #353436",
";+	c #D3D2DF",
">+	c #695E4A",
",+	c #685D49",
"'+	c #4E412F",
")+	c #898582",
"!+	c #A29276",
"~+	c #84807B",
"{+	c #837E7A",
"]+	c #D1D0DD",
"^+	c #9F8F70",
"/+	c #514534",
"(+	c #504331",
"_+	c #333334",
":+	c #534734",
"<+	c #514533",
"[+	c #6C6C6C",
"}+	c #6E6D6E",
"|+	c #6D6D6D",
"1+	c #837F7B",
"2+	c #84807C",
"3+	c #565658",
"4+	c #9D8C6B",
"5+	c #D0CFDC",
"6+	c #574B3C",
"7+	c #504432",
"                                                                                                                                ",
"                                                                                                                                ",
"                                                                                                                                ",
"                                                                                                                                ",
"                                                . . . . . . . . . . . . . . . . . .                                             ",
"                                                + + @ @ @ @ @ @ @ @ @ @ @ @ @ @ + +                                             ",
"                                            . + # $ % % % % % % % % % % % % % % $ # + .                                         ",
"                                            . + $ & * * * * * * * * * * * * * * & $ + .                                         ",
"                                        . . = - % * * * * * * * * * * * * * * * * % - = . .                                     ",
"                                        . . ; - % * * * * * * * * * * * * * * * * % - ; . .                                     ",
"                                        . . ; ; $ & * * * * * * * * * * * * * * & $ ; ; . .                                     ",
"                                        . + > , $ & % * * * * * * * * * * * * % & $ , > + .                                     ",
"                                        ; > ' ' ) $ & & & & & & & & & & & & & & $ ) ' ' > ;                                     ",
"                                        ! ~ { { ] ^ ^ ^ ^ ^ ^ ^ ^ ^ ^ ^ ^ ^ ^ ^ ^ ] { { ~ !                                     ",
"                                    . / ' { ( _ : < < < < < < < < < < < < < < < < : _ ( { ' / .                                 ",
"                                    + [ ' { ( _ } | | | | | | | | | | | | | | | | } _ ( { ' [ +                                 ",
"                        . . . . ; ; # 1 ) 2 { _ } | | | | | | | | | | | | | | | | } _ { 2 ) 1 # ; ; . . . .                     ",
"                        . . + + - 3 $ & $ ) 4 5 : < < < < < < < < < < < < < < < < : 5 4 ) $ & $ 3 - + + . .                     ",
"                    . . = ; # $ % % * % & $ ) ) ^ ^ ^ ^ ^ ^ ^ ^ ^ ^ ^ ^ ^ ^ ^ ^ ^ ^ ) ) $ & % * % % $ # ; = . .                 ",
"                    . . = ; # $ % % * % & & & & & & & & & & & & & & & & & & & & & & & & & & % * % % $ # ; = . .                 ",
"                        . . + + - 3 $ & % * * * * * * * * * * * * * * * * * * * * * * * * % & $ 3 - + + . .                     ",
"                        . . . . = ; # $ % % % % % % % % % % % % % % % % % % % % % % % % % % $ # ; = . . . .                     ",
"                                . . + + @ @ @ @ - - - - - - - - - - - - - - - - - - @ @ @ @ + + . .                             ",
"                                . . . . . . 6 6 7 7 7 7 7 7 ; ; 7 7 7 7 8 8 8 8 8 9 6 6 6 6 0 a b b                             ",
"                                . . = = . 6 c d e f f f f g h h g f f e i j j j j j k k k k l m n o                             ",
"                                . . ; ; + p c q f r r r f g h h f r r f s t t t t t t t t t u v w o                             ",
"                                . . ; ; # # p x f r r f y h o h f r r r f f f f f f f f f f z A B o                             ",
"                                . . ; ; $ # + C D r r f E F G H f r r r f f f f f f f f f f z A B o                             ",
"                                . . ; ; $ # + C D r r I J K L M D r r f s t t t u N O P i t u v w o                             ",
"                                . . ; ; # # Q R S I r I T U V W D r r f s t t t u N O P i t u v w o                             ",
"                                . . ; ; + Q X Y Z ` I f  .V ..W D r r r f f f f f f f f f f z A B o                             ",
"                                b + +.@.#.$.T Y %.Z &.S *.W W =.D r f f f f f f f f f f f f z A B o                             ",
"                                o -.;.>.,.'.).!.Y %.Z ` S D D D r f s t t t t t u N O P i t u v w o                             ",
"                                o ~.{.>.,.].^./.T Y %.Z &.I I I I (._.:.<.t t t u N O P d i l m w o                             ",
"                                    ~.[.}.|.1.1.2.3.Y %.Z Z Z Z Z Z Y J (.f f f f f f D 4.A h w                                 ",
"                                    o 5.6.7.1.1.8.2.Y %.%.%.%.%.%.%.%.Y 9.0.0.S f D D e a.b.B o                                 ",
"                                        5.5.~.c.1.} d.e.e.e.e.e.e.e.e.d.f.f.f.g.h.C C C i.i.                                    ",
"                                        o o o ~.{.>.,.,.,.,.,.,.,.,.,.,.,.,.,.'.j.@ + + . .                                     ",
"                                                ~.~.k.k.k.k.k.k.k.k.k.k.k.[.l.m.% % $ # ; = . .                                 ",
"                                                n n n n n n n n n n n n n n - 3 % % & $ 3 - + +                                 ",
"                                            . . n.; ; ; ; R o.1 1 1 1 o.R - % % & & $ & % % $ # + .                             ",
"                                            . . ; ; ; ; - 3 $ & & & $ $ - 3 p.q.r.s.t.u.% % & $ + .                             ",
"                                            . . ; ; # $ % % * * * % & $ $ v.e e t w.A A x.y.% % - = . .                         ",
"                                            . . ; ; # $ % * * * * % z.A.& B.C.e s D.E.E.F.G.H.% 3 ; + .                         ",
"                                        o o b . ; ; ; - $ & & & & z.'.g.I.6.J.y e (.` Y f.'.K.* $ # ; = . .                     ",
"                                        o o L.M.; ; @.@.N.N.N.N.N.O.,.,.P.Q.5.h R.9.Z %.e.,.S.% & $ - ; . .                     ",
"                                        o ~.;.;.-.-.;.} T.Y Y Y Y U.d.f.V.W.B k.g.X.%.%.e.,.G.y.% % $ # + .                     ",
"                                        o ~.{.{.~.~.{.} Y.Z.%.%.%.Z.`. +.+A h ++'.f.Z.Z.f.'.@+#+% * & # + .                     ",
"                                            ~.~.o o ~.c.} $+Z.%.%+`.&+.+*+v l m ++=+f.f.=+@+a -+% * & $ ; = . .                 ",
"                                            o o o o o ~.1.;+Y.Z.`. +E.a.*+N >+,+w k.'.'.@+'+b @ % * & $ ; ; . .                 ",
"                                                    o 5.7.)+;+;+!+E.4.4.a.z ~+{+5.o k.@+a b . @ % * & $ ; ; . .                 ",
"                                                    o 5.6.7.]+]+^+a.a.a.a.z Q.6./+(+(+#+a b b -+% * & $ ; = _+b                 ",
"                                                        5.:+^+^+*+N N N N v <+/+[+% % [+#+o o #+% * & # + _+'+o                 ",
"                                                        k.F..+.+*+N N v l m w (+[+% }+|+/+5.5./+% % $ # 0 a o o                 ",
"                                                    o k.'.,.f. +.+a.a.A h w o o (+/+1+2+1+1+1+6.3+$ @ 0 '+o                     ",
"                                                    o k.,.d.d.,.!+.+a.4+B o o o o 5.6.1+1+1+1+6.s.# 0 a o o                     ",
"                                                    o ~.>.| | | >.5+6+B             5.5.5.5.5.7+0 0 '+o                         ",
"                                                    o ~.{.< < < < {.~.o             o o o o o o b b o o                         ",
"                                                        ~.~.~.~.~.~.                                                            ",
"                                                        o o o o o o                                                             ",
"                                                                                                                                ",
"                                                                                                                                ",
"                                                                                                                                ",
"                                                                                                                                "};
