/* XPM */
static char * villano_frontal2_xpm[] = {
"64 64 171 2",
"  	c None",
". 	c #323234",
"+ 	c #333335",
"@ 	c #343436",
"# 	c #535355",
"$ 	c #545456",
"% 	c #6C6C6D",
"& 	c #555557",
"* 	c #6D6D6E",
"= 	c #434343",
"- 	c #454545",
"; 	c #444444",
"> 	c #464746",
", 	c #474847",
"' 	c #91A285",
") 	c #565757",
"! 	c #474846",
"~ 	c #494B48",
"{ 	c #92A486",
"] 	c #5B5C5D",
"^ 	c #59595C",
"/ 	c #363837",
"( 	c #93A587",
"_ 	c #95A68A",
": 	c #D0D0DD",
"< 	c #D1D0DE",
"[ 	c #373838",
"} 	c #D2D1DF",
"| 	c #D3D2E0",
"1 	c #545455",
"2 	c #585959",
"3 	c #464646",
"4 	c #91A385",
"5 	c #94A589",
"6 	c #333234",
"7 	c #343435",
"8 	c #484745",
"9 	c #454544",
"0 	c #444443",
"a 	c #393737",
"b 	c #383736",
"c 	c #4F422F",
"d 	c #4F4330",
"e 	c #6E624B",
"f 	c #6E624C",
"g 	c #6D624B",
"h 	c #AA9771",
"i 	c #AB9872",
"j 	c #70644D",
"k 	c #AC9972",
"l 	c #AA9871",
"m 	c #524532",
"n 	c #504330",
"o 	c #6F634C",
"p 	c #353435",
"q 	c #AB9871",
"r 	c #72664E",
"s 	c #AD9A73",
"t 	c #71654D",
"u 	c #514431",
"v 	c #94866D",
"w 	c #383737",
"x 	c #3E3B38",
"y 	c #564834",
"z 	c #96886E",
"A 	c #363636",
"B 	c #AE9C77",
"C 	c #AF9D78",
"D 	c #5B5040",
"E 	c #584D3E",
"F 	c #4F432F",
"G 	c #524631",
"H 	c #404042",
"I 	c #FBFBFB",
"J 	c #FCFCFB",
"K 	c #FCFBFB",
"L 	c #FBFBFA",
"M 	c #3B6528",
"N 	c #325F0D",
"O 	c #AB9972",
"P 	c #6F634D",
"Q 	c #3A3837",
"R 	c #414142",
"S 	c #4C4C4D",
"T 	c #FDFDFD",
"U 	c #FEFDFD",
"V 	c #B1A07D",
"W 	c #FAFBFA",
"X 	c #3A6527",
"Y 	c #31600C",
"Z 	c #FAFAFA",
"` 	c #FFFFFF",
" .	c #3F672B",
"..	c #295E01",
"+.	c #94866C",
"@.	c #96886D",
"#.	c #376215",
"$.	c #376114",
"%.	c #605845",
"&.	c #494845",
"*.	c #494846",
"=.	c #60564A",
"-.	c #615945",
";.	c #5E5643",
">.	c #5E5644",
",.	c #484746",
"'.	c #736854",
").	c #756A55",
"!.	c #AE9C78",
"~.	c #5D5347",
"{.	c #5F5744",
"].	c #333334",
"^.	c #978A72",
"/.	c #E5E4EB",
"(.	c #E7E6ED",
"_.	c #9C9079",
":.	c #9B8E77",
"<.	c #D0CFDC",
"[.	c #988A72",
"}.	c #373636",
"|.	c #FEFEFE",
"1.	c #9B8F78",
"2.	c #9A8D76",
"3.	c #514532",
"4.	c #564B3C",
"5.	c #5B5146",
"6.	c #D4D3E1",
"7.	c #D4D4E1",
"8.	c #E8E7EF",
"9.	c #4F4230",
"0.	c #54493B",
"a.	c #D0CEDC",
"b.	c #D2D1DE",
"c.	c #E6E5ED",
"d.	c #454443",
"e.	c #55493B",
"f.	c #4F4231",
"g.	c #4E4230",
"h.	c #545355",
"i.	c #454444",
"j.	c #343334",
"k.	c #494746",
"l.	c #4E412F",
"m.	c #AA9872",
"n.	c #554A3B",
"o.	c #70634D",
"p.	c #72654E",
"q.	c #978971",
"r.	c #94876D",
"s.	c #635A47",
"t.	c #998C76",
"u.	c #4F4331",
"v.	c #5C5C5D",
"w.	c #5C5C5E",
"x.	c #5D5D5F",
"y.	c #727273",
"z.	c #737374",
"A.	c #554A3C",
"B.	c #746955",
"C.	c #7A705D",
"D.	c #6C6C6C",
"E.	c #756A56",
"F.	c #504331",
"G.	c #514433",
"H.	c #95876E",
"I.	c #998C74",
"J.	c #D3D2DF",
"K.	c #95876D",
"L.	c #736853",
"M.	c #E4E3EB",
"N.	c #514432",
"                                                                                                                                ",
"                                                                                                                                ",
"                                                . . . . . . . . . . . . . . . . . .                                             ",
"                                                + + @ @ @ @ @ @ @ @ @ @ @ @ @ @ + +                                             ",
"                                            . + # $ % % % % % % % % % % % % % % $ # + .                                         ",
"                                            . + $ & * * * * * * * * * * * * * * & $ + .                                         ",
"                                        . . = - % * * * * * * * * * * * * * * * * % - = . .                                     ",
"                                        . . ; - % * * * * * * * * * * * * * * * * % - ; . .                                     ",
"                                        . . ; ; $ & * * * * * * * * * * * * * * & $ ; ; . .                                     ",
"                                        . + > , $ & % * * * * * * * * * * * * % & $ , > + .                                     ",
"                                        ; > ' ' ) $ & & & & & & & & & & & & & & $ ) ' ' > ;                                     ",
"                                        ! ~ { { ] ^ ^ ^ ^ ^ ^ ^ ^ ^ ^ ^ ^ ^ ^ ^ ^ ] { { ~ !                                     ",
"                                    . / ' { ( _ : < < < < < < < < < < < < < < < < : _ ( { ' / .                                 ",
"                                    + [ ' { ( _ } | | | | | | | | | | | | | | | | } _ ( { ' [ +                                 ",
"                        . . . . ; ; # 1 ) 2 { _ } | | | | | | | | | | | | | | | | } _ { 2 ) 1 # ; ; . . . .                     ",
"                        . . + + - 3 $ & $ ) 4 5 : < < < < < < < < < < < < < < < < : 5 4 ) $ & $ 3 - + + . .                     ",
"                    . . = ; # $ % % * % & $ ) ) ^ ^ ^ ^ ^ ^ ^ ^ ^ ^ ^ ^ ^ ^ ^ ^ ^ ^ ) ) $ & % * % % $ # ; = . .                 ",
"                    . . = ; # $ % % * % & & & & & & & & & & & & & & & & & & & & & & & & & & % * % % $ # ; = . .                 ",
"                        . . + + - 3 $ & % * * * * * * * * * * * * * * * * * * * * * * * * % & $ 3 - + + . .                     ",
"                        . . . . = ; # $ % % % % % % % % % % % % % % % % % % % % % % % % % % $ # ; = . . . .                     ",
"                                . . + + @ @ @ @ - - - - - - - - - - - - - - - - - - @ @ @ @ + + . .                             ",
"                                6 6 7 7 7 7 . . ; ; ; ; ; ; 8 8 9 9 8 8 8 8 8 8 ; 0 a b 7 7 7 7 6 6                             ",
"                                c d e f f g 7 . ; ; ; ; + a h i j j i k k k k l m m h l j f f e d c                             ",
"                                c n o j f g p + ; ; ; ; + a h q r r k s s s k l m m k k r t j o n c                             ",
"                                c u v v w p = ; # $ $ # ; = a x q k s s s k y m c m k s k k z v u c                             ",
"                                c u v v A . ; ; $ $ $ $ ; ; . w B C s s s k D E F G k s k k z v u c                             ",
"                            c c c n o o 7 . ; ; $ $ $ $ ; ; . H I J C s s C K L M N O k r t j o n c c c                         ",
"                            c c c n o P Q a = ; # $ $ # ; ; R S T U V C s C I W X Y O k r t j o n c c c                         ",
"                                c u v z i h a + ; ; ; ; + R Z T ` ` U J C k  .X ..Y O s k k z v u c                             ",
"                                c u +.@.i h Q p 8 8 8 8 R S T ` T T ` U V B #.Y Y $.l k k k @.+.u c                             ",
"                            c c c d %.%.&.*.g j i k k B I T ` T =.=.T ` U J B O O l r t t j -.%.d c c c                         ",
"                            c c c d ;.>.8 ,.'.).!.C C V U ` T I ~.~.I T ` U V C C !.).'.j j {.;.d c c c                         ",
"                                    ].b +.^./.(.T U U U ` T _.:.<.<.:._.T ` U U U T (./.[.v m d                                 ",
"                                    . }.+.^./.(.|.|.|.|.` T 1.2.} } 2.1.T ` |.|.|.|.(./.^.+.u c                                 ",
"                                        u 3.4.5.} 6.6.7.8.8.(.(.8.8.(.(.8.8.7.6.6.} 5.4.3.u                                     ",
"                                        9.9.9.0.a.< < b.c.c.c.c.c.c.c.c.c.c.b.< < a.0.9.9.9.                                    ",
"                                    . . 0 ; ; d.0.e.e.e.4.4.4.4.4.4.4.4.4.4.e.e.e.0.d.; ; 0 . .                                 ",
"                                    . . 0 ; ; ; f.9.9.9.9.9.9.9.9.9.9.9.9.9.9.9.9.f.; ; ; 0 . .                                 ",
"                                . . . 6 g.9.; ; h.1 1 h.i.; ; ; ; ; ; ; ; i.h.1 1 h.; ; 9.g.6 . . .                             ",
"                                . . 6 j.d n 8 k.# $ $ $ 3 - - - - - - - - 3 $ $ $ # k.8 n d j.6 . .                             ",
"                                . 6 l.d e j i m.k.- $ & % % % % % % % % % % & $ - k.m.i j e d l.6 .                             ",
"                                6 j.0.n.o.p.i m.8 i.$ & % * * * * * * * * % & $ i.8 m.i p.o.n.0.j.6                             ",
"                                c 0.a.<.q.r.s.-.d f.1 $ & & * * * * * * & & $ 1 f.d -.s.r.q.<.a.0.c                             ",
"                                c e.< b.t.q.%.;.d u.v.w.w.x.y.z.z.z.z.y.x.w.w.v.u.d ;.%.q.t.b.< e.c                             ",
"                            . 6 c e.< | b.<.e.d c E I T T T T T T T T T T T T I E c d e.<.b.| < e.c 6 .                         ",
"                            . 6 l.0.a.< < a.0.c c E I T ` ` ` ` ` ` ` ` ` ` T I E c c 0.a.< < a.A.u.j.6                         ",
"                            . . 6 j.0.e.e.0.j.j.c n B.C.T ` ` ` ` ` ` ` ` T C.B.n c j.j.0.e.e.A.D.D.u.c                         ",
"                            . . . 6 l.c c l.6 6 c n o E.I T |.|.|.|.|.|.T I E.o n c j.j.c c F.G.% % F.c                         ",
"                            . . . . 6 6 6 6 . 6 c u v H.I.:.J.6.6.6.6.J.:.I.H.v u c c c c F.D.% * % F.c                         ",
"                            . . . . . . . . . 6 c u v K.K.q.<.< < < < <.q.K.K.v u c F.F.F.G.% * % D.u.c                         ",
"                            . . . . . . . . . 6 c n o j j o.n.e.e.e.e.n.o.j j o n F.D.% % % * % G.u.j.6                         ",
"                            . . . . . . . . . 6 c n L.'.j o n c c c c n o j '.L.n F.D.% % % % D.u.l.6 .                         ",
"                                . .             c 4.M./.[.v u c c c c u v [./.M.4.c F.F.F.F.F.u.j.6                             ",
"                                . .             c 4.c.c.2.q.N.c c c c N.q.2.c.c.4.c c c c c c c 6 .                             ",
"                                                c e.b.| b.<.e.c     c e.<.b.| b.e.c                                             ",
"                                                c e.a.< < a.e.c     c e.a.< < a.e.c                                             ",
"                                                    e.e.e.e.            e.e.e.e.                                                ",
"                                                    c c c c             c c c c                                                 ",
"                                                                                                                                ",
"                                                                                                                                ",
"                                                                                                                                ",
"                                                                                                                                ",
"                                                                                                                                ",
"                                                                                                                                "};
