/* XPM */
static char * pared_xpm[] = {
"64 64 452 2",
"  	c None",
". 	c #602B1A",
"+ 	c #632E1C",
"@ 	c #642E1C",
"# 	c #5E2B1A",
"$ 	c #602D1B",
"% 	c #5D2A1A",
"& 	c #60301C",
"* 	c #B57C3E",
"= 	c #B5753A",
"- 	c #BA8C47",
"; 	c #BC924A",
"> 	c #B5763A",
", 	c #965D2F",
"' 	c #64331D",
") 	c #C57D3D",
"! 	c #C46E34",
"~ 	c #CD9A4D",
"{ 	c #D0A554",
"] 	c #D0A453",
"^ 	c #C47035",
"/ 	c #9B5429",
"( 	c #451E11",
"_ 	c #774A25",
": 	c #A47B3F",
"< 	c #A67D40",
"[ 	c #CB9349",
"} 	c #CA8D46",
"| 	c #C28844",
"1 	c #C48945",
"2 	c #C48A45",
"3 	c #C68B45",
"4 	c #C88C46",
"5 	c #CC934A",
"6 	c #BF793C",
"7 	c #B3602F",
"8 	c #AE7038",
"9 	c #A47C3F",
"0 	c #9A733B",
"a 	c #461E11",
"b 	c #5B2819",
"c 	c #884926",
"d 	c #C77F3E",
"e 	c #BA8343",
"f 	c #A05029",
"g 	c #BC8543",
"h 	c #BB924A",
"i 	c #612D1B",
"j 	c #552717",
"k 	c #804323",
"l 	c #BB914A",
"m 	c #C2944B",
"n 	c #C5954C",
"o 	c #C18140",
"p 	c #C78542",
"q 	c #C6964C",
"r 	c #AE6D37",
"s 	c #B68242",
"t 	c #BF934B",
"u 	c #AB8242",
"v 	c #572717",
"w 	c #6A311D",
"x 	c #7C3A21",
"y 	c #7D3A21",
"z 	c #AA592C",
"A 	c #B96531",
"B 	c #CB994D",
"C 	c #C36D34",
"D 	c #B88242",
"E 	c #9F5029",
"F 	c #914725",
"G 	c #692F1D",
"H 	c #7E3B22",
"I 	c #A7572B",
"J 	c #AD5B2D",
"K 	c #C6954C",
"L 	c #CFA453",
"M 	c #C5954B",
"N 	c #C26D34",
"O 	c #C18744",
"P 	c #B88142",
"Q 	c #924825",
"R 	c #6B301D",
"S 	c #5B2818",
"T 	c #75371F",
"U 	c #9F4F29",
"V 	c #9E4F29",
"W 	c #73351F",
"X 	c #763720",
"Y 	c #904726",
"Z 	c #9A4F29",
"` 	c #9A4E29",
" .	c #9B4F29",
"..	c #A04F29",
"+.	c #9E4F28",
"@.	c #773720",
"#.	c #75361F",
"$.	c #884324",
"%.	c #9D4F29",
"&.	c #5C2918",
"*.	c #74361F",
"=.	c #7A3820",
"-.	c #954826",
";.	c #7B3921",
">.	c #77351E",
",.	c #8B4324",
"'.	c #6C301D",
").	c #5D2918",
"!.	c #974A27",
"~.	c #934826",
"{.	c #853F23",
"].	c #944A26",
"^.	c #A15129",
"/.	c #843F22",
"(.	c #994C27",
"_.	c #BC6731",
":.	c #B3612F",
"<.	c #9E4E28",
"[.	c #79361F",
"}.	c #77351F",
"|.	c #9A4C27",
"1.	c #914825",
"2.	c #5C291A",
"3.	c #964A26",
"4.	c #8E4525",
"5.	c #78361F",
"6.	c #8F4825",
"7.	c #7A3720",
"8.	c #B66430",
"9.	c #9D4E28",
"0.	c #79371F",
"a.	c #8A4223",
"b.	c #974B27",
"c.	c #5E2918",
"d.	c #9F572C",
"e.	c #A8572B",
"f.	c #934A26",
"g.	c #793720",
"h.	c #A05129",
"i.	c #813D21",
"j.	c #803C21",
"k.	c #984B27",
"l.	c #A9582C",
"m.	c #B8763A",
"n.	c #A5582C",
"o.	c #5F2919",
"p.	c #AD5E2E",
"q.	c #904925",
"r.	c #984F28",
"s.	c #954A26",
"t.	c #76341E",
"u.	c #8B4323",
"v.	c #5F2A19",
"w.	c #B1622F",
"x.	c #7A3821",
"y.	c #7C3921",
"z.	c #9F4F28",
"A.	c #A9582B",
"B.	c #9D4D28",
"C.	c #602A19",
"D.	c #7A3921",
"E.	c #8A4323",
"F.	c #8F4625",
"G.	c #74371F",
"H.	c #8C4825",
"I.	c #7F3C21",
"J.	c #8B4724",
"K.	c #8C4323",
"L.	c #783720",
"M.	c #A75E2E",
"N.	c #B76430",
"O.	c #833F22",
"P.	c #A5552A",
"Q.	c #AE5D2D",
"R.	c #A95C2C",
"S.	c #A2542A",
"T.	c #974E27",
"U.	c #994E28",
"V.	c #9A4F28",
"W.	c #954D27",
"X.	c #984E27",
"Y.	c #964B27",
"Z.	c #844022",
"`.	c #864022",
" +	c #984D27",
".+	c #9C4F28",
"++	c #7D3A20",
"@+	c #9F5129",
"#+	c #934926",
"$+	c #70321D",
"%+	c #9C4D27",
"&+	c #7E3B21",
"*+	c #8D4424",
"=+	c #B2602E",
"-+	c #813C21",
";+	c #9B4D27",
">+	c #8B4424",
",+	c #6F311D",
"'+	c #934725",
")+	c #954926",
"!+	c #9A4D27",
"~+	c #773820",
"{+	c #894123",
"]+	c #6E311D",
"^+	c #6D301D",
"/+	c #894223",
"(+	c #73371E",
"_+	c #833E22",
":+	c #A85C2E",
"<+	c #904725",
"[+	c #843E22",
"}+	c #BC6C34",
"|+	c #A2572A",
"1+	c #682E1C",
"2+	c #562217",
"3+	c #562317",
"4+	c #884223",
"5+	c #823D22",
"6+	c #BB6731",
"7+	c #6D311D",
"8+	c #672D1C",
"9+	c #552217",
"0+	c #8C4524",
"a+	c #8E4524",
"b+	c #BB6631",
"c+	c #A1562A",
"d+	c #692E1C",
"e+	c #612A1A",
"f+	c #622A1A",
"g+	c #B0612E",
"h+	c #7F3C20",
"i+	c #A2562A",
"j+	c #944A27",
"k+	c #A95B2C",
"l+	c #6F321D",
"m+	c #934825",
"n+	c #934925",
"o+	c #9D4F28",
"p+	c #B15F2E",
"q+	c #A2552A",
"r+	c #BC6B34",
"s+	c #944926",
"t+	c #9C4E28",
"u+	c #BB7238",
"v+	c #9F5028",
"w+	c #9E5028",
"x+	c #8E4424",
"y+	c #9C4C27",
"z+	c #A6552A",
"A+	c #C26D33",
"B+	c #B26431",
"C+	c #984A26",
"D+	c #964926",
"E+	c #833F23",
"F+	c #9B4B27",
"G+	c #9B4C27",
"H+	c #AC5A2C",
"I+	c #76351E",
"J+	c #B15E2E",
"K+	c #9B4A27",
"L+	c #8D4223",
"M+	c #72361E",
"N+	c #73341E",
"O+	c #944825",
"P+	c #904424",
"Q+	c #884122",
"R+	c #71351E",
"S+	c #74361E",
"T+	c #74341E",
"U+	c #71331D",
"V+	c #6D301C",
"W+	c #692E1B",
"X+	c #71361E",
"Y+	c #934625",
"Z+	c #883F22",
"`+	c #984926",
" @	c #9A4A27",
".@	c #904524",
"+@	c #803D21",
"@@	c #6B311D",
"#@	c #69361D",
"$@	c #905827",
"%@	c #915727",
"&@	c #75341E",
"*@	c #9A4926",
"=@	c #7D3920",
"-@	c #833D22",
";@	c #974826",
">@	c #944725",
",@	c #8F4424",
"'@	c #B05D2E",
")@	c #A1552A",
"!@	c #823E22",
"~@	c #8A4524",
"{@	c #934C27",
"]@	c #995B2E",
"^@	c #B08041",
"/@	c #B08040",
"(@	c #A4592C",
"_@	c #A3582B",
":@	c #8B4F29",
"<@	c #5F2C1B",
"[@	c #592718",
"}@	c #896027",
"|@	c #8A6027",
"1@	c #75351E",
"2@	c #9A4A26",
"3@	c #994926",
"4@	c #853F22",
"5@	c #7F3A20",
"6@	c #994826",
"7@	c #813B21",
"8@	c #8E4324",
"9@	c #8F4925",
"0@	c #904B26",
"a@	c #B86430",
"b@	c #925F31",
"c@	c #71321D",
"d@	c #6F4322",
"e@	c #A77C39",
"f@	c #A87C39",
"g@	c #75361E",
"h@	c #8B4123",
"i@	c #7A361F",
"j@	c #803A20",
"k@	c #964625",
"l@	c #964725",
"m@	c #984826",
"n@	c #8D4724",
"o@	c #8F4A25",
"p@	c #BA6631",
"q@	c #C17B3C",
"r@	c #6E401F",
"s@	c #B07E37",
"t@	c #71341D",
"u@	c #8A4123",
"v@	c #833D21",
"w@	c #893F22",
"x@	c #8C4724",
"y@	c #915F31",
"z@	c #72321E",
"A@	c #5E2C1A",
"B@	c #63301C",
"C@	c #704220",
"D@	c #78371F",
"E@	c #8A4023",
"F@	c #914424",
"G@	c #7A371F",
"H@	c #893F23",
"I@	c #77341E",
"J@	c #8A4624",
"K@	c #5A2719",
"L@	c #8E4925",
"M@	c #AD6D37",
"N@	c #CEA353",
"O@	c #C36F35",
"P@	c #915E31",
"Q@	c #986C34",
"R@	c #B17F37",
"S@	c #8A5D28",
"T@	c #865C26",
"U@	c #9B5A29",
"V@	c #944625",
"W@	c #74331E",
"X@	c #8B4223",
"Y@	c #692D1B",
"Z@	c #67301C",
"`@	c #71371F",
" #	c #733720",
".#	c #76351F",
"+#	c #70331E",
"@#	c #612E1B",
"##	c #612F1B",
"$#	c #986C33",
"%#	c #B07F37",
"&#	c #8B6029",
"*#	c #8A6127",
"=#	c #995B29",
"-#	c #974726",
";#	c #74351E",
">#	c #75331E",
",#	c #853E22",
"'#	c #73331E",
")#	c #8C4223",
"!#	c #5C2919",
"~#	c #652F1C",
"{#	c #734A20",
"]#	c #8B6227",
"^#	c #966A2C",
"/#	c #7D5323",
"(#	c #825925",
"_#	c #9C5D2A",
":#	c #823C21",
"<#	c #7B371F",
"[#	c #71321E",
"}#	c #8A4C27",
"|#	c #C16C33",
"1#	c #71331E",
"2#	c #754B21",
"3#	c #956A2C",
"4#	c #835925",
"5#	c #9F5F2A",
"6#	c #8E4224",
"7#	c #924425",
"8#	c #70321E",
"9#	c #884624",
"0#	c #C26C33",
"a#	c #C16B33",
"b#	c #906529",
"c#	c #92672A",
"d#	c #9A6F30",
"e#	c #A97D3A",
"f#	c #A87D39",
"g#	c #875D26",
"h#	c #795022",
"i#	c #844B23",
"j#	c #864323",
"k#	c #8E4624",
"l#	c #6E301D",
"m#	c #662C1B",
"n#	c #924A26",
"o#	c #934B26",
"p#	c #924725",
"q#	c #86502A",
"r#	c #B86531",
"s#	c #B4612F",
"t#	c #5F3819",
"u#	c #60281A",
"v#	c #6A2F1D",
"w#	c #803B21",
"x#	c #8D5E30",
"y#	c #69401D",
"z#	c #6E491E",
"A#	c #6D481D",
"B#	c #6C471D",
"C#	c #5D2F19",
"D#	c #5B2618",
"E#	c #77361E",
"F#	c #7A371E",
"G#	c #5E2819",
"H#	c #60291A",
"I#	c #7D391F",
"J#	c #70331D",
"K#	c #662F1C",
"L#	c #774927",
"M#	c #975327",
"N#	c #975227",
"O#	c #592719",
"P#	c #572418",
"Q#	c #5B2919",
"R#	c #672F1C",
"S#	c #592618",
"                                                                                                                                ",
"                                                                                                                                ",
"                                                                                                                                ",
"                                                                                                                                ",
"                                          . + + @ @ @ @ @ @ @ @ @ @ @ @ @ @ @ @ @ @ @                                           ",
"                                          # $ $ $ $ $ $ $ $ $ $ $ $ $ $ $ $ $ $ $ $ $ $                                         ",
"                                      % & * = - ; ; ; ; ; ; ; ; ; ; ; ; ; ; ; > = = = , % %                                     ",
"                                      $ ' ) ! ~ { { { { { { { { { { { { { { ] ^ ! ! ! / $ $                                     ",
"                                  ( _ : < [ } | | | | 1 2 1 3 } 4 4 4 } 5 { { } } 6 7 8 9 0 a                                   ",
"                                b $ c ] { { { 6 ! ! ! ! ! ! ! ! ! ! ! ! d { { { { e f g { h i j                                 ",
"                                b $ k l h m n o d d d d d d d d d d d d p q q q q e r s t u @ v                                 ",
"                                b $ w x y z A B { { { { { { { { { { { { B C C C C | { D E F G v                                 ",
"                                b $ w x H I J K L L L L L L L L L L L L M C C N N O L P f Q R S                                 ",
"                                b $ T U V W X Y Z ` Z Z Z Z Z Z Z Z Z Z  ...+.@.#.$.Z %.f Q R &.                                ",
"                                b $ *.E U X =.-.f f f f f f f f f f f f f f +.;.>.,.f f f Q '.).                                ",
"                                # $ *.U U X =.!.f ~.{.].^.U {./.(.f I _.:.U <.[.}.,.|.~.f 1.'.&.                                ",
"                                2.$ *.E V X ;.3.f 4.5.6.^.U 7.}.3.E z ! 8.+.9.0.>.a.b.4.f Q '.c.                                ",
"                                b $ *.E U X ;.d.e.f.g.6.h.U i.j.k.+.l.! 8.+.9.0.>.a.b.4.f Q '.c.                                ",
"                                b $ *.E U @.;.m.! n.;.6.^.f f E f E z ! 8.+.9.7.}.a.b.4.f Q '.o.                                ",
"                                b $ *.U U @.;.m.! p.q.r.s.s.f E f E l.! 8.+.+.=.t.u.b.4.f Q '.v.                                ",
"                                b $ *.E U @.;.m.! ! ! w.x.y.U f E z.A.! 8.+.B.=.>.a.k.4.f Q '.C.                                ",
"                                b $ *.E U X ;.m.! ! ! w.D.x U f +.+.I ! 8.+.<.=.}.E.b.F.f Q '.C.                                ",
"                                b $ G.f U @.;.m.! ! ! w.D.x U f j.=.H.! 8.+.<.[.>.a.z.U f Q '.v.                                ",
"                                b $ *.U +.@.;.m.! ! ! w.D.x U E I.g.J.! 8.+.9.5.t.K.+.E f Q '.v.                                ",
"                                b $ G.E +.L.;.M.l.N.! w.D.x U f I.=.O.e.P.+.9.5.t.K.E Q._.R.'.v.                                ",
"                                b $ G.E +.X ;.S.f 7 ! w.D.x +.E j.5.I.z.f E 9.>.t.K.E 7 ! w.'.C.                                ",
"                                b $ *.z.z.T.U.V.f 7 ! w.D.x +.k.W.X.Y.E (.Z.`. +X..+E 7 ! w.'.C.                                ",
"                                b $ G.z.f E z.++|.7 ! w.D.x k.>.@+z.E E #+'.$+%+z.E f 7 ! w.'.v.                                ",
"                                b $ G.z.E !.E &+*+=+! w.D.x +.-+@+E ;+3.>+'.,+'+)+!+f 7 ! w.'.v.                                ",
"                                b $ *.+.+.~++.I./.=+! w.D.x +.+.E z.{+,+]+^+'.]+]+/+z.7 ! w.'.v.                                ",
"                                b $ (+z.+.~++.&+_+=+! w.D.x <.z.:+l.<+]+,+'.'.'.]+/+z.7 ! w.'.v.                                ",
"                                b $ (+z.+.@.+.++[+=+! w.D.x +.z.}+! |+'.1+2+3+'.'.4++.7 ! w.'.v.                                ",
"                                b $ G.+.+.~++.&+5+=+! w.D.x +.+.6+! |+7+8+9+2+'.'.4+z.7 ! w.'.v.                                ",
"                                b $ (++.U 0++.&+a+=+! w.D.x +.+.b+! c+'.d+e+f+'.'.4+z.7 ! g+R v.                                ",
"                                b $ G.+.z.+.z.h+;+=+! w.D.x +.+.6+! i+'.'.'.'.'.^+/++.7 ! w.'.C.                                ",
"                                b $ *.+.+.<+j+Y.+.=+! w.D.x +.+.b+! k+/.I.,+l+/.Z.m++.7 ! w.'.v.                                ",
"                                b $ *.+.9.@.;.b.+.=+! w.D.x +.+.6+! 7 +.n+t.>.o++.+.+.7 ! w.'.C.                                ",
"                                2.$ G.+.o+@.;.b.+.e.p+q+;.x +.+.r+! 7 +.s+t.>.o++.+.+.7 ! w.'.v.                                ",
"                                b $ *.+.9.L.;.!.+.+.+.s+;.x +.+.6+! 7 +.n+t.>.9.+.+.+.7 ! w.'.v.                                ",
"                                b $ G.+.9.L.;.!.+.+.+.s+;.y.t+<.u+! 7 9.Q t.>.+.v+w++.=+C g+'.v.                                ",
"                                b $ (++.9.X ;.!.+.x++.(.;.;.~.y+z+! 7 9.Q t.>.A+C B+y+C+D+u.'.v.                                ",
"                                b $ G.+.9.@.;.!.+.{.)++.E+;.*+F+G+H+=+y+F t.I+C ! J+K+y+F+L+'.c.                                ",
"                                b $ M++.9.N+x.3.+.[+y 9.O+g.g.P+y+F+9.F+1.t.>.C ! p+F+Q+R+S+T+U+V+W+                            ",
"                                b $ X+<.t+N+5.)+9.Y+}.x+F+Z+}.0.`+F+ @ @.@t.[.C ! J+y++@$ @@}.t.t.,+                            ",
"                                b $ #@$@%@&@t.O+%+*@=@-@ @;@0.t.>@F+K+*@,@t.5.'@J+)@!@~@{@]@^@/@(@_@:@                          ",
"                                b <@[@}@|@1@t.>@2@3@4@5@*@6@7@t.>@ @6@6@8@t.>.6@6@9@# 0@a@) { ] ^ ^ b@c@                        ",
"                                b 2.d@e@f@g@t.Y+2@6@h@i@6@6@j@t.Y+6@k@l@,@t.>.m@6@n@b o@p@q@{ ] ^ ^ b@c@                        ",
"                                b $ r@s@s@t@t.'+3@6@u@v@6@6@j@t.Y+6@h@w@8@t.>.m@6@x@b o@6+6 { ] ^ ^ y@z@                        ",
"                                A@B@C@s@s@(+D@'+`+`+E@F@6@6@G@t.Y+6@H@w@8@t.I@m@6@J@K@L@l.M@L N@O@O@P@,+                        ",
"                              $ Q@s@s@R@R@s@s@S@T@U@;@6@6@8@t.t.V@6@w@w@8@W@&@m@6@X@&@Y@% Z@`@ #N+.#+#'.                        ",
"                            @###$#s@%#R@R@s@s@&#*#=#6@6@-#;#>#,#6@6@w@Z+8@'#W@m@6@)#>.Y@!#~#+#+#'.'.'.'.                        ",
"                        j j {#}@*#]#^#R@s@/#(#T@*#_#6@P+&@]+:#6@6@6@w@<#G@^+[#m@6@*@ @v@]+}#C |#1#'.                            ",
"                        $ $ 2#*#*#*#3#R@s@4#*#*#*#5#6@6#$+W@7#6@6@6@w@&@z@'.8#m@6@6@6@-+R 9#0#a#1#'.                            ",
"                        $ $ 2#*#b#c#d#e#f#g#*#h#{#i#x@j#z@[#7#6@*+k#_+W@l#m#1+n#o#p#6@7@'.q#r#s#8#'.                            ",
"                        $ $ 2#*#*#*#*#*#*#*#*#t#9+9+9+u#]+]+7#6@1@^+,+^+8+9+9+v#'.:#6@w#R x#^ C +#'.                            ",
"                          $ y#z#z#z#z#z#z#A#B#C#9+9+9+D#f+f+E#F#m#e+e+e+G#9+9+H#e+V+I#J#K#L#M#N#7+'.                            ",
"                            $ $ $ <@<@$ <@O#P#9+9+9+9+9+9+9+9+9+9+9+9+9+9+9+9+9+9+P#Q#$ $ $ i R#'.'.                            ",
"                              $ $ $ $ $ $ <@S#9+9+9+9+9+9+9+3+9+9+9+9+9+9+9+9+9+9+3+!#$ $ $ $ i @ v#                            ",
"                                                                                                                                ",
"                                                                                                                                ",
"                                                                                                                                ",
"                                                                                                                                ",
"                                                                                                                                ",
"                                                                                                                                "};
