/* XPM */
static char * prota_frontal2_xpm[] = {
"64 64 117 2",
"  	c None",
". 	c #4F422F",
"+ 	c #554835",
"@ 	c #D8C3A1",
"# 	c #554732",
"$ 	c #5A4C38",
"% 	c #DAC5A4",
"& 	c #CEAD7B",
"* 	c #D0B07E",
"= 	c #E6DCCC",
"- 	c #D0AF7D",
"; 	c #D2B280",
"> 	c #E7DBCD",
", 	c #D2B282",
"' 	c #DAC4A2",
") 	c #DCC5A5",
"! 	c #EB97E9",
"~ 	c #EB98EA",
"{ 	c #E5DACB",
"] 	c #564A39",
"^ 	c #DBC3A4",
"/ 	c #DDC4A8",
"( 	c #EB95EA",
"_ 	c #EB96EA",
": 	c #E7DCCF",
"< 	c #E5DBCC",
"[ 	c #5B4E3B",
"} 	c #D0AE80",
"| 	c #EA96E8",
"1 	c #EB94EB",
"2 	c #E7DCCD",
"3 	c #D2B082",
"4 	c #EB95E9",
"5 	c #DDC6A7",
"6 	c #E7DDCD",
"7 	c #DCC6A4",
"8 	c #DCC6A3",
"9 	c #DAC4A3",
"0 	c #DCC5A6",
"a 	c #DCC7A6",
"b 	c #DCC7A5",
"c 	c #DCC6A5",
"d 	c #E7DBCE",
"e 	c #E7DDCE",
"f 	c #D1B17F",
"g 	c #E7DCCC",
"h 	c #5C5141",
"i 	c #584D3E",
"j 	c #5E5446",
"k 	c #FBFBFA",
"l 	c #FCFCFC",
"m 	c #E7DECF",
"n 	c #5A4D38",
"o 	c #5C503E",
"p 	c #FCFBFA",
"q 	c #FEFDFC",
"r 	c #E8DECF",
"s 	c #C69D1F",
"t 	c #C59C03",
"u 	c #C8A027",
"v 	c #C9A133",
"w 	c #C9A01E",
"x 	c #C89E00",
"y 	c #E8DDCC",
"z 	c #FED21E",
"A 	c #FED200",
"B 	c #FED32C",
"C 	c #FFD31E",
"D 	c #E8DECD",
"E 	c #FEFEFD",
"F 	c #FFFEFE",
"G 	c #DCC5A3",
"H 	c #E8DFD0",
"I 	c #FFFFFF",
"J 	c #FEFDFD",
"K 	c #FBFBFB",
"L 	c #5D5347",
"M 	c #5A4B35",
"N 	c #AD9471",
"O 	c #AB926F",
"P 	c #D1CFDC",
"Q 	c #FEFEFE",
"R 	c #FDFDFD",
"S 	c #AC9371",
"T 	c #D3D1DF",
"U 	c #D4D2DF",
"V 	c #D5D4E1",
"W 	c #EDEDF2",
"X 	c #ECECF0",
"Y 	c #ECECF2",
"Z 	c #544732",
"` 	c #CFAF7F",
" .	c #D1D0DD",
"..	c #D2D1DE",
"+.	c #EBEAEF",
"@.	c #EBEBF0",
"#.	c #55493B",
"$.	c #564B3D",
"%.	c #574B3D",
"&.	c #E5DBCB",
"*.	c #D1D0DE",
"=.	c #5B4E3A",
"-.	c #DCC7A7",
";.	c #D4D3E0",
">.	c #D4D3E1",
",.	c #E6DBCB",
"'.	c #CFAF7C",
").	c #D1B07E",
"!.	c #D1B07D",
"~.	c #574934",
"{.	c #524531",
"].	c #A68B63",
"^.	c #A58B63",
"/.	c #554733",
"(.	c #A78C64",
"_.	c #D2B17F",
":.	c #A88D65",
"                                                                                                                                ",
"                                                                                                                                ",
"                                                                                                                                ",
"                                                                                                                                ",
"                                                                                                                                ",
"                                                                                                                                ",
"                                                . .                             . .                                             ",
"                                                + +                             + +                                             ",
"                                            . + @ @ + .                     . + @ @ + .                                         ",
"                                            # $ % % $ #                     # $ % % $ #                                         ",
"                                        . # & * = = * & # .             . # & * = = * & # .                                     ",
"                                        . # - ; > > , * # .             . # * , > > ; - # .                                     ",
"                                        . + ' ) ! ~ > { ] .             . ] { > ~ ! ) ' + .                                     ",
"                                        # $ ^ / ( _ : < [ #             # [ < : _ ( / ^ $ #                                     ",
"                                    . # & } | ( 1 _ : 2 * & # . . . . # & * 2 : _ 1 ( | } & # .                                 ",
"                                    . # - 3 4 1 ( ! : 2 ; - $ + + + + $ - ; 2 : ! ( 1 4 3 - # .                                 ",
"                                    . + ' ) ( ( / 5 6 6 7 8 9 9 9 9 9 9 8 7 6 6 5 / ( ( ) ' + .                                 ",
"                                    # $ 9 0 ! ! 5 a 6 6 a b b b b b b b b a 6 6 a 5 ! ! 0 9 $ #                                 ",
"                                . # & - 8 c d : 6 6 e e 6 6 6 6 6 6 6 6 6 6 e e 6 6 : d c 8 - & # .                             ",
"                                . # - f 7 a 6 e < < < < e e e e e e e e e e < < < < e 6 a 7 f - # .                             ",
"                                . + ' 7 g 6 e < h ] ] h < e e e e e e e e < h ] ] h < e 6 g 7 ' + .                             ",
"                                . + 9 b 6 e e < ] . i j < e e e e e e e e < j i . ] < e e 6 b 9 + .                             ",
"                                . + 9 b 6 e e < ] i k l m e e e e e e e e m l k i ] < e e 6 b 9 + .                             ",
"                                . + 9 b 6 e e < n o p q r e e e e e e e e r q p o n < e e 6 b 9 + .                             ",
"                            . . . + 9 b 6 e e = s t u v = e e e e e e e e = v u t s = e e 6 b 9 + . . .                         ",
"                            . . . + 9 b 6 e e = w x x w = e e e e e e e e = w x x w = e e 6 b 9 + . . .                         ",
"                                . + 9 b 6 e e y z A A z y e e e e e e e e y z A A z y e e 6 b 9 + .                             ",
"                                . + ' 7 g 6 e y B C C B D r r m < < m r r D B C C B y e 6 g 7 ' + .                             ",
"                            . . . # - f 7 a 6 e y y y D E F F l j j l F F E D y y y e 6 a 7 f - # . . .                         ",
"                            . . . # & - G 7 g 6 e e r H F I J K L L K J I F H r e e 6 g 7 G - & # . . .                         ",
"                                    # M - f 7 a 6 r E F I J N O P P O N J I F E r 6 a 7 f - M #                                 ",
"                                    . # & - ' % = e E Q I R S O T T O S R I Q E e = % ' - & # .                                 ",
"                                        # # + $ * , U V W W X X Y Y X X W W V U , * $ + # #                                     ",
"                                        . . . Z & `  ...+.@.@.@.@.@.@.@.@.+... .` & Z . . .                                     ",
"                                            . . Z # #.#.$.%.%.%.%.%.%.%.%.$.#.#.# Z . .                                         ",
"                                            + + ] ] + + #.#.#.#.#.#.#.#.#.#.+ + ] ] + +                                         ",
"                                        . + @ % &.&.% %  .*.*.*.*.*.*.*.*. .% % &.&.% @ + .                                     ",
"                                        + =.% a = = a -.;.>.>.>.>.>.>.>.>.;.-.a = = a % =.+                                     ",
"                                    . + @ % g = , , = e Q Q Q Q Q Q Q Q Q Q e = , , = g % @ + .                                 ",
"                                    # $ 9 c = ,.* * 2 r F I I I I I I I I F r 2 * * ,.= c 9 $ #                                 ",
"                                . # & - 8 8 ; * M [ < r F I I I I I I I I F r < [ M * ; 8 8 - & # .                             ",
"                                . # '.).G G - & Z ] < r F I I I I I I I I F r < ] Z & - G G ).'.# .                             ",
"                                . # '.!.).- M Z . ] < r F I I I I I I I I F r < ] . Z M - ).!.'.# .                             ",
"                                . # & '.'.& # . . ] &.e E F I I I I I I F E e &.] . . # & '.'.& ~.{.                            ",
"                                    # # # #     . + % a e H F I I I I F H e a % + .     # # # ~.].^.{..                         ",
"                                    . . . .     . + 9 c = e q E E E E q e = c 9 + .     . . {./.(.(.{..                         ",
"                                                . + 9 8 ; _., , , , , , _.; 8 9 + . . . . {.^.(.:.(.{..                         ",
"                                                . + 9 8 f ).'.'.'.'.'.'.).f 8 9 + . {.{.{./.(.:.(.^.{..                         ",
"                                                . + 9 7 8 ' $ # # # # $ ' 8 7 9 + {.^.(.(.(.:.(./.{.                            ",
"                                                . + 9 7 7 9 + . . . . + 9 7 7 9 + {.^.(.(.(.(.^.{..                             ",
"                                                . + 9 7 7 9 + . . . . + 9 7 7 9 + . {.{.{.{.{.{.                                ",
"                                                . + ' 8 8 ' + . . . . + ' 8 8 ' + . . . . . . .                                 ",
"                                                . # - ).).- # .     . # - ).).- # .                                             ",
"                                                . # & '.'.& # .     . # & '.'.& # .                                             ",
"                                                    # # # #             # # # #                                                 ",
"                                                    . . . .             . . . .                                                 ",
"                                                                                                                                ",
"                                                                                                                                ",
"                                                                                                                                ",
"                                                                                                                                ",
"                                                                                                                                ",
"                                                                                                                                ",
"                                                                                                                                ",
"                                                                                                                                "};
