/* XPM */
static char * salida2_xpm[] = {
"64 64 248 2",
"  	c None",
". 	c #492E34",
"+ 	c #472C33",
"@ 	c #8D5543",
"# 	c #A46146",
"$ 	c #9A5A41",
"% 	c #724237",
"& 	c #8C5443",
"* 	c #92543C",
"= 	c #91533B",
"- 	c #8A3A36",
"; 	c #8C5442",
"> 	c #66282A",
", 	c #9C453C",
"' 	c #A7483F",
") 	c #702B2C",
"! 	c #662A2C",
"~ 	c #B24F43",
"{ 	c #A34E48",
"] 	c #8F4543",
"^ 	c #62282A",
"/ 	c #6F2C2D",
"( 	c #B44F43",
"_ 	c #C75849",
": 	c #843B35",
"< 	c #A5463E",
"[ 	c #702A2C",
"} 	c #5E282A",
"| 	c #782E2F",
"1 	c #702C2D",
"2 	c #C8594A",
"3 	c #A0473D",
"4 	c #A0463D",
"5 	c #6B2A2C",
"6 	c #682A2C",
"7 	c #7A2E2F",
"8 	c #782F2F",
"9 	c #AA5652",
"0 	c #8D4543",
"a 	c #C7584A",
"b 	c #B45043",
"c 	c #8C3B36",
"d 	c #67282A",
"e 	c #873232",
"f 	c #722D2E",
"g 	c #873332",
"h 	c #BD5D56",
"i 	c #9D463D",
"j 	c #993836",
"k 	c #7F3834",
"l 	c #CB5E53",
"m 	c #9F473D",
"n 	c #9D453C",
"o 	c #672A2C",
"p 	c #5C282A",
"q 	c #BA574E",
"r 	c #803031",
"s 	c #CD5F54",
"t 	c #C65849",
"u 	c #884341",
"v 	c #A44F49",
"w 	c #792E2F",
"x 	c #8D4643",
"y 	c #B14E42",
"z 	c #CC5F53",
"A 	c #712D2E",
"B 	c #B45044",
"C 	c #9C463D",
"D 	c #C3635E",
"E 	c #8C3433",
"F 	c #722C2E",
"G 	c #712C2D",
"H 	c #CB5F53",
"I 	c #A64F49",
"J 	c #803934",
"K 	c #792F2F",
"L 	c #9F3A38",
"M 	c #5F282A",
"N 	c #AB5652",
"O 	c #BA584E",
"P 	c #58292A",
"Q 	c #9F463D",
"R 	c #894341",
"S 	c #7A2F2F",
"T 	c #552629",
"U 	c #894442",
"V 	c #8C4542",
"W 	c #5A2B2D",
"X 	c #522629",
"Y 	c #9F473E",
"Z 	c #5D282A",
"` 	c #692A2C",
" .	c #502528",
"..	c #813131",
"+.	c #712C2E",
"@.	c #8E3534",
"#.	c #9F463F",
"$.	c #93543C",
"%.	c #692B2E",
"&.	c #702D2E",
"*.	c #CC5F54",
"=.	c #B25045",
"-.	c #6B3A38",
";.	c #79473D",
">.	c #9A5A45",
",.	c #905340",
"'.	c #78473D",
").	c #693937",
"!.	c #6E2D30",
"~.	c #883232",
"{.	c #512528",
"].	c #B55145",
"^.	c #C1635F",
"/.	c #6C3B38",
"(.	c #523034",
"_.	c #5E3536",
":.	c #733F39",
"<.	c #6A3A37",
"[.	c #8B3536",
"}.	c #482022",
"|.	c #813A36",
"1.	c #D56A63",
"2.	c #99453E",
"3.	c #6A3A38",
"4.	c #603636",
"5.	c #5F3536",
"6.	c #693A37",
"7.	c #642B2E",
"8.	c #451F22",
"9.	c #BE5E58",
"0.	c #533034",
"a.	c #683B36",
"b.	c #743F39",
"c.	c #693C36",
"d.	c #8C3636",
"e.	c #864443",
"f.	c #6D3B39",
"g.	c #894D3A",
"h.	c #613736",
"i.	c #714237",
"j.	c #8F523B",
"k.	c #83493A",
"l.	c #6B3A37",
"m.	c #6E2E30",
"n.	c #B15045",
"o.	c #894E3A",
"p.	c #90533B",
"q.	c #7E3133",
"r.	c #592A2C",
"s.	c #B55044",
"t.	c #BB5D57",
"u.	c #734337",
"v.	c #7C4539",
"w.	c #82493A",
"x.	c #973938",
"y.	c #9F3937",
"z.	c #B7574F",
"A.	c #884D3A",
"B.	c #613636",
"C.	c #864343",
"D.	c #6D2E30",
"E.	c #6A3D36",
"F.	c #48272E",
"G.	c #733E39",
"H.	c #704137",
"I.	c #8E513B",
"J.	c #714137",
"K.	c #7B4439",
"L.	c #5F3636",
"M.	c #3D2026",
"N.	c #5E3735",
"O.	c #603935",
"P.	c #522F34",
"Q.	c #36212A",
"R.	c #452B32",
"S.	c #90523B",
"T.	c #563235",
"U.	c #3A242A",
"V.	c #8A4E3A",
"W.	c #3C252B",
"X.	c #4A2E34",
"Y.	c #7B4639",
"Z.	c #804C3D",
"`.	c #8B5342",
" +	c #7F4B3D",
".+	c #6E3F35",
"++	c #7A4538",
"@+	c #6B3D37",
"#+	c #3E262B",
"$+	c #814D3D",
"%+	c #000000",
"&+	c #543134",
"*+	c #5F3835",
"=+	c #8B5442",
"-+	c #8A5342",
";+	c #734237",
">+	c #010101",
",+	c #010000",
"'+	c #8A4F3B",
")+	c #744337",
"!+	c #8B5547",
"~+	c #3398B1",
"{+	c #34A7BC",
"]+	c #3396B1",
"^+	c #5E383B",
"/+	c #553234",
"(+	c #7E5449",
"_+	c #0CE6FB",
":+	c #06DFFC",
"<+	c #04CBF6",
"[+	c #5D3D42",
"}+	c #030303",
"|+	c #7E5349",
"1+	c #09DDFA",
"2+	c #00CDF9",
"3+	c #03B4EA",
"4+	c #5D3B41",
"5+	c #070303",
"6+	c #89584D",
"7+	c #00B6EC",
"8+	c #03A6E2",
"9+	c #5D3940",
"0+	c #7E4B3D",
"a+	c #0A0404",
"b+	c #603835",
"c+	c #7E4F47",
"d+	c #03B4E9",
"e+	c #00A7E4",
"f+	c #038DCF",
"g+	c #5D383D",
"h+	c #060303",
"i+	c #71453E",
"j+	c #2F85AE",
"k+	c #2E71A4",
"l+	c #2F5281",
"m+	c #5D3638",
"n+	c #6C3E35",
"o+	c #030202",
"p+	c #020101",
"q+	c #A56146",
"r+	c #6F4036",
"s+	c #37222A",
"t+	c #40262D",
"u+	c #301D24",
"v+	c #38222A",
"w+	c #2E1B21",
"x+	c #3B242B",
"y+	c #321E22",
"                                                                                                                                ",
"                                                                                                                                ",
"                                                                                                                                ",
"                                                                                                                                ",
"                                                                                                                                ",
"                                                              . +                                                               ",
"                                                            @ # $ %                                                             ",
"                                                            & * = %                                                             ",
"                                                          - ; * = % >                                                           ",
"                                                        , ' ; * = % ) !                                                         ",
"                                                      ~ { ] ; * = % ^ ! /                                                       ",
"                                                    ( _ : < ; * = % [ } | 1                                                     ",
"                                                  { 2 3 _ 4 ; * = % 5 | 6 7 8                                                   ",
"                                                ~ 9 0 a b c ; * = % d 1 e f g /                                                 ",
"                                              ( _ : , h i ' ; * = % ) 6 j 6 } | 1                                               ",
"                                            k l m _ n ~ { ] ; * = % ^ ! 1 o | 6 e p                                             ",
"                                          ( i { i q b _ : < ; * = % [ } | 1 r 6 8 6 1                                           ",
"                                        { s m t u v 2 3 _ 4 ; * = % 5 | 6 w 6 / | 6 7 8                                         ",
"                                      ~ 9 x a b y 9 x z b c ; * = % d 1 w A 8 / 1 w f g /                                       ",
"                                    ( a : , h B a : C D i ' ; * = % ) 6 E o } w F E o } w G                                     ",
"                                  k H I _ n J H I a n ~ { ] ; * = % ^ ! 1 o | K L M o | K L }                                   ",
"                                ( i { i q b i { N O b _ : < ; * = % [ } | 1 r 6 K 6 1 r 6 K 6 G                                 ",
"                              P l m t u i 2 Q t R i 2 3 _ 4 ; * = % 5 | 6 7 S / | 6 7 S / | K L T                               ",
"                                U z b y { V a b y { 0 z b c ; * = % d 1 w f g / 1 w f g / 1 w A                                 ",
"                                W D B _ : , h B _ : C D i ' ; * = % ) 6 E o } | G E o } | G E X                                 ",
"                                P J l Y a n J l m _ n ~ { ] ; * = % ^ ! 1 o | 6 | Z o w ` e Z  .                                ",
"                                ( i { N O b i { i q b _ : < ; * = % [ } | 1 ..g ! o +.@.g 8 6 1                                 ",
"                              P l m t R i 2 Q t u i 2 3 _ #.; $.= % %.| 6 w 6 &.| 6 w 6 &.| 6 e  .                              ",
"                                U *.q y { 0 z b y { 0 z =.-.;.>.,.'.).!.w A 8 / 1 w A 8 / 1 ~.A {.                              ",
"                                W D ]._ : C D B _ : C ^./.(._.:.:._.(.<.[.o } | G E o } | G j }.                                ",
"                                P |.1.m _ n J l Y 2 2.3.4._._.5.5._._.4.6.7.w ` e Z o | 6 e Z 8.                                ",
"                                ( i { i q b i { N 9./.0.:.4.a.b.b._.c.b.0.<.d.g 8 6 1 r 6 8 6 1                                 ",
"                              P l m t u i 2 Q t e.f.4.5.g.h.i.j.k._.% k._.4.l.m.| 6 7 S / | 6 e  .                              ",
"                                U a b y { V a n.<.0.:.4.o.4.i.p.k._.% k.c.b.0.).q.~.f g / 1 ~.A {.                              ",
"                                r.h s.a : , t./.4.5.g.h.j.h.u.# k._.% v.% w._.4.l.x.6 } | F j }.                                ",
"                                P |.1.I _ 2.3.0.:.4.o.h.j.h.u.# k._.% k.% v.c.b.0.6.7.| 6 y.M 8.                                ",
"                                ( i { i z./.4.5.A.B.j.h.j.h.u.# k._.% k.% k.% k._.4.).q.6 K 6 1                                 ",
"                              P l m t C.f.0.:.4.o.4.j.4.o.h.u.# k._.% k.% k.% k.c.b.0.l.D.| 6 e  .                              ",
"                                U *.z.<.4.5.g.h.j.h.j.h.j.h.u.# k._.E.k.% k.% v.% k._.4.).!.~.A {.                              ",
"                                W ^.f.5.5.4.o.4.j.h.o.4.j.h.u.# k._.% k.% k.% k.% k.c.5.5.<.x.}.                                ",
"                                F.3.4.G.H.4.I.4.I.4.I.4.I.4.% # k._.J.K.i.w.i.w.J.K.J.L.G.4.6.M.                                ",
"                                  (.v.w.N.J.% J.% J.% J.% J.O.# k.N.i.% i.% i.% i.% i.N.w.v.P.Q.                                ",
"                                  R.S.k.0.h.h.h.h.h.h.h.h.h.T.# k.0.h.h.h.h.h.h.h.h.h.0.k.S.U.                                  ",
"                                  + $ k.J.V.j.j.j.j.j.j.j.V.u.# k.J.V.S.S.S.S.S.S.S.V.J.k.$ W.                                  ",
"                                  X.# k.c.Y.& Z.`. +.+i.% ++@+# k.c.k.k.k.k.k.k.k.k.k.c.k.# #+                                  ",
"                                  X.# k.0.O.$+%+%+%+%+%+J.&+O.# k.N.% *+=+ +-+ +J.N.% N.k.# #+                                  ",
"                                  X.# k.4.;+ +%+>+>+%+,+H.h.u.# k.% '+)+!+~+{+]+^+% '+% k.# #+                                  ",
"                                  X.# k.(./+ +,+>+>+%+,+J.0.T.# k.0.h./+(+_+:+<+[+0.h.0.k.# #+                                  ",
"                                  X.# k.L.;+-+%+>+>+>+}+J.4.;+# k.J.V.u.|+1+2+3+4+i.V.J.k.# #+                                  ",
"                                  X.# k.5.c.% %+>+>+>+5+J.4.@+# k.c.k.@+6+<+7+8+9+c.k.c.k.# #+                                  ",
"                                  X.# k.0.*+0+%+>+>+>+a+H.&+O.# k.N.% b+c+d+e+f+g+N.% N.k.# #+                                  ",
"                                  X.# k.4.% H.%+>+>+>+h+H.h.u.# k.% '+;+i+j+k+l+m+% '+% k.# #+                                  ",
"                                  X.# k.(.&+n+>+>+>+>+o+H.0.T.# k.0.h.&+c.5.5.5.5.&+h.0.k.# #+                                  ",
"                                  X.# k.L.i.H.>+>+>+>+p+H.4.;+# k.J.V.S.S.S.S.S.S.S.V.J.k.# #+                                  ",
"                                  X.q+k.5.c.r+s+t+s+u+s+r+4.@+q+k.c.k.k.k.k.k.k.k.k.k.c.k.q+#+                                  ",
"                                    =+c.v+s+w+          w+s+x+=+c.v+v+v+v+v+v+v+v+v+v+v+c.=+y+                                  ",
"                                                                                                                                ",
"                                                                                                                                ",
"                                                                                                                                ",
"                                                                                                                                ",
"                                                                                                                                ",
"                                                                                                                                ",
"                                                                                                                                ",
"                                                                                                                                "};
