/* XPM */
static char * tileset_xpm[] = {
"64 64 55 1",
" 	c #B0DC58",
".	c #BBEA5E",
"+	c #B3E05A",
"@	c #BBE95E",
"#	c #B0DD58",
"$	c #A7D153",
"%	c #BCEA62",
"&	c #E9FECE",
"*	c #BDEB66",
"=	c #EBFFCE",
"-	c #FEFD51",
";	c #CBFE66",
">	c #CCFF66",
",	c #BCEB5E",
"'	c #CCFE68",
")	c #B8BEA9",
"!	c #B7BCAA",
"~	c #B0DB5B",
"{	c #B7BCA9",
"]	c #D3FF5F",
"^	c #B0DB5D",
"/	c #CBFD68",
"(	c #CBFD6A",
"_	c #B7BAAB",
":	c #B0DC5B",
"<	c #B4E15A",
"[	c #B4E15B",
"}	c #CCFE66",
"|	c #D2FF5E",
"1	c #A6FF31",
"2	c #D1FF5E",
"3	c #BDEA5E",
"4	c #BDEB5E",
"5	c #FDFC46",
"6	c #FDFD46",
"7	c #CDFF65",
"8	c #BEEB5D",
"9	c #FDFB45",
"0	c #CEFF65",
"a	c #B9B732",
"b	c #FDFD47",
"c	c #FEFD46",
"d	c #BCEA5E",
"e	c #D2FF5F",
"f	c #D4FF5F",
"g	c #FDFC45",
"h	c #D5FF5E",
"i	c #D4FF63",
"j	c #EAFFCE",
"k	c #D3FF63",
"l	c #D4FF67",
"m	c #CDFF6A",
"n	c #CBFF65",
"o	c #A6FF32",
"p	c #A5FF30",
"            ....                                        ..++....",
"            ...@                                       #..++....",
"            ..#                                     @.......++..",
"            @@                                     #........++..",
"          $$                  @.................................",
"          $$                  ..................................",
"                              ..........................++......",
"                             #..............%%..........++......",
"        @..@                @..............%&&%.......++........",
"        ...@                ..............%*==*%......++........",
"        ..#                 .............%&=--=&%...++..........",
"        @@                  .............%&=--=&%...++..........",
"                            ..............%*==*%..............;>",
"                           #...............%&&%..............,>>",
"                          @.................%%..............;>>>",
"                          .................................,>>>>",
"                          ++....++......................;>>>>>>>",
"                          ++....++.....................,>>>>>>''",
"                          ..++....++........;>>>>>>>>>>>>>>>>')!",
"                          ..++....++.......,>>>>>>>>>>>>>>>>>')!",
"                          ....++....++....;>>>>>>>>>>>>>>>>>>>''",
"        ~~               #....++....++...,>>>>>>>>>>>>>>>>>>>>>>",
"       ~{{~             @...............;>>>>>>>>>>>>>>>>>>>>>]]",
"      ~^{{^~            ...............,/'>>>>>>>>>>>>>>>>>>>>]]",
"     ~{{^^{{~           ..............;/))'>>>>>>>>>>>>>>>>>]]]]",
"     ~{{^^{{~          #.............,/(!!'>>>>>>>>>>>>>>>>>]]]]",
"      ~^{{^~          @.............;/)!_!'>>>>>>>>>>>>>>>]]]]]]",
"       :{{~          #.............,>')!!)'>>>>>>>>>>>>>>>]]]]]]",
"    @..@:~          @.....++......;>>>''''>>>>>>>>>>>>]]]]]]]]]]",
"    ...@           #......++......>>>>>>>>>>>>>>>>>>>>]]]]]]]]]]",
"    ..#           @.........++....>>>>>>>>>>>>>>>>]]]]]]]]]]]]]]",
"    @@#          #..........++...,>>>>>>>>>>>>>>>>]]]]]]]]]]]]]]",
"     #@.......................+<;>>>>>>>>>>>>>>>]]]]]]]]]]]]]]]]",
"     #........................<[}>>>>>>>>>>>>>>>]]]]]]]]]]]]]]]]",
"  ++......................++..;}>>>>>>>>>>>>]]]]]]]]]]]]]]]]]]]]",
"  ++......................++..>>>>>>>>>>>>>>]]]]||]]]]]]]]]]]]]]",
"....++......................+<}>>>>>>>>>>>]]]]]|11|]]]]]]]]]]]]]",
"....++......................<[;}>>>>>>>>>>]]]]]|112|]]]]]]]]]]]]",
"++....++....................;;[[}>>>>>>>]]]]]]]]|211|]]]]]]]]]]]",
"++....++..................34>}[[}>>>>>>>]]]]]]]]]|11|]]]]]]]]]]]",
".........................3567>}}>>>>>>]]]]]]]]]]]]||]]]]]]]]]]]]",
"........................389507>>>>>>>>]]]]]]]]]]]]]]]]]]]]]]]]]]",
".......................359aa5b7>>>>>]]]]]]]]]]]]]]]]]]]]]]]]]]]]",
".......................365aa5b7>>>>>]]]]]]]]]]]]]]]]]]]]]]]]]]]]",
"........................705507>>>>]]]]]]]]]]]]]]]]]]]]]]]]]]]]]]",
".......................,>7cc7>>>>>]]]]]]]]]]]]]]]]]]]]]]]]]]]]]]",
"......;>>>>>>;........;>>7cc7>>>]]]]]]]]]]]]]]]]>>]]]]]]]]>>]]]]",
".....,>>>>>>>>,.dd...,>>705507>>]]]]]]]]]]]]]]]]>>]]]]]]]]>>]]]]",
">>>>>>>>>>>>>>>>ee>>>>>7b5aa5bf]]]]]]]]]]]]]]]]]]]>>]]]]>>]]>>>>",
"}}>>>>>>>>>>>>>>]]>>>>>7b5aag6f]]]]]]]]]]]]]]]]]]]>>]]]]>>]]>>>>",
"<[}>>>>>>>>>>>]]>>]]>>>>705ghf]]]]]]]]]]]]]]]]]]]]]]>>]]]]>>]]]]",
"<[}>>>>>>>>>>>]]>>]]>>>>>7bbf]]]]]]]]]]]]]]]]]]]]]]]>>]]]]>>]]]]",
"}}>>>>>>>>>>]]>>>>>>]]>>>>77]]]]]]]]]]]]]]]]]]]]]]]]]]]]]]>>]]]]",
">>>>>>>>>>>>]]>>>>>>]]>>>>>>]]ii]]]]]]]]]]]]]]]]]]]]]]]]]]>>]]]]",
">>>>>>>>>>>>>>]]>>]]>>>>>>>>]ijji]]]]]]]]]]]]]]]]]]]]]]]]]]]]]]]",
"}}>>>>>>>>>>>>]]>>]]>>>>>>>>kl==li]]]]]]]]]]]]]]]]]]]]]]]]]]]]]]",
"<[}>>>>>>>>>>>>>]]>>>>>>>>>mj=--=ji]]]]]]]]]]]]]]]]]]]]]]]]]]]]]",
"<[}>>>>>nn>>>>>>]]>>>>>>>>>mj=--=ji]]]]]]]]]]]]]]]]]]]]]]]]]]]]]",
"}}>>>>>noon>>>>>>>>>>>>>>>]]il==li]]]]]]]]]]]]]]]]]]]]>>]]]]]]]]",
">>>>>>>noon>>>>>>>>>>>>>>>]]]ijji]]]]]]]]]]]]]]]]]]]||>>]]]]]]]]",
">>>>>>>>nn>>>>>>>>>>>>>>]]]]]]ii]]]]]]]]]]]]]]]]]]]|11|]>>]]]]]]",
">>>>>>>>>>>>>>>>>>>>>>>>]]]]]]]]]]]]]]]]]]]]]]]]]]]|112|>>]]]]]]",
">>>>>>>>>>>>>>>>>>>>>>]]>>]]]]]]]]]]]]]]]]]]]]]]]]]]|211|]>>]]]]",
">>>>>>>>>>>>>>>>>>>>>>]]>>]]]]]]]]]]]]]]]]]]]]]]]]]]]|pp|]>>]]]]"};
