/* XPM */
static char * villano_derecha1_xpm[] = {
"64 64 225 2",
"  	c None",
". 	c #323234",
"+ 	c #333335",
"@ 	c #343436",
"# 	c #535355",
"$ 	c #545456",
"% 	c #6C6C6D",
"& 	c #555557",
"* 	c #6D6D6E",
"= 	c #434343",
"- 	c #454545",
"; 	c #444444",
"> 	c #474747",
", 	c #484847",
"' 	c #9AA394",
") 	c #565758",
"! 	c #474847",
"~ 	c #4A4B4A",
"{ 	c #9BA595",
"] 	c #5B5C5E",
"^ 	c #59595C",
"/ 	c #373838",
"( 	c #99A394",
"_ 	c #9CA696",
": 	c #9DA798",
"< 	c #D0D0DD",
"[ 	c #D1D0DE",
"} 	c #383839",
"| 	c #D2D1DF",
"1 	c #D3D2E0",
"2 	c #58595A",
"3 	c #464646",
"4 	c #9AA494",
"5 	c #9CA697",
"6 	c #333234",
"7 	c #343334",
"8 	c #343335",
"9 	c #353435",
"0 	c #454544",
"a 	c #464544",
"b 	c #484745",
"c 	c #383736",
"d 	c #353537",
"e 	c #353536",
"f 	c #4F422F",
"g 	c #4F4230",
"h 	c #685D47",
"i 	c #695E48",
"j 	c #786A4F",
"k 	c #786A50",
"l 	c #7A6C51",
"m 	c #AB9872",
"n 	c #AA9771",
"o 	c #393737",
"p 	c #796B50",
"q 	c #857F78",
"r 	c #837D77",
"s 	c #504432",
"t 	c #504330",
"u 	c #6A5F49",
"v 	c #6B6049",
"w 	c #7C6D52",
"x 	c #AC9972",
"y 	c #AC9973",
"z 	c #514432",
"A 	c #524531",
"B 	c #9D8C6C",
"C 	c #9E8D6D",
"D 	c #3E3B38",
"E 	c #AD9A73",
"F 	c #544734",
"G 	c #383737",
"H 	c #AE9C77",
"I 	c #AF9D78",
"J 	c #5B5040",
"K 	c #584D3E",
"L 	c #7A6C50",
"M 	c #534632",
"N 	c #6B5F49",
"O 	c #404042",
"P 	c #FBFBFB",
"Q 	c #FCFCFB",
"R 	c #FCFBFB",
"S 	c #FBFBFA",
"T 	c #3B3937",
"U 	c #414142",
"V 	c #4C4C4D",
"W 	c #FDFDFD",
"X 	c #FEFDFD",
"Y 	c #B1A07D",
"Z 	c #383636",
"` 	c #FAFAFA",
" .	c #FFFFFF",
"..	c #60564A",
"+.	c #9C8C6C",
"@.	c #9E8D6C",
"#.	c #AA9871",
"$.	c #FFFEFF",
"%.	c #FCFCFC",
"&.	c #5D5347",
"*.	c #55493B",
"=.	c #4E4230",
"-.	c #484645",
";.	c #494845",
">.	c #4A4846",
",.	c #4C4A47",
"'.	c #AB9972",
").	c #5E5448",
"!.	c #E7E6ED",
"~.	c #E8E7EF",
"{.	c #D2D1DE",
"].	c #D0CEDC",
"^.	c #444443",
"/.	c #776A50",
"(.	c #776A4F",
"_.	c #4F4330",
":.	c #685D48",
"<.	c #484746",
"[.	c #4E4E4E",
"}.	c #525150",
"|.	c #AE9C78",
"1.	c #5B5145",
"2.	c #E5E3EB",
"3.	c #E6E5ED",
"4.	c #AA9872",
"5.	c #8D8882",
"6.	c #8B8681",
"7.	c #D0CFDD",
"8.	c #8A8580",
"9.	c #87817C",
"0.	c #564B3D",
"a.	c #504F4E",
"b.	c #AD9B77",
"c.	c #B19F7C",
"d.	c #89847F",
"e.	c #D0CFDC",
"f.	c #86817B",
"g.	c #3E3E40",
"h.	c #E4E3EB",
"i.	c #E9E8EF",
"j.	c #5A4F44",
"k.	c #3F3F42",
"l.	c #4D4D4E",
"m.	c #4D4C4D",
"n.	c #564B3C",
"o.	c #454444",
"p.	c #545355",
"q.	c #545455",
"r.	c #575657",
"s.	c #565657",
"t.	c #555556",
"u.	c #565556",
"v.	c #6E6E6E",
"w.	c #6E6E6D",
"x.	c #504433",
"y.	c #524633",
"z.	c #796B51",
"A.	c #575656",
"B.	c #6D6C6D",
"C.	c #574C3E",
"D.	c #594D3E",
"E.	c #A19172",
"F.	c #7B6D52",
"G.	c #AB9871",
"H.	c #585758",
"I.	c #5A5A5D",
"J.	c #5B5B5D",
"K.	c #717173",
"L.	c #564834",
"M.	c #87827C",
"N.	c #E5E4EB",
"O.	c #717172",
"P.	c #AD9B76",
"Q.	c #524532",
"R.	c #857E78",
"S.	c #89837D",
"T.	c #626264",
"U.	c #5C5C5E",
"V.	c #4B4B4C",
"W.	c #3C3C3F",
"X.	c #3C3C3E",
"Y.	c #E8E6EE",
"Z.	c #9D8D6C",
"`.	c #A19072",
" +	c #FCFCFD",
".+	c #CFCEDC",
"++	c #54493B",
"@+	c #4F4331",
"#+	c #564A3C",
"$+	c #FEFEFE",
"%+	c #574B3D",
"&+	c #A09071",
"*+	c #E6E4EB",
"=+	c #E7E6EE",
"-+	c #FDFDFE",
";+	c #353436",
">+	c #5D5247",
",+	c #6C614A",
"'+	c #A39376",
")+	c #E9E8F0",
"!+	c #D5D4E1",
"~+	c #4E412F",
"{+	c #695E49",
"]+	c #D3D2DF",
"^+	c #847E77",
"/+	c #9F8E6D",
"(+	c #A29276",
"_+	c #898480",
":+	c #333334",
"<+	c #4F4332",
"[+	c #504332",
"}+	c #514534",
"|+	c #9F8F70",
"1+	c #D1D0DD",
"2+	c #6B6B71",
"3+	c #6B6B72",
"4+	c #514533",
"5+	c #534734",
"6+	c #6C6C72",
"7+	c #6D6C73",
"8+	c #6C6B72",
"9+	c #847E78",
"0+	c #857F79",
"a+	c #9D8C6B",
"b+	c #574B3C",
"                                                                                                                                ",
"                                                                                                                                ",
"                                                                                                                                ",
"                                                                                                                                ",
"                                                . . . . . . . . . . . . . . . . . .                                             ",
"                                                + + @ @ @ @ @ @ @ @ @ @ @ @ @ @ + +                                             ",
"                                            . + # $ % % % % % % % % % % % % % % $ # + .                                         ",
"                                            . + $ & * * * * * * * * * * * * * * & $ + .                                         ",
"                                        . . = - % * * * * * * * * * * * * * * * * % - = . .                                     ",
"                                        . . ; - % * * * * * * * * * * * * * * * * % - ; . .                                     ",
"                                        . . ; ; $ & * * * * * * * * * * * * * * & $ ; ; . .                                     ",
"                                        . + > , $ & % * * * * * * * * * * * * % & $ , > + .                                     ",
"                                        ; > ' ' ) $ & & & & & & & & & & & & & & $ ) ' ' > ;                                     ",
"                                        ! ~ { { ] ^ ^ ^ ^ ^ ^ ^ ^ ^ ^ ^ ^ ^ ^ ^ ^ ] { { ~ !                                     ",
"                                    . / ( { _ : < [ [ [ [ [ [ [ [ [ [ [ [ [ [ [ [ < : _ { ( / .                                 ",
"                                    + } ' { _ : | 1 1 1 1 1 1 1 1 1 1 1 1 1 1 1 1 | : _ { ' } +                                 ",
"                        . . . . ; ; # $ ) 2 { : | 1 1 1 1 1 1 1 1 1 1 1 1 1 1 1 1 | : { 2 ) $ # ; ; . . . .                     ",
"                        . . + + - 3 $ & $ ) 4 5 < [ [ [ [ [ [ [ [ [ [ [ [ [ [ [ [ < 5 4 ) $ & $ 3 - + + . .                     ",
"                    . . = ; # $ % % * % & $ ) ) ^ ^ ^ ^ ^ ^ ^ ^ ^ ^ ^ ^ ^ ^ ^ ^ ^ ^ ) ) $ & % * % % $ # ; = . .                 ",
"                    . . = ; # $ % % * % & & & & & & & & & & & & & & & & & & & & & & & & & & % * % % $ # ; = . .                 ",
"                        . . + + - 3 $ & % * * * * * * * * * * * * * * * * * * * * * * * * % & $ 3 - + + . .                     ",
"                        . . . . = ; # $ % % % % % % % % % % % % % % % % % % % % % % % % % % $ # ; = . . . .                     ",
"                                . . + + @ @ @ @ - - - - - - - - - - - - - - - - - - @ @ @ @ + + . .                             ",
"                                6 6 7 8 9 9 9 9 0 a a a a a b b ; ; ; ; ; ; ; ; b b 9 9 c c d e 6 6                             ",
"                                f g h i j k k k k k k k k l m n o + ; ; ; ; + o n m p p m m q r s f                             ",
"                                f t u v l l l l l l l l l w m n o + ; ; ; ; + o n m w w x y q r z f                             ",
"                                f A B C x x x x x x x x x m D o = ; # $ $ # ; = o D m x E x F z f f                             ",
"                                f A B C x x x x x x x x x m c . ; ; $ $ $ $ ; ; . G H I E x J K f f                             ",
"                                f t u v l L M M N v l l l p 9 . ; ; $ $ $ $ ; ; . O P Q I I R S K f                             ",
"                                f g u v l L M M N v l l l p T o = ; # $ $ # ; ; U V W X Y Y R S K f                             ",
"                                6 Z B C x x x x x x x x x x x n o + ; ; ; ; + U ` W  . .X R ..K f f                             ",
"                                6 Z +.@.x x x x x x x x x x x #.D o b b b b U V W  .W W $.%.&.*.f f                             ",
"                                f =.-.;.l L M M N v l l >.b b ,.#.'.x x x H P W  .W ..).!.~.{.].*.f                             ",
"                                f g ^.a /.(.t _.:.i k /.>.<.[.}.|.I I I I Y X  .W P &.1.2.3.{.].*.f                             ",
"                                    g g a a ; ; 0 0 a >.4.H P W X X X X X X  .W 5.6.7.7.8.9.0.*.                                ",
"                                    f g ^.; ; ; ; ; V a.b.c.W  . . . . . . . .W 6.d.7.e.f.r z f                                 ",
"                                        . . . . . g.h.3.!.!.~.i.i.i.i.i.i.i.i.~.| 7.j.*.z z                                     ",
"                                        . . + + @ k.h.3.3.3.3.3.3.3.3.3.3.3.3.3.{.].*.f f f                                     ",
"                                    . . = ; # $ % % l.m.0.n.n.n.n.n.n.n.n.n.n.n.*.*.                                            ",
"                                    + + - 3 $ & % % 3 - g g g g g g g g g g g g g g                                             ",
"                                . + # $ % % & $ & & % % - o.p.q.q.q.q.p.o.; ; ; ; ^.. .                                         ",
"                                . + $ & % % r.s.t.u.v.w.3 - $ $ & & & $ 3 - ; ; ; ; . .                                         ",
"                            . . = - % % x.y.B B z.l m m A.$ $ & % * * * % % $ # ; ; . .                                         ",
"                            . + ; 3 % B.C.D.E.E.F.w G.4.H.& I.J.% * * * * % $ # ; ; . .                                         ",
"                        . . = ; # $ * K.h.!.W Q |.G.L.F r M.N.h.J.& & & & $ - ; ; ; . 6 f f                                     ",
"                        . . ; - $ & % O.3.i. .X c.P.Q.z R.S.3.3.T.U.U.U.U.U.V.V.; ; W.X.f f                                     ",
"                        . + # $ % % x.C.3.i. . .Y.N.n.A Z.`.!.~. +W W W W %.| .+++++.+.+*.f                                     ",
"                        . + # & * % @+#+h.!.$+$+!.h.%+Q.B &+*+=+$+ . . .$+-+| ].*.*.].].*.f                                     ",
"                    . . = ; $ & * % ;+7 #+>+!.!.>+%+h i u ,+&+'+=+)+ .$+!+| j.*.f f *.*.                                        ",
"                    . . ; ; $ & * % @ 6 ~+#+h.h.n.t {+u u ,+@.E.*+=+$+-+]+e.*.f f f f f                                         ",
"                    . . ; ; $ & * % @ . 6 7 #+n.f z ^+q C @./+/+E.(+]+]+_+f.z f                                                 ",
"                    6 :+= ; $ & * % ;+6 6 7 <+[+[+}+r R.C @.@.@.@.|+1+1+f.r z f                                                 ",
"                    f ~+:++ # & * % @+f f <+2+3+3+2+}+4+u u u u u ,+|+|+5+z                                                     ",
"                    f f 7 8 # $ % % }+z z }+6+7+8+2+[+t h i u u u ,+&+&+D.n.                                                    ",
"                        f ~+8 @ $ s.r 9+9+9+0+9+}+[+f f t Q.B @.@.&+*+!.3.h.n.f                                                 ",
"                        f f 7 8 # t.r 9+9+9+9+r z f f f f A a+@.&+(+3.~.~.3.n.f                                                 ",
"                            f ~+8 8 s z z z z z             A b+e.{.1 1 1 {.*.f                                                 ",
"                            f f 6 6 f f f f f f             f *.].[ [ [ [ ].*.f                                                 ",
"                                                                *.*.*.*.*.*.                                                    ",
"                                                                f f f f f f                                                     ",
"                                                                                                                                ",
"                                                                                                                                ",
"                                                                                                                                ",
"                                                                                                                                "};
