/* XPM */
static char * villano_izquierda1_xpm[] = {
"64 64 184 2",
"  	c None",
". 	c #323234",
"+ 	c #333335",
"@ 	c #343436",
"# 	c #535355",
"$ 	c #545456",
"% 	c #6C6C6D",
"& 	c #555557",
"* 	c #6D6D6E",
"= 	c #434343",
"- 	c #454545",
"; 	c #444444",
"> 	c #464746",
", 	c #474847",
"' 	c #91A285",
") 	c #565757",
"! 	c #474846",
"~ 	c #494B48",
"{ 	c #92A486",
"] 	c #5B5C5D",
"^ 	c #59595C",
"/ 	c #363837",
"( 	c #93A587",
"_ 	c #95A68A",
": 	c #D0D0DD",
"< 	c #D1D0DE",
"[ 	c #373838",
"} 	c #D2D1DF",
"| 	c #D3D2E0",
"1 	c #545455",
"2 	c #585959",
"3 	c #464646",
"4 	c #91A385",
"5 	c #94A589",
"6 	c #353435",
"7 	c #484745",
"8 	c #464544",
"9 	c #454544",
"0 	c #343335",
"a 	c #343334",
"b 	c #333234",
"c 	c #77694F",
"d 	c #796B50",
"e 	c #AB9872",
"f 	c #7A6C51",
"g 	c #AA9871",
"h 	c #524532",
"i 	c #AC9972",
"j 	c #786A50",
"k 	c #786A4F",
"l 	c #685D48",
"m 	c #675C47",
"n 	c #4F4230",
"o 	c #4F422F",
"p 	c #363536",
"q 	c #7C6D52",
"r 	c #AB9871",
"s 	c #AD9A73",
"t 	c #6A5F49",
"u 	c #695E49",
"v 	c #504330",
"w 	c #3B3937",
"x 	c #564834",
"y 	c #998C73",
"z 	c #978A72",
"A 	c #514532",
"B 	c #383736",
"C 	c #AB9972",
"D 	c #5B5040",
"E 	c #584D3E",
"F 	c #4F432F",
"G 	c #524631",
"H 	c #AF9D78",
"I 	c #FCFBFB",
"J 	c #FBFBFA",
"K 	c #3B6528",
"L 	c #325F0D",
"M 	c #6A5E49",
"N 	c #534632",
"O 	c #7A6C50",
"P 	c #414142",
"Q 	c #454444",
"R 	c #AE9C77",
"S 	c #FBFBFB",
"T 	c #FAFBFA",
"U 	c #3A6527",
"V 	c #31600C",
"W 	c #FAFAFA",
"X 	c #FDFDFD",
"Y 	c #FEFDFD",
"Z 	c #FCFCFB",
"` 	c #3F672B",
" .	c #295E01",
"..	c #4A4A4C",
"+.	c #4B4B4C",
"@.	c #3E3E40",
"#.	c #49494B",
"$.	c #FFFFFF",
"%.	c #B1A07D",
"&.	c #376215",
"*.	c #376114",
"=.	c #54493B",
"-.	c #CFCEDC",
";.	c #D2D1DE",
">.	c #E6E5ED",
",.	c #E4E3EB",
"'.	c #5E5448",
").	c #60564A",
"!.	c #55493B",
"~.	c #D0CEDC",
"{.	c #E5E4EB",
"].	c #5B5145",
"^.	c #5D5347",
"/.	c #AE9C78",
"(.	c #7F725A",
"_.	c #7E7159",
":.	c #796C51",
"<.	c #574B3D",
"[.	c #9A8E77",
"}.	c #9D907C",
"|.	c #D0CFDC",
"1.	c #9D917C",
"2.	c #9F937E",
"3.	c #998D77",
"4.	c #9C907B",
"5.	c #9D927D",
"6.	c #B19F7C",
"7.	c #AF9C77",
"8.	c #988B73",
"9.	c #5A4F44",
"0.	c #D3D1DF",
"a.	c #E8E7EF",
"b.	c #E9E8EF",
"c.	c #E7E6ED",
"d.	c #434142",
"e.	c #393736",
"f.	c #514432",
"g.	c #333334",
"h.	c #4E412F",
"i.	c #564B3C",
"j.	c #564B3D",
"k.	c #3F3E40",
"l.	c #504331",
"m.	c #4F4331",
"n.	c #353436",
"o.	c #444443",
"p.	c #545355",
"q.	c #555456",
"r.	c #6F6E6E",
"s.	c #6E6E6E",
"t.	c #AB9873",
"u.	c #AC9973",
"v.	c #494746",
"w.	c #6D6C6D",
"x.	c #716F6E",
"y.	c #504432",
"z.	c #534634",
"A.	c #4F4330",
"B.	c #504332",
"C.	c #5C5C5E",
"D.	c #584D3F",
"E.	c #7B6D52",
"F.	c #FCFCFC",
"G.	c #9B8F79",
"H.	c #FDFDFE",
"I.	c #9B8F78",
"J.	c #534633",
"K.	c #514431",
"L.	c #867A61",
"M.	c #554A3B",
"N.	c #584C3D",
"O.	c #524632",
"P.	c #877B61",
"Q.	c #8A7E66",
"R.	c #8C816B",
"S.	c #897E66",
"T.	c #6A5F4A",
"U.	c #353537",
"V.	c #978A73",
"W.	c #6B5F4A",
"X.	c #6C6B6C",
"Y.	c #6B6B6C",
"Z.	c #9A8D77",
"`.	c #D1D0DD",
"                                                                                                                                ",
"                                                                                                                                ",
"                                                                                                                                ",
"                                                                                                                                ",
"                                                . . . . . . . . . . . . . . . . . .                                             ",
"                                                + + @ @ @ @ @ @ @ @ @ @ @ @ @ @ + +                                             ",
"                                            . + # $ % % % % % % % % % % % % % % $ # + .                                         ",
"                                            . + $ & * * * * * * * * * * * * * * & $ + .                                         ",
"                                        . . = - % * * * * * * * * * * * * * * * * % - = . .                                     ",
"                                        . . ; - % * * * * * * * * * * * * * * * * % - ; . .                                     ",
"                                        . . ; ; $ & * * * * * * * * * * * * * * & $ ; ; . .                                     ",
"                                        . + > , $ & % * * * * * * * * * * * * % & $ , > + .                                     ",
"                                        ; > ' ' ) $ & & & & & & & & & & & & & & $ ) ' ' > ;                                     ",
"                                        ! ~ { { ] ^ ^ ^ ^ ^ ^ ^ ^ ^ ^ ^ ^ ^ ^ ^ ^ ] { { ~ !                                     ",
"                                    . / ' { ( _ : < < < < < < < < < < < < < < < < : _ ( { ' / .                                 ",
"                                    + [ ' { ( _ } | | | | | | | | | | | | | | | | } _ ( { ' [ +                                 ",
"                        . . . . ; ; # 1 ) 2 { _ } | | | | | | | | | | | | | | | | } _ { 2 ) 1 # ; ; . . . .                     ",
"                        . . + + - 3 $ & $ ) 4 5 : < < < < < < < < < < < < < < < < : 5 4 ) $ & $ 3 - + + . .                     ",
"                    . . = ; # $ % % * % & $ ) ) ^ ^ ^ ^ ^ ^ ^ ^ ^ ^ ^ ^ ^ ^ ^ ^ ^ ^ ) ) $ & % * % % $ # ; = . .                 ",
"                    . . = ; # $ % % * % & & & & & & & & & & & & & & & & & & & & & & & & & & % * % % $ # ; = . .                 ",
"                        . . + + - 3 $ & % * * * * * * * * * * * * * * * * * * * * * * * * % & $ 3 - + + . .                     ",
"                        . . . . = ; # $ % % % % % % % % % % % % % % % % % % % % % % % % % % $ # ; = . . . .                     ",
"                                . . + + @ @ @ @ - - - - - - - - - - - - - - - - - - @ @ @ @ + + . .                             ",
"                                . . . . . . 6 6 7 7 8 8 7 7 ; ; 7 7 7 7 8 8 8 8 8 9 6 6 6 6 0 a b b                             ",
"                                . . = = . 6 c d e e f f e g h h g i i e f j j j j j j j j k l m n o                             ",
"                                . . ; ; + p c d i i q q r g h h i s s i q f f f f f f f f f t u v o                             ",
"                                . . ; ; # # p w i s i r x h o h i s s s i i i i i i i i i i y z A o                             ",
"                                . . ; ; $ # + B C s s i D E F G i s s s i i i i i i i i i i y z A o                             ",
"                                . . ; ; $ # + B C s s H I J K L C s s i q f f f t M N N O f t u v o                             ",
"                                . . ; ; # # P Q R H s H S T U V C s s i q f f f t M N N O f t u v o                             ",
"                                . . ; ; + P W X Y Z H i ` U  .V C s s s i i i i i i i i i i y z A o                             ",
"                                b + ..+.@.#.S X $.Y %.R &.V V *.C s i i i i i i i i i i i i y z A o                             ",
"                                o =.-.;.>.,.'.).X $.Y Z R C C C s i q f f f f f t M N N O f t u v o                             ",
"                                o !.~.;.>.{.].^.S X $.Y %.H H H H /.(._.f f f f t M N N d :.l m v o                             ",
"                                    !.<.[.}.|.|.1.2.X $.Y Y Y Y Y Y X I /.i i i i i i C y z h v                                 ",
"                                    o A z 3.|.|.4.5.X $.$.$.$.$.$.$.$.X 6.7.7.R i C C e 8.z A o                                 ",
"                                        A h !.9.|.0.a.b.b.b.b.b.b.b.b.a.c.c.c.{.d.B B e.f.A                                     ",
"                                        o o o !.~.;.>.>.>.>.>.>.>.>.>.>.>.>.>.,.@.. . g.h.o                                     ",
"                                                !.!.i.i.i.i.i.i.i.i.i.i.i.j.k.@.; ; ; = g.b                                     ",
"                                                n n n n n n n n n n l.l.l.m.n.@ ; ; - - + .                                     ",
"                                            . . o.; ; ; ; Q p.1 1 q.% % % % % % $ $ % % - = . .                                 ",
"                                            . . ; ; ; ; - 3 $ & & & * * r.r.r.s.$ $ * % 3 ; + .                                 ",
"                                            . . ; ; # $ % % * * * * * r.t.u.u.e v.3 % * $ # ; = . .                             ",
"                                            . . ; ; # $ % * * * % w.r.x.e i i e 7 - % * & $ ; ; . .                             ",
"                                            . . ; ; ; - $ & & q.y.z.e e q f t M A.B.% * & $ ; ; . .                             ",
"                                            . . o.; +.+.C.C.$ 1 D.D R /.E.:.l m v l.% * & $ ; ; + .                             ",
"                                                n =.-.} F.S D.D.J X Y Z G.z h v o l.% * & $ ; ; ; = . .                         ",
"                                                o !.~.} H.F.E E F.$.$.X I.z J.K.o l.% * & $ - ; ; ; . .                         ",
"                                                    !.9.} } !.i.c.b.b.c.E J.L.L.K.l.% * * % $ # ; ; . .                         ",
"                                                    v M.|.|.9.].,.>.>.,.N.O.P.P.K.l.% * * * & $ ; ; . .                         ",
"                                                o v m l Q.R.|.~.].i.i.N.L.P.t l v n q.& * * & $ ; ; . .                         ",
"                                                !.M.l t P.S.|.~.<.A A J.P.P.t l v n p.q.* * $ # ; = . .                         ",
"                                            o !.~.|.Q.P.O.K.!.<.z 8.8.z T.t P.P.K.o n y.% % U.+ . .                             ",
"                                            o !.< ;.R.S.K.o o A z 8.8.V.W.T.Q.S.i.!.o l.X.Y.@ . . .                             ",
"                                            o !.< | ;.|.!.o     A h u W.V.Z.`.;.< ~.!.o n.@                                     ",
"                                            o !.~.< < ~.!.o     o v m u Z.4.;.| < ~.!.o b .                                     ",
"                                                !.!.!.!.            v M.|.;.| < 9.!.                                            ",
"                                                o o o o             o !.~.< < ~.!.o                                             ",
"                                                                        !.!.!.!.                                                ",
"                                                                        o o o o                                                 ",
"                                                                                                                                ",
"                                                                                                                                ",
"                                                                                                                                ",
"                                                                                                                                "};
