/* XPM */
static char * villano_trasera2_xpm[] = {
"64 64 104 2",
"  	c None",
". 	c #323234",
"+ 	c #333335",
"@ 	c #343436",
"# 	c #535355",
"$ 	c #545456",
"% 	c #6C6C6D",
"& 	c #555557",
"* 	c #6D6D6E",
"= 	c #434343",
"- 	c #454545",
"; 	c #444444",
"> 	c #484848",
", 	c #A4A4A6",
"' 	c #575759",
") 	c #4C4C4C",
"! 	c #A6A6A8",
"~ 	c #5C5C5E",
"{ 	c #59595C",
"] 	c #38383A",
"^ 	c #A7A7A9",
"/ 	c #A8A8AA",
"( 	c #D1D0DD",
"_ 	c #D1D0DE",
": 	c #39393A",
"< 	c #D2D1DF",
"[ 	c #D3D2E0",
"} 	c #59595B",
"| 	c #464646",
"1 	c #A5A5A7",
"2 	c #333234",
"3 	c #333334",
"4 	c #4F422F",
"5 	c #4E412F",
"6 	c #383636",
"7 	c #373636",
"8 	c #383736",
"9 	c #393737",
"0 	c #484745",
"a 	c #464544",
"b 	c #524531",
"c 	c #9C8C6B",
"d 	c #9E8D6C",
"e 	c #AB9872",
"f 	c #AB9972",
"g 	c #AC9972",
"h 	c #7A6C51",
"i 	c #776A50",
"j 	c #9D8C6C",
"k 	c #9E8E6D",
"l 	c #AD9A73",
"m 	c #7C6D52",
"n 	c #786A50",
"o 	c #4A4846",
"p 	c #504330",
"q 	c #70644C",
"r 	c #70644D",
"s 	c #AA9872",
"t 	c #4C4A47",
"u 	c #9F8E6D",
"v 	c #9D8C6B",
"w 	c #AC9A73",
"x 	c #4F4330",
"y 	c #615845",
"z 	c #615945",
"A 	c #72654E",
"B 	c #A08F6D",
"C 	c #494846",
"D 	c #5E5643",
"E 	c #5F5744",
"F 	c #6F634C",
"G 	c #71654D",
"H 	c #9D8D6C",
"I 	c #454544",
"J 	c #464644",
"K 	c #6D624B",
"L 	c #6E624B",
"M 	c #514431",
"N 	c #877B61",
"O 	c #72664E",
"P 	c #6E634C",
"Q 	c #6E624C",
"R 	c #363535",
"S 	c #343435",
"T 	c #504431",
"U 	c #867A61",
"V 	c #353435",
"W 	c #343334",
"X 	c #514531",
"Y 	c #887C62",
"Z 	c #4F4230",
"` 	c #887C61",
" .	c #444443",
"..	c #454443",
"+.	c #4F4231",
"@.	c #504331",
"#.	c #545455",
"$.	c #555456",
"%.	c #3C3B3E",
"&.	c #3C3C3F",
"*.	c #54493B",
"=.	c #CFCEDC",
"-.	c #55493B",
";.	c #D0CEDC",
"                                                                                                                                ",
"                                                                                                                                ",
"                                                . . . . . . . . . . . . . . . . . .                                             ",
"                                                + + @ @ @ @ @ @ @ @ @ @ @ @ @ @ + +                                             ",
"                                            . + # $ % % % % % % % % % % % % % % $ # + .                                         ",
"                                            . + $ & * * * * * * * * * * * * * * & $ + .                                         ",
"                                        . . = - % * * * * * * * * * * * * * * * * % - = . .                                     ",
"                                        . . ; - % * * * * * * * * * * * * * * * * % - ; . .                                     ",
"                                        . . ; ; $ & * * * * * * * * * * * * * * & $ ; ; . .                                     ",
"                                        . + > > $ & % * * * * * * * * * * * * % & $ > > + .                                     ",
"                                        ; > , , ' $ & & & & & & & & & & & & & & $ ' , , > ;                                     ",
"                                        > ) ! ! ~ { { { { { { { { { { { { { { { { ~ ! ! ) >                                     ",
"                                    . ] , ! ^ / ( _ _ _ _ _ _ _ _ _ _ _ _ _ _ _ _ ( / ^ ! , ] .                                 ",
"                                    + : , ! ^ / < [ [ [ [ [ [ [ [ [ [ [ [ [ [ [ [ < / ^ ! , : +                                 ",
"                        . . . . ; ; # $ ' } ! / < [ [ [ [ [ [ [ [ [ [ [ [ [ [ [ [ < / ! } ' $ # ; ; . . . .                     ",
"                        . . + + - | $ & $ ' 1 ^ ( _ _ _ _ _ _ _ _ _ _ _ _ _ _ _ _ ( ^ 1 ' $ & $ | - + + . .                     ",
"                    . . = ; # $ % % * % & $ ' ' { { { { { { { { { { { { { { { { { { ' ' $ & % * % % $ # ; = . .                 ",
"                    . . = ; $ & % * * * & & & & & & & & & & & & & & & & & & & & & & & & & & * * * % & $ ; = . .                 ",
"                        . + # $ & & * * * * * * * * * * * * * * * * * * * * * * * * * * * * * * & & $ # + .                     ",
"                        . + # # # $ % % * * * * * * * * * * * * * * * * * * * * * * * * * * % % $ # # # + .                     ",
"                            + + + + - | $ & * * * * * * * * * * * * * * * * * * * * * * & $ | - + + + +                         ",
"                            . . 2 3 = ; # $ % % % % % % % % % % % % % % % % % % % % % % $ # ; = 3 2 . .                         ",
"                                4 5 3 . + + @ @ - - - - - - - - - - - - - - - - - - @ @ + + . 3 5 4                             ",
"                                4 4 6 7 8 8 8 9 0 0 0 0 a a 0 0 a a ; ; a a 0 0 0 0 9 8 8 8 7 6 4 4                             ",
"                                4 b c d e f f f g g g e h h e e h i a a i h e g g g f f f e d c b 4                             ",
"                                4 b j k g g g g l l l g m m g g h n o o i h g l l l g g g g k j b 4                             ",
"                            4 4 4 p q r h h h m g l l l g g l g h h e s o o g l l g m h h h r q p 4 4 4                         ",
"                            4 4 4 p q r h h h m e g g g l l l g m m g g t t s g g e m h h h r q p 4 4 4                         ",
"                                4 b j d d u g e m h h m g l l l g g l l g s t o h m e g u d d j b 4                             ",
"                                4 b v d d u w g m h h m g l l l l l l l l g t o i h e f k d d v b 4                             ",
"                            4 4 4 x y z r A u B g g g g l l l l l l l l l l g s o a 0 C r r z y x 4 4 4                         ",
"                            4 4 4 x D E F G H k g g g g g g l l l l l l g g g e C I I J K L E D x 4 4 4                         ",
"                                    x M N N G r G G G G G O u u u u u u O G G G P Q Q K R S 3 3                                 ",
"                                    4 T U N F Q r r r r r A d u u u u d A r r r r r Q L V 2 . .                                 ",
"                                    2 W T M p X N Y Y Y d d u u u u u u d d Y Y Y N X p 4 5 2 .                                 ",
"                                    . 3 5 4 Z T U N N ` H d d d d d d d d H ` N N U T Z 4 5 3 .                                 ",
"                                . . = = 3 3  ...T M M M b b b b b b b b b b M M M T .. .3 3 = = . .                             ",
"                                . . ; ; . . =  .+.Z Z Z @.@.@.@.@.@.@.@.@.@.Z Z Z +. .= . . ; ; . .                             ",
"                                . . ; ; . . . + # #.#.$.% % % % % % % % % % $.#.#.# + . . . ; ; . .                             ",
"                                . + = = + . . + # $ $ & % * * * * * * * * % & $ $ # + . . + = = + .                             ",
"                            . . = = + + = ; ; ; $ $ $ $ & & & & & & & & & & $ $ $ $ ; ; ; = + + = = . .                         ",
"                            . . ; ; . . ; ; ; - $ $ $ $ & & & & & & & & & & $ $ $ $ - ; ; ; . . ; ; . .                         ",
"                            . . ; ; . . ; ; # $ $ $ $ & % * * * * * * * * % & $ $ $ $ # ; ; . . ; ; . .                         ",
"                            . . ; ; + + ; ; $ $ $ $ & & * * * * * * * * * * & & $ $ $ $ ; ; + + ; ; . .                         ",
"                            . . ; ; ; ; ; ; $ $ $ & % * * * * * * * * * * * * % & $ $ $ ; ; ; ; ; ; . .                         ",
"                            . + ; ; ; ; ; ; $ $ $ & * * * * * * * * * * * * * * & $ $ $ ; ; ; ; ; ; + .                         ",
"                        . . = ; ; ; ; ; ; ; $ $ $ & * * * * * * * * * * * * * * & $ $ $ ; ; ; ; ; ; ; = . .                     ",
"                        . . ; ; ; ; ; ; ; - $ $ & & * * * * * * * * * * * * * * & & $ $ - ; ; ; ; ; ; ; . .                     ",
"                        . . ; ; ; ; ; ; # $ $ & % * * * * * * * * * * * * * * * * % & $ $ # ; ; ; ; ; ; . .                     ",
"                        . . = ; ; ; ; ; $ $ $ & * * * * * * * * * * * * * * * * * * & $ $ $ ; ; ; ; ; = . .                     ",
"                            . . . + ; ; $ $ $ & * * * * & & & & & & & & & & * * * * & $ $ $ ; ; + . . .                         ",
"                            . . 2 3 = ; # # # $ % % % % $ # # # # # # # # $ % % % % $ # # # ; = . . . .                         ",
"                                4 5 3 . + + + + @ @ @ @ + + + + + + + + + + @ @ @ @ + + + + . .                                 ",
"                                4 4 W 2 2 2 2 2 2 2 2 2 2 2 2 2 . . 2 3 %.&.&.%.3 2 . . . . . .                                 ",
"                                    4 4 4 4 4 4 4 4 4 4 4 4 4 4     4 *.=._ _ =.*.4                                             ",
"                                    4 4 4 4 4 4 4 4 4 4 4 4 4 4     4 -.;._ _ ;.-.4                                             ",
"                                                    4 4 4 4             -.-.-.-.                                                ",
"                                                    4 4 4 4             4 4 4 4                                                 ",
"                                                                                                                                ",
"                                                                                                                                ",
"                                                                                                                                ",
"                                                                                                                                ",
"                                                                                                                                ",
"                                                                                                                                "};
