/* XPM */
static char * villano_izquierda2_xpm[] = {
"64 64 182 2",
"  	c None",
". 	c #323234",
"+ 	c #333335",
"@ 	c #343436",
"# 	c #535355",
"$ 	c #545456",
"% 	c #6C6C6D",
"& 	c #555557",
"* 	c #6D6D6E",
"= 	c #434343",
"- 	c #454545",
"; 	c #444444",
"> 	c #464746",
", 	c #474847",
"' 	c #91A285",
") 	c #565757",
"! 	c #474846",
"~ 	c #494B48",
"{ 	c #92A486",
"] 	c #5B5C5D",
"^ 	c #59595C",
"/ 	c #363837",
"( 	c #93A587",
"_ 	c #95A68A",
": 	c #D0D0DD",
"< 	c #D1D0DE",
"[ 	c #373838",
"} 	c #D2D1DF",
"| 	c #D3D2E0",
"1 	c #545455",
"2 	c #585959",
"3 	c #464646",
"4 	c #91A385",
"5 	c #94A589",
"6 	c #353435",
"7 	c #484745",
"8 	c #464544",
"9 	c #454544",
"0 	c #343335",
"a 	c #343334",
"b 	c #333234",
"c 	c #77694F",
"d 	c #796B50",
"e 	c #AB9872",
"f 	c #AC9972",
"g 	c #AA9871",
"h 	c #524532",
"i 	c #7A6C51",
"j 	c #786A50",
"k 	c #786A4F",
"l 	c #685D48",
"m 	c #675C47",
"n 	c #4F4230",
"o 	c #4F422F",
"p 	c #363536",
"q 	c #AD9A73",
"r 	c #7C6D52",
"s 	c #6A5E49",
"t 	c #695E49",
"u 	c #504330",
"v 	c #3B3937",
"w 	c #564834",
"x 	c #938872",
"y 	c #918671",
"z 	c #514432",
"A 	c #383736",
"B 	c #AB9972",
"C 	c #5B5040",
"D 	c #584D3E",
"E 	c #4F432F",
"F 	c #524631",
"G 	c #AF9D78",
"H 	c #FCFBFB",
"I 	c #FBFBFA",
"J 	c #3B6528",
"K 	c #325F0D",
"L 	c #6A5F49",
"M 	c #534632",
"N 	c #7A6C50",
"O 	c #414142",
"P 	c #454444",
"Q 	c #AE9C77",
"R 	c #FBFBFB",
"S 	c #FAFBFA",
"T 	c #3A6527",
"U 	c #31600C",
"V 	c #FAFAFA",
"W 	c #FDFDFD",
"X 	c #FEFDFD",
"Y 	c #FCFCFB",
"Z 	c #3F672B",
"` 	c #295E01",
" .	c #4A4A4C",
"..	c #4B4B4C",
"+.	c #3E3E40",
"@.	c #49494B",
"#.	c #FFFFFF",
"$.	c #B1A07D",
"%.	c #376215",
"&.	c #376114",
"*.	c #54493B",
"=.	c #CFCEDC",
"-.	c #D2D1DE",
";.	c #E6E5ED",
">.	c #E4E3EB",
",.	c #5E5448",
"'.	c #60564A",
").	c #55493B",
"!.	c #D0CEDC",
"~.	c #E5E4EB",
"{.	c #5B5145",
"].	c #5D5347",
"^.	c #AE9C78",
"/.	c #7F725A",
"(.	c #7E7159",
"_.	c #796B51",
":.	c #574B3D",
"<.	c #948A77",
"[.	c #978D7B",
"}.	c #D0CFDC",
"|.	c #988E7C",
"1.	c #9A907D",
"2.	c #928671",
"3.	c #948976",
"4.	c #968C7A",
"5.	c #B19F7C",
"6.	c #AF9C77",
"7.	c #938772",
"8.	c #5A4F44",
"9.	c #E8E7EF",
"0.	c #E9E8EF",
"a.	c #E7E6ED",
"b.	c #434142",
"c.	c #393736",
"d.	c #333334",
"e.	c #4E412F",
"f.	c #564B3C",
"g.	c #564B3D",
"h.	c #3F3E40",
"i.	c #4E4230",
"j.	c #444443",
"k.	c #545355",
"l.	c #575656",
"m.	c #575657",
"n.	c #555456",
"o.	c #AA9872",
"p.	c #6A5F4A",
"q.	c #675C48",
"r.	c #5B5B5D",
"s.	c #5A5A5D",
"t.	c #6C604A",
"u.	c #504431",
"v.	c #AB9871",
"w.	c #504332",
"x.	c #5C5C5E",
"y.	c #626264",
"z.	c #7D7058",
"A.	c #534532",
"B.	c #504331",
"C.	c #FCFCFC",
"D.	c #FCFCFD",
"E.	c #FDFDFE",
"F.	c #FEFEFE",
"G.	c #E8E8EF",
"H.	c #D5D4E1",
"I.	c #E9E8F0",
"J.	c #D3D1DF",
"K.	c #6B614F",
"L.	c #6F6656",
"M.	c #D4D3E1",
"N.	c #958B77",
"O.	c #928772",
"P.	c #6D6250",
"Q.	c #D0CFDD",
"R.	c #514533",
"S.	c #554A3B",
"T.	c #6C614F",
"U.	c #6B6B71",
"V.	c #6C6C72",
"W.	c #918672",
"X.	c #565557",
"Y.	c #958A77",
"                                                                                                                                ",
"                                                                                                                                ",
"                                                . . . . . . . . . . . . . . . . . .                                             ",
"                                                + + @ @ @ @ @ @ @ @ @ @ @ @ @ @ + +                                             ",
"                                            . + # $ % % % % % % % % % % % % % % $ # + .                                         ",
"                                            . + $ & * * * * * * * * * * * * * * & $ + .                                         ",
"                                        . . = - % * * * * * * * * * * * * * * * * % - = . .                                     ",
"                                        . . ; - % * * * * * * * * * * * * * * * * % - ; . .                                     ",
"                                        . . ; ; $ & * * * * * * * * * * * * * * & $ ; ; . .                                     ",
"                                        . + > , $ & % * * * * * * * * * * * * % & $ , > + .                                     ",
"                                        ; > ' ' ) $ & & & & & & & & & & & & & & $ ) ' ' > ;                                     ",
"                                        ! ~ { { ] ^ ^ ^ ^ ^ ^ ^ ^ ^ ^ ^ ^ ^ ^ ^ ^ ] { { ~ !                                     ",
"                                    . / ' { ( _ : < < < < < < < < < < < < < < < < : _ ( { ' / .                                 ",
"                                    + [ ' { ( _ } | | | | | | | | | | | | | | | | } _ ( { ' [ +                                 ",
"                        . . . . ; ; # 1 ) 2 { _ } | | | | | | | | | | | | | | | | } _ { 2 ) 1 # ; ; . . . .                     ",
"                        . . + + - 3 $ & $ ) 4 5 : < < < < < < < < < < < < < < < < : 5 4 ) $ & $ 3 - + + . .                     ",
"                    . . = ; # $ % % * % & $ ) ) ^ ^ ^ ^ ^ ^ ^ ^ ^ ^ ^ ^ ^ ^ ^ ^ ^ ^ ) ) $ & % * % % $ # ; = . .                 ",
"                    . . = ; # $ % % * % & & & & & & & & & & & & & & & & & & & & & & & & & & % * % % $ # ; = . .                 ",
"                        . . + + - 3 $ & % * * * * * * * * * * * * * * * * * * * * * * * * % & $ 3 - + + . .                     ",
"                        . . . . = ; # $ % % % % % % % % % % % % % % % % % % % % % % % % % % $ # ; = . . . .                     ",
"                                . . + + @ @ @ @ - - - - - - - - - - - - - - - - - - @ @ @ @ + + . .                             ",
"                                . . . . . . 6 6 7 7 7 7 7 7 ; ; 7 7 7 7 8 8 8 8 8 9 6 6 6 6 0 a b b                             ",
"                                . . = = . 6 c d e f f f f g h h g f f e i j j j j j j j j k l m n o                             ",
"                                . . ; ; + p c d f q q q f g h h f q q f r i i i i i i i i i s t u o                             ",
"                                . . ; ; # # p v f q q f w h o h f q q q f f f f f f f f f f x y z o                             ",
"                                . . ; ; $ # + A B q q f C D E F f q q q f f f f f f f f f f x y z o                             ",
"                                . . ; ; $ # + A B q q G H I J K B q q f r i i i L s M M N i s t u o                             ",
"                                . . ; ; # # O P Q G q G R S T U B q q f r i i i L s M M N i s t u o                             ",
"                                . . ; ; + O V W X Y G f Z T ` U B q q q f f f f f f f f f f x y z o                             ",
"                                b +  ...+.@.R W #.X $.Q %.U U &.B q f f f f f f f f f f f f x y z o                             ",
"                                o *.=.-.;.>.,.'.W #.X Y Q B B B q f r i i i i i L s M M N i s t u o                             ",
"                                o ).!.-.;.~.{.].R W #.X $.G G G G ^./.(.i i i i L s M M d _.l m u o                             ",
"                                    ).:.<.[.}.}.|.1.W #.X X X X X X W H ^.f f f f f f e x 2.h u                                 ",
"                                    o z y 3.}.}.4.|.W #.#.#.#.#.#.#.#.W 5.6.6.Q f B B e 7.y z o                                 ",
"                                        z z ).8.}.} 9.0.0.0.0.0.0.0.0.9.a.a.a.~.b.A A c.z z                                     ",
"                                        o o o ).!.-.;.;.;.;.;.;.;.;.;.;.;.;.;.>.+.. . d.e.o                                     ",
"                                                ).).f.f.f.f.f.f.f.f.f.f.f.g.h.+.; ; ; = d.b                                     ",
"                                                n n n n n n n n n n n n n i.0 + ; ; ; ; + +                                     ",
"                                            . . j.; ; ; ; P k.1 1 1 1 k.P P # # $ $ $ $ # # + .                                 ",
"                                            . . ; ; ; ; - 3 $ & & & $ $ - - l.m.n.$ $ $ & $ + .                                 ",
"                                            . . ; ; # $ % % * * * % & $ $ l.o.e p.q.- 3 % % - = . .                             ",
"                                            . . ; ; # $ % * * * * % r.s.$ l.e e t.t 9 - % % 3 ; . .                             ",
"                                            . . ; ; ; - $ & & & & r.>.>.g.u.N r e v.h w.% * $ # + .                             ",
"                                            . . j.; ....x.x.x.x.x.y.;.;.f.u z./.^.Q A.B.% * & # + .                             ",
"                                                n *.=.} C.W W W W D.9.;.f.D R W X R D B.% * & $ ; = . .                         ",
"                                                o ).!.} E.F.#.#.#.F.G.;.f.D C.#.#.C.D B.% * & $ ; ; . .                         ",
"                                                    ).8.} H.F.#.I.G.9.;.f.f.a.0.0.a.f.B.% * & $ ; ; . .                         ",
"                                                    o ).}.J.E.F.9.9.a.~.D D >.;.;.>.f.B.% % & $ ; ; . .                         ",
"                                                    o u K.L.J.M.| } [.N.O.y D f.f.f.o n n.& $ $ ; ; . .                         ",
"                                                    o u t P.}.< < Q.3.O.O.y z o w.w.z R.1 $ $ $ ; ; . .                         ",
"                                                    o z y y :.S.K.T.t t t t u w.U.V.W.W.X.$ $ $ ; ; . .                         ",
"                                                    o z 3.3.z u t t t t T.K.u w.U.V.W.W.X.$ $ # ; = . .                         ",
"                                                    o ).}.}.).z y O.O.3.Q.}.).o w.w.z R.1 $ - ; + .                             ",
"                                                    o ).!.!.).z 3.Y.Y.4.-.< ).o o o o n # # ; = . .                             ",
"                                                        ).).o ).}.-.-.-.| < ).o         + + . .                                 ",
"                                                        o o o ).!.< < < < !.).o         . . . .                                 ",
"                                                                ).).).).).).                                                    ",
"                                                                o o o o o o                                                     ",
"                                                                                                                                ",
"                                                                                                                                ",
"                                                                                                                                ",
"                                                                                                                                ",
"                                                                                                                                ",
"                                                                                                                                "};
