/* XPM */
static char * villano_frontal1_xpm[] = {
"64 64 189 2",
"  	c None",
". 	c #323234",
"+ 	c #333335",
"@ 	c #343436",
"# 	c #535355",
"$ 	c #545456",
"% 	c #6C6C6D",
"& 	c #555557",
"* 	c #6D6D6E",
"= 	c #434343",
"- 	c #454545",
"; 	c #444444",
"> 	c #464746",
", 	c #474847",
"' 	c #91A285",
") 	c #565757",
"! 	c #474846",
"~ 	c #494B48",
"{ 	c #92A486",
"] 	c #5B5C5D",
"^ 	c #59595C",
"/ 	c #363837",
"( 	c #93A587",
"_ 	c #95A68A",
": 	c #D0D0DD",
"< 	c #D1D0DE",
"[ 	c #373838",
"} 	c #D2D1DF",
"| 	c #D3D2E0",
"1 	c #545455",
"2 	c #585959",
"3 	c #464646",
"4 	c #91A385",
"5 	c #94A589",
"6 	c #333234",
"7 	c #343335",
"8 	c #353435",
"9 	c #343435",
"0 	c #484745",
"a 	c #464544",
"b 	c #444443",
"c 	c #393737",
"d 	c #383736",
"e 	c #4F422F",
"f 	c #4F4230",
"g 	c #695E48",
"h 	c #695F49",
"i 	c #756A56",
"j 	c #746956",
"k 	c #AA9771",
"l 	c #AB9872",
"m 	c #776C57",
"n 	c #AC9972",
"o 	c #AA9871",
"p 	c #524532",
"q 	c #776B57",
"r 	c #504330",
"s 	c #6B604A",
"t 	c #796D58",
"u 	c #AC9973",
"v 	c #AD9A73",
"w 	c #6C604B",
"x 	c #514532",
"y 	c #978A72",
"z 	c #393837",
"A 	c #3E3B38",
"B 	c #564834",
"C 	c #998C73",
"D 	c #373636",
"E 	c #383737",
"F 	c #AE9C77",
"G 	c #AF9D78",
"H 	c #5B5040",
"I 	c #584D3E",
"J 	c #4F432F",
"K 	c #524631",
"L 	c #6A604A",
"M 	c #404042",
"N 	c #FBFBFB",
"O 	c #FCFCFB",
"P 	c #FCFBFB",
"Q 	c #FBFBFA",
"R 	c #3B6528",
"S 	c #325F0D",
"T 	c #AB9972",
"U 	c #3A3837",
"V 	c #414142",
"W 	c #4C4C4D",
"X 	c #FDFDFD",
"Y 	c #FEFDFD",
"Z 	c #B1A07D",
"` 	c #FAFBFA",
" .	c #3A6527",
"..	c #31600C",
"+.	c #FAFAFA",
"@.	c #FFFFFF",
"#.	c #3F672B",
"$.	c #295E01",
"%.	c #376215",
"&.	c #376114",
"*.	c #AB9871",
"=.	c #494845",
"-.	c #4A4846",
";.	c #746A56",
">.	c #60564A",
",.	c #6C614A",
"'.	c #695E49",
").	c #474645",
"!.	c #796F5D",
"~.	c #7B715E",
"{.	c #AE9C78",
"].	c #5D5347",
"^.	c #7A6F5D",
"/.	c #6A5F49",
"(.	c #867A61",
"_.	c #8A7F67",
":.	c #E5E4EB",
"<.	c #E7E6ED",
"[.	c #9F937E",
"}.	c #9D917C",
"|.	c #D0CFDC",
"1.	c #877B61",
"2.	c #514531",
"3.	c #363535",
"4.	c #E5E3EB",
"5.	c #FEFEFE",
"6.	c #9E927D",
"7.	c #514431",
"8.	c #564B3C",
"9.	c #5B5146",
"0.	c #D4D3E1",
"a.	c #D4D4E1",
"b.	c #E8E7EF",
"c.	c #54493B",
"d.	c #D0CEDC",
"e.	c #D2D1DE",
"f.	c #E6E5ED",
"g.	c #454443",
"h.	c #55493B",
"i.	c #454444",
"j.	c #545355",
"k.	c #4F4231",
"l.	c #4E4230",
"m.	c #4F4331",
"n.	c #343334",
"o.	c #555556",
"p.	c #555455",
"q.	c #524533",
"r.	c #514432",
"s.	c #4E412F",
"t.	c #897E66",
"u.	c #464545",
"v.	c #756A57",
"w.	c #766B58",
"x.	c #978A73",
"y.	c #8C816B",
"z.	c #7A705E",
"A.	c #7C7260",
"B.	c #9B8F79",
"C.	c #9B8F78",
"D.	c #8B8068",
"E.	c #5C5C5D",
"F.	c #5C5C5E",
"G.	c #5D5D5F",
"H.	c #727273",
"I.	c #737374",
"J.	c #5D5D5E",
"K.	c #867B61",
"L.	c #594E3F",
"M.	c #594E40",
"N.	c #504331",
"O.	c #6C614B",
"P.	c #8E836D",
"Q.	c #D3D2DF",
"R.	c #6C6C6C",
"S.	c #6D614B",
"T.	c #8A7E67",
"U.	c #8A7E66",
"V.	c #504432",
"W.	c #504433",
"X.	c #786D58",
"Y.	c #766B57",
"Z.	c #564A3B",
"`.	c #5A4F44",
" +	c #554A3B",
".+	c #534532",
"++	c #FCFCFC",
"@+	c #E9E8EF",
"#+	c #E4E3EB",
"                                                                                                                                ",
"                                                                                                                                ",
"                                                                                                                                ",
"                                                                                                                                ",
"                                                . . . . . . . . . . . . . . . . . .                                             ",
"                                                + + @ @ @ @ @ @ @ @ @ @ @ @ @ @ + +                                             ",
"                                            . + # $ % % % % % % % % % % % % % % $ # + .                                         ",
"                                            . + $ & * * * * * * * * * * * * * * & $ + .                                         ",
"                                        . . = - % * * * * * * * * * * * * * * * * % - = . .                                     ",
"                                        . . ; - % * * * * * * * * * * * * * * * * % - ; . .                                     ",
"                                        . . ; ; $ & * * * * * * * * * * * * * * & $ ; ; . .                                     ",
"                                        . + > , $ & % * * * * * * * * * * * * % & $ , > + .                                     ",
"                                        ; > ' ' ) $ & & & & & & & & & & & & & & $ ) ' ' > ;                                     ",
"                                        ! ~ { { ] ^ ^ ^ ^ ^ ^ ^ ^ ^ ^ ^ ^ ^ ^ ^ ^ ] { { ~ !                                     ",
"                                    . / ' { ( _ : < < < < < < < < < < < < < < < < : _ ( { ' / .                                 ",
"                                    + [ ' { ( _ } | | | | | | | | | | | | | | | | } _ ( { ' [ +                                 ",
"                        . . . . ; ; # 1 ) 2 { _ } | | | | | | | | | | | | | | | | } _ { 2 ) 1 # ; ; . . . .                     ",
"                        . . + + - 3 $ & $ ) 4 5 : < < < < < < < < < < < < < < < < : 5 4 ) $ & $ 3 - + + . .                     ",
"                    . . = ; # $ % % * % & $ ) ) ^ ^ ^ ^ ^ ^ ^ ^ ^ ^ ^ ^ ^ ^ ^ ^ ^ ^ ) ) $ & % * % % $ # ; = . .                 ",
"                    . . = ; # $ % % * % & & & & & & & & & & & & & & & & & & & & & & & & & & % * % % $ # ; = . .                 ",
"                        . . + + - 3 $ & % * * * * * * * * * * * * * * * * * * * * * * * * % & $ 3 - + + . .                     ",
"                        . . . . = ; # $ % % % % % % % % % % % % % % % % % % % % % % % % % % $ # ; = . . . .                     ",
"                                . . + + @ @ @ @ - - - - - - - - - - - - - - - - - - @ @ @ @ + + . .                             ",
"                                6 6 7 7 8 9 . . ; ; ; ; ; ; 0 0 a a 0 0 0 0 0 0 ; b c d 8 8 7 7 6 6                             ",
"                                e f g h i j 9 . ; ; ; ; + c k l m m l n n n n o p p k l q i h g f e                             ",
"                                e r s s i j 8 + ; ; ; ; + c k l t t u v v v n o p p n u t m w s r e                             ",
"                                e x y y z 8 = ; # $ $ # ; = c A l u v v v n B p e p n v u u C y x e                             ",
"                                e x y y D . ; ; $ $ $ $ ; ; . E F G v v v n H I J K n v u u C y x e                             ",
"                            e e e r s L 7 . ; ; $ $ $ $ ; ; . M N O G v v G P Q R S T u t m w s r e e e                         ",
"                            e e e r s L U c = ; # $ $ # ; ; V W X Y Z G v G N `  ...T u t m w s r e e e                         ",
"                                e x y C l k c + ; ; ; ; + V +.X @.@.Y O G n #. .$...T v u u C y x e                             ",
"                                e x y C T k U 8 0 0 0 0 V W X @.X X @.Y Z F %.....&.*.n n n C y x e                             ",
"                            e e e r s s =.-.;.q l n n F N X @.X >.>.X @.Y O F T T *.t m ,.,.s s r e e e                         ",
"                            e e e r g '.).0 !.~.{.G G Z Y @.X N ].].N X @.Y Z G G {.~.^.s s /.g r e e e                         ",
"                                    7 D (._.:.<.X Y Y Y @.X [.}.|.|.}.[.X @.Y Y Y X <.:._.1.2.r                                 ",
"                                    . 3.(._.4.<.5.5.5.5.@.X 6.}.} } }.6.X @.5.5.5.5.<.4._.(.7.e                                 ",
"                                        7.7.8.9.} 0.0.a.b.b.<.<.b.b.<.<.b.b.a.0.0.} 9.8.7.7.                                    ",
"                                        f f f c.d.< < e.f.f.f.f.f.f.f.f.f.f.e.< < d.c.f f f                                     ",
"                                    . . b ; ; g.c.h.h.h.8.8.8.8.8.8.8.8.8.8.h.h.h.c.g.i.j.# + .                                 ",
"                                    . . b ; ; ; k.f f f f f f f f f f f f f f f f k.i.- j.# + .                                 ",
"                                . . . 6 l.f ; ; j.1 1 j.i.; ; ; ; ; ; ; ; i.j.1 1 1 $ j.m.f 6 . . .                             ",
"                                . . 6 n.c.c.).).# $ $ $ 3 - - - - - - - - 3 $ $ $ $ o.p.q.r.n.6 . .                             ",
"                            . . . 6 s.c.d.|.t.(.).- $ & % % % % % % % % % % & $ - u.v.w.x.y r.l.b = . .                         ",
"                            . . . 6 e h.< e.y.t.).i.$ & % * * * * * * * * % & $ ).0 z.A.B.C.p f i.; + .                         ",
"                            . . . 6 e h.< | e.|.c.k.1 $ & & * * * * * * & & $ o.(.D.N X X N I f j.# ; = . .                     ",
"                            . . . 6 s.c.d.< < d.h.m.E.F.F.G.H.I.I.I.I.H.G.F.F.J.K.D.X @.@.X I f 1 $ ; ; . .                     ",
"                        . . . . . . 6 n.c.h.h.h.e I N X X X X X X X X X X X X N L.M.X @.@.X I f 1 $ ; ; . .                     ",
"                        . . . . . . . 6 s.e e e e I N X @.@.@.@.@.@.@.@.@.@.X N I I Q X X Q I k.1 $ - ; . .                     ",
"                        . . . . . . . . 6 6 6 n.e p C.[.X @.@.@.@.@.@.@.@.X [.C.p e I I I I i.i.$ $ $ # + .                     ",
"                        . . . . . . . . . . . 6 e x y C.P X 5.5.5.5.5.5.X P C.y x e N.N.e f i.- $ $ $ # + .                     ",
"                        . . . . . . . . . . . 6 e r s O.D.P.Q.0.0.0.0.Q.P.D.O.s r N.R.R.N.f j.$ $ $ $ # + .                     ",
"                        . . . . . . . . . . . 6 e r s S.1.T.|.< < < < |.y.U./.g V.W.R.R.m.f 1 $ $ $ # # + .                     ",
"                            . .         . . . 6 e p *.l X.Y.Z.h.h.h.h.`.|.|. +V.R.R.W.m.n.7 # $ $ # @ +                         ",
"                            . .         . . . 6 e .+F {.A.z.N.e e e e h.d.d.h.N.R.R.N.e 6 + # # # # + .                         ",
"                                                e I N Y X N I e     e e h.h.e e N.N.        + + + +                             ",
"                                                e I ++@.@.++I e     e e e e e e e e         . . . .                             ",
"                                                e 8.<.@+@+<.8.e                                                                 ",
"                                                e 8.#+f.f.#+8.e                                                                 ",
"                                                    8.8.8.8.                                                                    ",
"                                                    e e e e                                                                     ",
"                                                                                                                                ",
"                                                                                                                                ",
"                                                                                                                                ",
"                                                                                                                                "};
