/* XPM */
static char * villano_derecha3_xpm[] = {
"64 64 190 2",
"  	c None",
". 	c #323234",
"+ 	c #333335",
"@ 	c #343436",
"# 	c #535355",
"$ 	c #545456",
"% 	c #6C6C6D",
"& 	c #555557",
"* 	c #6D6D6E",
"= 	c #434343",
"- 	c #454545",
"; 	c #444444",
"> 	c #484848",
", 	c #A4A4A6",
"' 	c #575759",
") 	c #4C4C4C",
"! 	c #A6A6A8",
"~ 	c #5C5C5E",
"{ 	c #59595C",
"] 	c #38383A",
"^ 	c #A7A7A9",
"/ 	c #A8A8AA",
"( 	c #D1D0DD",
"_ 	c #D1D0DE",
": 	c #39393A",
"< 	c #D2D1DF",
"[ 	c #D3D2E0",
"} 	c #59595B",
"| 	c #464646",
"1 	c #A5A5A7",
"2 	c #333234",
"3 	c #343334",
"4 	c #343335",
"5 	c #353435",
"6 	c #454544",
"7 	c #464544",
"8 	c #484745",
"9 	c #383736",
"0 	c #363535",
"a 	c #4F422F",
"b 	c #4F4230",
"c 	c #685D47",
"d 	c #695E48",
"e 	c #786A4F",
"f 	c #786A50",
"g 	c #7A6C51",
"h 	c #AB9872",
"i 	c #AA9771",
"j 	c #393737",
"k 	c #796B50",
"l 	c #887C62",
"m 	c #867A61",
"n 	c #504431",
"o 	c #504330",
"p 	c #6A5F49",
"q 	c #6B6049",
"r 	c #7C6D52",
"s 	c #AC9972",
"t 	c #AC9973",
"u 	c #514431",
"v 	c #514532",
"w 	c #968A73",
"x 	c #988C74",
"y 	c #3E3B38",
"z 	c #AD9A73",
"A 	c #544733",
"B 	c #383737",
"C 	c #AE9C77",
"D 	c #AF9D78",
"E 	c #5B5040",
"F 	c #584D3E",
"G 	c #7A6C50",
"H 	c #534632",
"I 	c #6B5F49",
"J 	c #404042",
"K 	c #FBFBFB",
"L 	c #FCFCFB",
"M 	c #FCFBFB",
"N 	c #FBFBFA",
"O 	c #3B3937",
"P 	c #414142",
"Q 	c #4C4C4D",
"R 	c #FDFDFD",
"S 	c #FEFDFD",
"T 	c #B1A07D",
"U 	c #FBFCFB",
"V 	c #373636",
"W 	c #FAFAFA",
"X 	c #FFFFFF",
"Y 	c #57A239",
"Z 	c #4E9E28",
"` 	c #4F462F",
" .	c #978B74",
"..	c #AA9871",
"+.	c #FFFEFF",
"@.	c #FCFDFC",
"#.	c #54A035",
"$.	c #4A9C22",
"%.	c #4E4230",
"&.	c #474645",
"*.	c #494846",
"=.	c #4A4846",
"-.	c #4C4A47",
";.	c #AB9972",
">.	c #60564A",
",.	c #5E5448",
"'.	c #E7E6ED",
").	c #E8E7EF",
"!.	c #D2D2DE",
"~.	c #CFCFDC",
"{.	c #55493B",
"].	c #444443",
"^.	c #776A50",
"/.	c #776A4F",
"(.	c #4F4330",
"_.	c #685D48",
":.	c #484746",
"<.	c #4E4E4E",
"[.	c #525150",
"}.	c #AE9C78",
"|.	c #5D5347",
"1.	c #5B5145",
"2.	c #E5E4EB",
"3.	c #E6E5ED",
"4.	c #D2D1DE",
"5.	c #D0CEDC",
"6.	c #AA9872",
"7.	c #9E937F",
"8.	c #9C917D",
"9.	c #D0CFDC",
"0.	c #9C907D",
"a.	c #998E78",
"b.	c #574B3D",
"c.	c #504F4E",
"d.	c #AD9B77",
"e.	c #B19F7C",
"f.	c #9D927D",
"g.	c #9B907C",
"h.	c #988D78",
"i.	c #333334",
"j.	c #3E3E40",
"k.	c #E4E3EB",
"l.	c #E9E8EF",
"m.	c #5A4F44",
"n.	c #4E412F",
"o.	c #3F3E40",
"p.	c #564B3D",
"q.	c #564B3C",
"r.	c #353436",
"s.	c #4F4331",
"t.	c #504331",
"u.	c #555456",
"v.	c #545455",
"w.	c #545355",
"x.	c #454444",
"y.	c #6E6E6E",
"z.	c #6F6E6E",
"A.	c #494746",
"B.	c #AB9873",
"C.	c #716F6E",
"D.	c #6D6C6D",
"E.	c #504332",
"F.	c #534634",
"G.	c #504432",
"H.	c #796C51",
"I.	c #7B6D52",
"J.	c #584D3F",
"K.	c #4B4B4C",
"L.	c #524532",
"M.	c #9B8F79",
"N.	c #FCFCFC",
"O.	c #CFCEDC",
"P.	c #54493B",
"Q.	c #534633",
"R.	c #9A8F79",
"S.	c #FDFDFE",
"T.	c #877B61",
"U.	c #524632",
"V.	c #584C3D",
"W.	c #554A3B",
"X.	c #8C816B",
"Y.	c #8A7E66",
"Z.	c #897E66",
"`.	c #353537",
" +	c #6B604A",
".+	c #6B6B6C",
"++	c #6C6B6C",
"@+	c #6B604B",
"#+	c #968A74",
"$+	c #998D78",
"                                                                                                                                ",
"                                                                                                                                ",
"                                                                                                                                ",
"                                                                                                                                ",
"                                                . . . . . . . . . . . . . . . . . .                                             ",
"                                                + + @ @ @ @ @ @ @ @ @ @ @ @ @ @ + +                                             ",
"                                            . + # $ % % % % % % % % % % % % % % $ # + .                                         ",
"                                            . + $ & * * * * * * * * * * * * * * & $ + .                                         ",
"                                        . . = - % * * * * * * * * * * * * * * * * % - = . .                                     ",
"                                        . . ; - % * * * * * * * * * * * * * * * * % - ; . .                                     ",
"                                        . . ; ; $ & * * * * * * * * * * * * * * & $ ; ; . .                                     ",
"                                        . + > > $ & % * * * * * * * * * * * * % & $ > > + .                                     ",
"                                        ; > , , ' $ & & & & & & & & & & & & & & $ ' , , > ;                                     ",
"                                        > ) ! ! ~ { { { { { { { { { { { { { { { { ~ ! ! ) >                                     ",
"                                    . ] , ! ^ / ( _ _ _ _ _ _ _ _ _ _ _ _ _ _ _ _ ( / ^ ! , ] .                                 ",
"                                    + : , ! ^ / < [ [ [ [ [ [ [ [ [ [ [ [ [ [ [ [ < / ^ ! , : +                                 ",
"                        . . . . ; ; # $ ' } ! / < [ [ [ [ [ [ [ [ [ [ [ [ [ [ [ [ < / ! } ' $ # ; ; . . . .                     ",
"                        . . + + - | $ & $ ' 1 ^ ( _ _ _ _ _ _ _ _ _ _ _ _ _ _ _ _ ( ^ 1 ' $ & $ | - + + . .                     ",
"                    . . = ; # $ % % * % & $ ' ' { { { { { { { { { { { { { { { { { { ' ' $ & % * % % $ # ; = . .                 ",
"                    . . = ; # $ % % * % & & & & & & & & & & & & & & & & & & & & & & & & & & % * % % $ # ; = . .                 ",
"                        . . + + - | $ & % * * * * * * * * * * * * * * * * * * * * * * * * % & $ | - + + . .                     ",
"                        . . . . = ; # $ % % % % % % % % % % % % % % % % % % % % % % % % % % $ # ; = . . . .                     ",
"                                . . + + @ @ @ @ - - - - - - - - - - - - - - - - - - @ @ @ @ + + . .                             ",
"                                2 2 3 4 5 5 5 5 6 7 7 7 7 7 8 8 ; ; ; ; ; ; ; ; 8 8 5 5 9 9 0 0 2 2                             ",
"                                a b c d e f f f f f f f f g h i j + ; ; ; ; + j i h k k h h l m n a                             ",
"                                a o p q g g g g g g g g g r h i j + ; ; ; ; + j i h r r s t l m u a                             ",
"                                a v w x s s s s s s s s s h y j = ; # $ $ # ; = j y h s z s A u a a                             ",
"                                a v w x s s s s s s s s s h 9 . ; ; $ $ $ $ ; ; . B C D z s E F a a                             ",
"                                a o p q g G H H I q g g g k 5 . ; ; $ $ $ $ ; ; . J K L D D M N F a                             ",
"                                a b p q g G H H I q g g g k O j = ; # $ $ # ; ; P Q R S T T U N F a                             ",
"                                2 V w x s s s s s s s s s s s i j + ; ; ; ; + P W R X X S U Y Z ` a                             ",
"                                2 V w  .s s s s s s s s s s s ..y j 8 8 8 8 P Q R X R R +.@.#.$.` a                             ",
"                                a %.&.*.g G H H I q g g =.8 8 -...;.s s s C K R X R >.,.'.).!.~.{.a                             ",
"                                a b ].7 ^./.o (._.d f ^.=.:.<.[.}.D D D D T S X R K |.1.2.3.4.5.{.a                             ",
"                                    b b 7 7 ; ; 6 6 7 =.6.C K R S S S S S S X R 7.8.9.9.0.a.b.{.                                ",
"                                    a b ].; ; ; ; ; Q c.d.e.R X X X X X X X X R f.g.9.9.h.w v a                                 ",
"                                        b %.i.. . j.k.3.'.'.).l.l.l.l.l.l.l.l.).< 9.m.{.v v                                     ",
"                                        a n.i.. . j.k.3.3.3.3.3.3.3.3.3.3.3.3.3.4.5.{.a a a                                     ",
"                                        2 i.= ; ; ; j.o.p.q.q.q.q.q.q.q.q.q.q.q.{.{.                                            ",
"                                        . + - - ; ; @ r.s.t.t.t.b b b b b b b b b b                                             ",
"                                    . . = - % % $ $ % % % % % % u.v.v.w.x.; ; ; ; ].. .                                         ",
"                                    . + ; | % * $ $ y.z.z.z.* * & & & $ | - ; ; ; ; . .                                         ",
"                                . . = ; # $ * % | A.h t t B.z.* * * * * % % $ # ; ; . .                                         ",
"                                . . ; ; $ & * % - 8 h s s h C.z.D.% * * * % $ # ; ; . .                                         ",
"                                . . ; ; $ & * % E.o I q g r h h F.G.u.& & $ - ; ; ; . .                                         ",
"                                . + ; ; $ & * % t.o c d H.I.}.C E J.v.$ ~ ~ K.K.; ].. .                                         ",
"                            . . = ; ; ; $ & * % t.a o L.w M.L S R N J.J.K N.< O.P.b                                             ",
"                            . . ; ; ; - $ & * % t.a u Q.w R.R X X N.F F N.S.< 5.{.a                                             ",
"                            . . ; ; # $ % * * % t.u m m Q.F '.l.l.'.q.{.< < m.{.                                                ",
"                            . . ; ; $ & * * * % t.u T.T.U.V.k.3.3.k.1.m.9.9.W.o                                                 ",
"                            . . ; ; $ & * * & u.b o d p T.m V.q.q.1.5.9.X.Y.d c o a                                             ",
"                            . . = ; # $ * * u.w.b o d p T.T.Q.v v b.5.9.Z.T.p d W.{.                                            ",
"                                . . + `.% % G.b a u T.T.p  +w  . .w b.{.u U.T.Y.9.5.{.a                                         ",
"                                . . . @ .+++t.a {.q.Z.Y. +@+#+ . .w v a a u Z.X.4._ {.a                                         ",
"                                        @ r.a {.5._ 4.( $+#+@+p L.v     a {.9.4.[ _ {.a                                         ",
"                                        . 2 a {.5._ [ 4.g.$+p c o a     a {.5._ _ 5.{.a                                         ",
"                                                {.m._ [ 4.9.W.o             {.{.{.{.                                            ",
"                                                a {.5._ _ 5.{.a             a a a a                                             ",
"                                                    {.{.{.{.                                                                    ",
"                                                    a a a a                                                                     ",
"                                                                                                                                ",
"                                                                                                                                ",
"                                                                                                                                ",
"                                                                                                                                "};
