/* XPM */
static char * villano_frontal3_xpm[] = {
"64 64 190 2",
"  	c None",
". 	c #323234",
"+ 	c #333335",
"@ 	c #343436",
"# 	c #535355",
"$ 	c #545456",
"% 	c #6C6C6D",
"& 	c #555557",
"* 	c #6D6D6E",
"= 	c #434343",
"- 	c #454545",
"; 	c #444444",
"> 	c #464746",
", 	c #474847",
"' 	c #91A285",
") 	c #565757",
"! 	c #474846",
"~ 	c #494B48",
"{ 	c #92A486",
"] 	c #5B5C5D",
"^ 	c #59595C",
"/ 	c #363837",
"( 	c #93A587",
"_ 	c #95A68A",
": 	c #D0D0DD",
"< 	c #D1D0DE",
"[ 	c #373838",
"} 	c #D2D1DF",
"| 	c #D3D2E0",
"1 	c #545455",
"2 	c #585959",
"3 	c #464646",
"4 	c #91A385",
"5 	c #94A589",
"6 	c #333234",
"7 	c #343335",
"8 	c #343435",
"9 	c #484745",
"0 	c #444443",
"a 	c #393737",
"b 	c #383736",
"c 	c #4F422F",
"d 	c #4F4230",
"e 	c #695E48",
"f 	c #695F49",
"g 	c #726A5E",
"h 	c #71695E",
"i 	c #AA9771",
"j 	c #AB9872",
"k 	c #746C5F",
"l 	c #AC9972",
"m 	c #AA9871",
"n 	c #524532",
"o 	c #746B5F",
"p 	c #504330",
"q 	c #6B604A",
"r 	c #6B604B",
"s 	c #353436",
"t 	c #766D60",
"u 	c #AC9973",
"v 	c #AD9A73",
"w 	c #514532",
"x 	c #978A72",
"y 	c #393837",
"z 	c #3E3B38",
"A 	c #564834",
"B 	c #998C73",
"C 	c #373636",
"D 	c #383737",
"E 	c #AE9C77",
"F 	c #AF9D78",
"G 	c #5B5040",
"H 	c #584D3E",
"I 	c #4F432F",
"J 	c #524631",
"K 	c #6A604A",
"L 	c #404042",
"M 	c #FBFBFB",
"N 	c #FCFCFB",
"O 	c #FCFBFB",
"P 	c #FBFBFA",
"Q 	c #3B6528",
"R 	c #325F0D",
"S 	c #AB9972",
"T 	c #3A3837",
"U 	c #414142",
"V 	c #4C4C4D",
"W 	c #FDFDFD",
"X 	c #FEFDFD",
"Y 	c #B1A07D",
"Z 	c #FAFBFA",
"` 	c #3A6527",
" .	c #31600C",
"..	c #FAFAFA",
"+.	c #FFFFFF",
"@.	c #3F672B",
"#.	c #295E01",
"$.	c #376215",
"%.	c #376114",
"&.	c #494845",
"*.	c #494846",
"=.	c #716A5E",
"-.	c #60564A",
";.	c #6C614B",
">.	c #6C614A",
",.	c #695E49",
"'.	c #474645",
").	c #484746",
"!.	c #766F64",
"~.	c #797165",
"{.	c #AE9C78",
"].	c #5D5347",
"^.	c #776F64",
"/.	c #6A5F49",
"(.	c #867A61",
"_.	c #8A7F67",
":.	c #E5E4EB",
"<.	c #E7E6ED",
"[.	c #9F937E",
"}.	c #9D917C",
"|.	c #D0CFDC",
"1.	c #877B61",
"2.	c #514531",
"3.	c #363535",
"4.	c #E5E3EB",
"5.	c #FEFEFE",
"6.	c #9E927D",
"7.	c #514431",
"8.	c #564B3C",
"9.	c #5B5146",
"0.	c #D4D3E1",
"a.	c #D4D4E1",
"b.	c #E8E7EF",
"c.	c #54493B",
"d.	c #D0CEDC",
"e.	c #D2D1DE",
"f.	c #E6E5ED",
"g.	c #545355",
"h.	c #454444",
"i.	c #454443",
"j.	c #55493B",
"k.	c #4F4231",
"l.	c #4F4331",
"m.	c #4E4230",
"n.	c #343334",
"o.	c #514432",
"p.	c #524533",
"q.	c #555456",
"r.	c #555556",
"s.	c #978A73",
"t.	c #736B5F",
"u.	c #464545",
"v.	c #897E66",
"w.	c #4E412F",
"x.	c #9B8F78",
"y.	c #9B8F79",
"z.	c #797266",
"A.	c #777065",
"B.	c #8C816B",
"C.	c #8B8068",
"D.	c #867B61",
"E.	c #5D5D5E",
"F.	c #5C5C5E",
"G.	c #5D5D5F",
"H.	c #727273",
"I.	c #737374",
"J.	c #5C5C5D",
"K.	c #594E40",
"L.	c #594E3F",
"M.	c #504331",
"N.	c #8E836D",
"O.	c #D3D2DF",
"P.	c #6C6C6C",
"Q.	c #8A7E66",
"R.	c #8A7E67",
"S.	c #877B62",
"T.	c #6D614B",
"U.	c #514433",
"V.	c #554A3B",
"W.	c #5A4F44",
"X.	c #554A3C",
"Y.	c #736B5E",
"Z.	c #756D60",
"`.	c #AB9871",
" +	c #787065",
".+	c #7A7266",
"++	c #534532",
"@+	c #FCFCFC",
"#+	c #E9E8EF",
"$+	c #E4E3EB",
"                                                                                                                                ",
"                                                                                                                                ",
"                                                                                                                                ",
"                                                                                                                                ",
"                                                . . . . . . . . . . . . . . . . . .                                             ",
"                                                + + @ @ @ @ @ @ @ @ @ @ @ @ @ @ + +                                             ",
"                                            . + # $ % % % % % % % % % % % % % % $ # + .                                         ",
"                                            . + $ & * * * * * * * * * * * * * * & $ + .                                         ",
"                                        . . = - % * * * * * * * * * * * * * * * * % - = . .                                     ",
"                                        . . ; - % * * * * * * * * * * * * * * * * % - ; . .                                     ",
"                                        . . ; ; $ & * * * * * * * * * * * * * * & $ ; ; . .                                     ",
"                                        . + > , $ & % * * * * * * * * * * * * % & $ , > + .                                     ",
"                                        ; > ' ' ) $ & & & & & & & & & & & & & & $ ) ' ' > ;                                     ",
"                                        ! ~ { { ] ^ ^ ^ ^ ^ ^ ^ ^ ^ ^ ^ ^ ^ ^ ^ ^ ] { { ~ !                                     ",
"                                    . / ' { ( _ : < < < < < < < < < < < < < < < < : _ ( { ' / .                                 ",
"                                    + [ ' { ( _ } | | | | | | | | | | | | | | | | } _ ( { ' [ +                                 ",
"                        . . . . ; ; # 1 ) 2 { _ } | | | | | | | | | | | | | | | | } _ { 2 ) 1 # ; ; . . . .                     ",
"                        . . + + - 3 $ & $ ) 4 5 : < < < < < < < < < < < < < < < < : 5 4 ) $ & $ 3 - + + . .                     ",
"                    . . = ; # $ % % * % & $ ) ) ^ ^ ^ ^ ^ ^ ^ ^ ^ ^ ^ ^ ^ ^ ^ ^ ^ ^ ) ) $ & % * % % $ # ; = . .                 ",
"                    . . = ; # $ % % * % & & & & & & & & & & & & & & & & & & & & & & & & & & % * % % $ # ; = . .                 ",
"                        . . + + - 3 $ & % * * * * * * * * * * * * * * * * * * * * * * * * % & $ 3 - + + . .                     ",
"                        . . . . = ; # $ % % % % % % % % % % % % % % % % % % % % % % % % % % $ # ; = . . . .                     ",
"                                . . + + @ @ @ @ - - - - - - - - - - - - - - - - - - @ @ @ @ + + . .                             ",
"                                6 6 7 7 8 8 . . ; ; ; ; ; ; 9 9 - - 9 9 9 9 9 9 ; 0 a b 8 8 7 7 6 6                             ",
"                                c d e f g h 8 . ; ; ; ; + a i j k k j l l l l m n n i j o g f e d c                             ",
"                                c p q r g h s + ; ; ; ; + a i j t t u v v v l m n n l u t k r q p c                             ",
"                                c w x x y s = ; # $ $ # ; = a z j u v v v l A n c n l v u u B x w c                             ",
"                                c w x x C . ; ; $ $ $ $ ; ; . D E F v v v l G H I J l v u u B x w c                             ",
"                            c c c p q K 7 . ; ; $ $ $ $ ; ; . L M N F v v F O P Q R S u t k r q p c c c                         ",
"                            c c c p q K T a = ; # $ $ # ; ; U V W X Y F v F M Z `  .S u t k r q p c c c                         ",
"                                c w x B j i a + ; ; ; ; + U ..W +.+.X N F l @.` #. .S v u u B x w c                             ",
"                                c w x B S i T s 9 9 9 9 U V W +.W W +.X Y E $. . .%.j u l l B x w c                             ",
"                            c c c p q q &.*.=.o j l l E M W +.W -.-.W +.X N E S S j t k ;.>.q q p c c c                         ",
"                            c c c p e ,.'.).!.~.{.F F Y X +.W M ].].M W +.X Y F F {.~.^.q q /.e p c c c                         ",
"                                    7 C (._.:.<.W X X X +.W [.}.|.|.}.[.W +.X X X W <.:._.1.2.p                                 ",
"                                    . 3.(._.4.<.5.5.5.5.+.W 6.}.} } }.6.W +.5.5.5.5.<.4._.(.7.c                                 ",
"                                        7.7.8.9.} 0.0.a.b.b.<.<.b.b.<.<.b.b.a.0.0.} 9.8.7.7.                                    ",
"                                        d d d c.d.< < e.f.f.f.f.f.f.f.f.f.f.e.< < d.c.d d d                                     ",
"                                    . + # g.h.i.c.j.j.j.8.8.8.8.8.8.8.8.8.8.j.j.j.c.i.; ; 0 . .                                 ",
"                                    . + # g.- h.k.d d d d d d d d d d d d d d d d k.; ; ; 0 . .                                 ",
"                                . . . 6 d l.g.$ 1 1 1 g.h.; ; ; ; ; ; ; ; h.g.1 1 g.; ; d m.6 . . .                             ",
"                                . . 6 n.o.p.q.r.$ $ $ $ 3 - - - - - - - - 3 $ $ $ # '.'.c.c.n.6 . .                             ",
"                            . . = 0 m.o.x s.t.g u.- $ & % % % % % % % % % % & $ - '.(.v.|.d.c.w.6 . . .                         ",
"                            . + ; h.d n x.y.z.A.).'.$ & % * * * * * * * * % & $ h.'.v.B.e.< j.c 6 . . .                         ",
"                        . . = ; # g.d H M W W M C.(.r.$ & & * * * * * * & & $ 1 k.c.|.e.| < j.c 6 . . .                         ",
"                        . . ; ; $ 1 d H W +.+.W C.D.E.F.F.G.H.I.I.I.I.H.G.F.F.J.l.j.d.< < d.c.w.6 . . .                         ",
"                        . . ; ; $ 1 d H W +.+.W K.L.M W W W W W W W W W W W W M H c j.j.j.c.n.6 . . . . . .                     ",
"                        . . ; - $ 1 k.H P W W P H H M W +.+.+.+.+.+.+.+.+.+.W M H c c c c c n.6 . . . . . .                     ",
"                        . + # $ $ $ h.h.H H H H c n x.[.W +.+.+.+.+.+.+.+.W [.x.n c c c c c c w.6 . . . . .                     ",
"                        . + # $ $ $ - h.m.c c c c w x x.O W 5.5.5.5.5.5.W O x.x w c M.M.M.M.M.l.n.6 6 6 . .                     ",
"                        . + # $ $ $ $ # 7 6 6 n.c p q ;.C.N.O.0.0.0.0.O.N.C.;.q p M.P.% % % % P.l.c c w.6 .                     ",
"                        . + # # $ $ $ # + . . 6 w.d e /.Q.B.|.< < < < |.R.S.T.q p M.P.% % % * % U.M.M.l.n.6                     ",
"                            + @ # $ $ # + . . . 6 n.d V.|.|.W.j.j.j.j.X.Y.Z.j `.n c M.M.M.U.% * % % % P.l.c                     ",
"                            . + # # # # + . . . . 6 c j.d.d.j.c c c c M. +.+{.E ++c c c c M.P.% % % % P.M.c                     ",
"                                + + + +                 j.j.c c     c H M W X M H c         M.M.M.M.M.M.                        ",
"                                . . . .                 c c c c     c H @++.+.@+H c         c c c c c c                         ",
"                                                                    c 8.<.#+#+<.8.c                                             ",
"                                                                    c 8.$+f.f.$+8.c                                             ",
"                                                                        8.8.8.8.                                                ",
"                                                                        c c c c                                                 ",
"                                                                                                                                ",
"                                                                                                                                ",
"                                                                                                                                ",
"                                                                                                                                "};
