/* XPM */
static char * villano_trasera3_xpm[] = {
"64 64 125 2",
"  	c None",
". 	c #323234",
"+ 	c #333335",
"@ 	c #343436",
"# 	c #535355",
"$ 	c #545456",
"% 	c #6C6C6D",
"& 	c #555557",
"* 	c #6D6D6E",
"= 	c #434343",
"- 	c #454545",
"; 	c #444444",
"> 	c #484848",
", 	c #A4A4A6",
"' 	c #575759",
") 	c #4C4C4C",
"! 	c #A6A6A8",
"~ 	c #5C5C5E",
"{ 	c #59595C",
"] 	c #38383A",
"^ 	c #A7A7A9",
"/ 	c #A8A8AA",
"( 	c #D1D0DD",
"_ 	c #D1D0DE",
": 	c #39393A",
"< 	c #D2D1DF",
"[ 	c #D3D2E0",
"} 	c #59595B",
"| 	c #464646",
"1 	c #A5A5A7",
"2 	c #333234",
"3 	c #333334",
"4 	c #4F422F",
"5 	c #4E412F",
"6 	c #383636",
"7 	c #373636",
"8 	c #383736",
"9 	c #393737",
"0 	c #484745",
"a 	c #464544",
"b 	c #524531",
"c 	c #9C8C6B",
"d 	c #9E8D6C",
"e 	c #AB9872",
"f 	c #AB9972",
"g 	c #AC9972",
"h 	c #796C54",
"i 	c #766A52",
"j 	c #9D8C6C",
"k 	c #9E8E6D",
"l 	c #AD9A73",
"m 	c #7B6D55",
"n 	c #776A53",
"o 	c #4A4846",
"p 	c #504330",
"q 	c #70644C",
"r 	c #70644D",
"s 	c #AA9872",
"t 	c #4C4A47",
"u 	c #9E8D6D",
"v 	c #9F8E6D",
"w 	c #9D8C6B",
"x 	c #AC9A73",
"y 	c #4F4330",
"z 	c #615845",
"A 	c #615945",
"B 	c #72654E",
"C 	c #A08F6D",
"D 	c #494846",
"E 	c #5E5643",
"F 	c #5F5744",
"G 	c #6F634D",
"H 	c #71654E",
"I 	c #9D8D6C",
"J 	c #454544",
"K 	c #464644",
"L 	c #6D624B",
"M 	c #6E624B",
"N 	c #514432",
"O 	c #857C6C",
"P 	c #71654D",
"Q 	c #72664E",
"R 	c #6E634C",
"S 	c #6E624C",
"T 	c #363535",
"U 	c #343435",
"V 	c #504431",
"W 	c #847B6B",
"X 	c #6F634C",
"Y 	c #353435",
"Z 	c #343334",
"` 	c #514431",
" .	c #514532",
"..	c #867D6C",
"+.	c #4F4230",
"@.	c #504432",
"#.	c #867C6C",
"$.	c #444443",
"%.	c #454443",
"&.	c #4F4231",
"*.	c #545355",
"=.	c #545455",
"-.	c #353537",
";.	c #6B6B6C",
">.	c #454444",
",.	c #4D4D4E",
"'.	c #4E4E4E",
").	c #574C3E",
"!.	c #F0EFF3",
"~.	c #F2F1F5",
"{.	c #504331",
"].	c #4F4331",
"^.	c #363536",
"/.	c #353536",
"(.	c #363639",
"_.	c #574C3D",
":.	c #F4F3F7",
"<.	c #6C6C6C",
"[.	c #6D6D6D",
"}.	c #847C6C",
"|.	c #857C6D",
"1.	c #91909A",
"2.	c #91919B",
"3.	c #857D6D",
"4.	c #514534",
"                                                                                                                                ",
"                                                                                                                                ",
"                                                                                                                                ",
"                                                                                                                                ",
"                                                . . . . . . . . . . . . . . . . . .                                             ",
"                                                + + @ @ @ @ @ @ @ @ @ @ @ @ @ @ + +                                             ",
"                                            . + # $ % % % % % % % % % % % % % % $ # + .                                         ",
"                                            . + $ & * * * * * * * * * * * * * * & $ + .                                         ",
"                                        . . = - % * * * * * * * * * * * * * * * * % - = . .                                     ",
"                                        . . ; - % * * * * * * * * * * * * * * * * % - ; . .                                     ",
"                                        . . ; ; $ & * * * * * * * * * * * * * * & $ ; ; . .                                     ",
"                                        . + > > $ & % * * * * * * * * * * * * % & $ > > + .                                     ",
"                                        ; > , , ' $ & & & & & & & & & & & & & & $ ' , , > ;                                     ",
"                                        > ) ! ! ~ { { { { { { { { { { { { { { { { ~ ! ! ) >                                     ",
"                                    . ] , ! ^ / ( _ _ _ _ _ _ _ _ _ _ _ _ _ _ _ _ ( / ^ ! , ] .                                 ",
"                                    + : , ! ^ / < [ [ [ [ [ [ [ [ [ [ [ [ [ [ [ [ < / ^ ! , : +                                 ",
"                        . . . . ; ; # $ ' } ! / < [ [ [ [ [ [ [ [ [ [ [ [ [ [ [ [ < / ! } ' $ # ; ; . . . .                     ",
"                        . . + + - | $ & $ ' 1 ^ ( _ _ _ _ _ _ _ _ _ _ _ _ _ _ _ _ ( ^ 1 ' $ & $ | - + + . .                     ",
"                    . . = ; # $ % % * % & $ ' ' { { { { { { { { { { { { { { { { { { ' ' $ & % * % % $ # ; = . .                 ",
"                    . . = ; $ & % * * * & & & & & & & & & & & & & & & & & & & & & & & & & & * * * % & $ ; = . .                 ",
"                        . + # $ & & * * * * * * * * * * * * * * * * * * * * * * * * * * * * * * & & $ # + .                     ",
"                        . + # # # $ % % * * * * * * * * * * * * * * * * * * * * * * * * * * % % $ # # # + .                     ",
"                            + + + + - | $ & * * * * * * * * * * * * * * * * * * * * * * & $ | - + + + +                         ",
"                            . . 2 3 = ; # $ % % % % % % % % % % % % % % % % % % % % % % $ # ; = 3 2 . .                         ",
"                                4 5 3 . + + @ @ - - - - - - - - - - - - - - - - - - @ @ + + . 3 5 4                             ",
"                                4 4 6 7 8 8 8 9 0 0 0 0 a a 0 0 a a ; ; a a 0 0 0 0 9 8 8 8 7 6 4 4                             ",
"                                4 b c d e f f f g g g e h h e e h i a a i h e g g g f f f e d c b 4                             ",
"                                4 b j k g g g g l l l g m m g g h n o o i h g l l l g g g g k j b 4                             ",
"                            4 4 4 p q r h h h m g l l l g g l g h h e s o o g l l g m h h h r q p 4 4 4                         ",
"                            4 4 4 p q r h h h m e g g g l l l g m m g g t t s g g e m h h h r q p 4 4 4                         ",
"                                4 b j d u v g e m h h m g l l l g g l l g s t o h m e g v u d j b 4                             ",
"                                4 b w d d v x g m h h m g l l l l l l l l g t o i h e f k d d w b 4                             ",
"                            4 4 4 y z A r B v C g g g g l l l l l l l l l l g s o a 0 D r r A z y 4 4 4                         ",
"                            4 4 4 y E F G H I k g g g g g g l l l l l l g g g e D J J K L M F E y 4 4 4                         ",
"                                    y N O O H r P P P P P Q v v v v v v Q P P P R S S L T U 3 3                                 ",
"                                    4 V W O X S r r r r r B d v v v v d B r r r r r S M Y 2 . .                                 ",
"                                    2 Z V ` p  .O ......d d v v v v v v d d ......O  .p 4 5 2 .                                 ",
"                                    . 2 5 4 +.@.W O O #.I d d d d d d d d I #.O O W @.+.4 5 2 .                                 ",
"                                    . . 2 3 $.%.@.` ` ` b b b b b b b b b b ` ` ` @.%.$.3 2 . .                                 ",
"                                    + + . + ; ; &.+.+.+.+.+.+.+.+.+.+.+.+.+.+.+.+.&.; ; . . . .                                 ",
"                                . + # # ; ; ; ; *.=.=.=.=.=.=.=.=.=.=.=.=.=.=.=.=.*.; ; . . = = . .                             ",
"                                @ -.# $ ; ; ; - $ $ $ $ & & & & & & & & & & $ $ $ $ ; ; . . ; ; . .                             ",
"                            . @ ;.% & $ ; ; # $ $ $ $ & % * * * * * * * * % & $ $ $ ; ; . . ; ; . .                             ",
"                            + -.% * & $ - - $ $ $ $ & & * * * * * * * * * * & $ $ $ ; ; . . ; ; . .                             ",
"                        . + # $ * * & $ $ $ $ $ $ & % * * * * * * * * * * * & $ $ $ ; ; . . ; ; . .                             ",
"                        . + $ & * * & $ $ $ $ $ $ & * * * * * * * * * * * * & & $ $ - ; + + ; ; . .                             ",
"                        ; - % * * * & $ $ $ - - $ & * * * * * * & & * * * * * % & $ $ # ; ; ; ; . .                             ",
"                        ; | % * * * & $ $ $ ; ; $ & * * * * * * & & * * * * * * & $ $ $ ; ; ; ; . .                             ",
"                    . + # $ * * * * & $ $ $ ; - % * * * * * * * & & * * * * * * & $ $ $ ; ; ; ; . .                             ",
"                    . + # & * * * % & $ $ # - | % * * * * * * % & & * * * * * % & $ $ $ ; ; ; ; . .                             ",
"                    . + # & * * & & $ $ - - # $ * * * * * * & & $ & * * & & & & $ $ $ $ ; ; ; ; . .                             ",
"                    . + # $ % % $ $ $ # ; ; $ & * * * * * % & $ $ & % % $ $ $ $ $ $ $ $ ; ; ; = . .                             ",
"                        + + @ @ ; ; ; ; ; ; $ & * * * * & & $ $ $ $ | - ; ; ; ; ; - $ $ ; ; + .                                 ",
"                        . . 2 3 = ; ; ; ; ; # $ % % % % $ # # # $ # >.; ,.'.'.,.; >.# # ; = . .                                 ",
"                            4 5 3 . . . . . + + @ @ @ @ + + + + ; >.+.).!.~.~.!.).+.>.; + .                                     ",
"                            {.].^./.(.(.(.(.(.(.(.(././.2 2 2 3 ; ; +._.~.:.:.~._.+.; ; . .                                     ",
"                        4 {.<.[.}.|.1.2.2.2.2.2.2.1.|.W V 4 4 4     4 _.~.:.:.~._.4                                             ",
"                        4 {.<.[.O 3.1.2.2.2.2.2.2.1.3.W ` 4 4 4     4 _.!.~.~.!._.4                                             ",
"                            {.{.` ` 4.4.4.4.4.4.4.4.` `                 _._._._.                                                ",
"                            4 4 4 4 4 4 4 4 4 4 4 4 4 4                 4 4 4 4                                                 ",
"                                                                                                                                ",
"                                                                                                                                ",
"                                                                                                                                ",
"                                                                                                                                "};
